<?xml version="1.0" standalone="no"?>
<!DOCTYPE svg PUBLIC "-//W3C//DTD SVG 1.1//EN" "http://www.w3.org/Graphics/SVG/1.1/DTD/svg11.dtd" >
<svg xmlns="http://www.w3.org/2000/svg" xmlns:xlink="http://www.w3.org/1999/xlink" version="1.1">
<metadata>
Created by FontForge 20170910 at Sun Feb 11 00:24:46 2001
 By Jimmy Wärting
Copyright (c) 1991 Adobe Systems Incorporated. All Rights Reserved.ITC Isadora is a trademark of International Typeface Corporation. Rus. Morin Maxim 2000
</metadata>
<defs>
<font id="1IsadoraMBold" horiz-adv-x="584" >
  <font-face 
    font-family="1Isadora M Bold"
    font-weight="700"
    font-stretch="normal"
    units-per-em="1000"
    panose-1="2 2 8 0 0 0 0 0 0 0"
    ascent="800"
    descent="-200"
    x-height="456"
    cap-height="662"
    bbox="-262 -316 1296 917"
    underline-thickness="12"
    underline-position="-31"
    unicode-range="U+001F-F002"
  />
<missing-glyph horiz-adv-x="500" 
d="M63 0v766h375v-766h-375zM125 63h250v641h-250v-641z" />
    <glyph glyph-name=".notdef" horiz-adv-x="500" 
d="M63 0v766h375v-766h-375zM125 63h250v641h-250v-641z" />
    <glyph glyph-name=".null" horiz-adv-x="0" 
 />
    <glyph glyph-name="nonmarkingreturn" horiz-adv-x="310" 
 />
    <glyph glyph-name="space" horiz-adv-x="310" 
 />
    <glyph glyph-name="exclam" unicode="!" horiz-adv-x="408" 
d="M200 210l-62 -30q67 185 106 352q14 59 17 101l107 39q0 -89 -61 -234q-15 -36 -83 -177q-13 -27 -24 -51zM121 -16q-55 0 -55 56q0 24 15.5 39.5t39.5 15.5q55 0 55 -55q0 -56 -55 -56z" />
    <glyph glyph-name="quotedbl" unicode="&#x22;" horiz-adv-x="368" 
d="M256 656l-20 -210h-48l-21 210h89zM381 656l-21 -210h-48l-21 210h90z" />
    <glyph glyph-name="numbersign" unicode="#" 
d="M181 166l-53 -169l-66 -13l57 182h-103l42 57h79l30 91h-101l38 56h82l56 175l66 10l-60 -185h106l58 175l65 10l-59 -185h112l-40 -56h-92l-30 -91h114l-40 -57h-91l-54 -169l-67 -13l59 182h-108zM306 223l30 91h-106l-30 -91h106z" />
    <glyph glyph-name="dollar" unicode="$" 
d="M242 58l-18 -56l-52 -18l26 84q-59 18 -105 76l45 80q16 -77 72 -120l68 206q-23 28 -45 74q-15 31 -15 64q0 32 14 60q39 77 136 82l13 41l52 15l-19 -60q65 -17 98 -54l-45 -76q-7 30 -21 57q-14 22 -42 40l-58 -178q85 -105 85 -177q0 -73 -68 -119q-37 -26 -83 -26
h-4q-21 0 -34 5zM314 418l46 145q-29 -1 -51.5 -20.5t-22.5 -48.5v-10q0 -24 28 -66zM312 270l-60 -182q5 -1 14 -1q39 0 65.5 19t26.5 56q0 44 -46 108z" />
    <glyph glyph-name="percent" unicode="%" horiz-adv-x="796" 
d="M268 1l-116 -17q21 52 78 140q74 114 186 244l70 80q52 59 132 142l-2 2l2 -2q0 -10 -38 -27q-16 -8 -32 -15l-29 -12q-103 -42 -121 -42q-8 0 -12 1l-14 3q-4 -78 -61 -152q-62 -82 -144 -82q-58 0 -89.5 35.5t-31.5 93.5q0 82 64 161q60 74 132 74h6q64 0 86 -32
q10 -19 36 -50q11 -10 36 -10h4q55 0 139 42q36 18 69 38l30 18q13 8 24 16l21 -17q-53 -51 -127 -135q-145 -164 -231 -325q-46 -86 -67 -172zM108 379q0 -33 14 -61q17 -34 47 -34q46 0 87 64q53 81 53 167q0 35 -13 60q-16 33 -48 33q-48 0 -94 -74.5t-46 -148.5v-6z
M538 0q-53 0 -83.5 36.5t-30.5 89.5q0 90 66 169q63 75 138 75q51 0 84 -37t34 -89q2 -89 -64.5 -166.5t-136.5 -77.5h-7zM486 110q0 -33 14 -59q17 -31 47 -31q23 0 48 22q40 35 65 100q22 59 22 117q0 90 -58 90q-49 0 -92 -77q-46 -81 -46 -156v-6z" />
    <glyph glyph-name="ampersand" unicode="&#x26;" horiz-adv-x="815" 
d="M293 -16h-23q-34 0 -72 10q-80 21 -119 86q-19 32 -19 76q0 127 159 206q27 14 82 40q-17 48 -17 92q0 75 42.5 118.5t117.5 43.5q48 0 86 -22q44 -25 44 -70q0 -84 -115 -129q-28 -11 -57 -21q6 -24 25 -75l9 -27q80 84 201 84h44q21 -3 42 -3h24q30 0 62 7q17 3 23 3
q3 -1 3 -3t-25 -32q-29 -34 -83 -38q-29 -2 -63 -2q-15 -149 -102 -245q139 -189 306 -247l-132 -36q-118 56 -246 218q-50 -34 -99 -34h-4q-70 0 -123.5 54t-53.5 124q0 51 43 112l36 10q-57 -60 -57 -126q0 -76 68 -127q40 -31 90 -31q46 0 89 30q-119 165 -172 347
q-138 -99 -138 -219t124 -174zM614 328h-46q-74 0 -122 -37q3 -7 14 -26l23 -44q13 -24 27 -48l22 -40q6 -12 19 -35q69 64 69 176q0 9 -3 27t-3 27zM385 526q0 -36 11 -89q90 52 90 141q0 50 -38 50q-30 0 -48 -38q-15 -30 -15 -64z" />
    <glyph glyph-name="quotesingle" unicode="'" horiz-adv-x="234" 
d="M248 656l-22 -210h-47l-21 210h90z" />
    <glyph glyph-name="parenleft" unicode="(" horiz-adv-x="349" 
d="M450 766l15 -24q-119 -94 -204 -262q-105 -207 -105 -427q0 -80 28 -177l-28 -12q-4 14 -14 40q-58 147 -58 284q0 99 28 184q76 230 338 394z" />
    <glyph glyph-name="parenright" unicode=")" horiz-adv-x="349" 
d="M-89 -136l-15 24q112 84 202 260q107 209 107 428q0 85 -28 176l28 14q71 -164 71 -326q0 -348 -365 -576z" />
    <glyph glyph-name="asterisk" unicode="*" 
d="M332 330l-72 -12q2 0 16 30q5 12 11 25l8 19l17 41q10 23 16 34l-2 2q-3 1 -43 -36q-34 -32 -35 -33l-38 40q41 20 122 60q-41 42 -86 86l32 42q34 -63 68 -104q0 2 12 69q8 41 8 69l74 10q-2 -4 -19 -42l-19 -45q-12 -26 -27 -59l2 -2h1q10 0 43 31q14 12 38 37l41 -37
q-42 -19 -130 -65q51 -53 86 -82l-32 -46l-66 105q-8 -19 -17 -65t-9 -72z" />
    <glyph glyph-name="plus" unicode="+" 
d="M299 186v-202h-67v202h-174v58h174v212h67v-212h174v-58h-174z" />
    <glyph glyph-name="comma" unicode="," horiz-adv-x="310" 
d="M18 -124l-10 29q44 16 61 28q31 21 31 55q0 4 -17 30q-17 17 -17 30q0 24 15.5 38t39.5 14q55 0 55 -55q0 -100 -140 -161q-12 -5 -18 -8z" />
    <glyph glyph-name="hyphen" unicode="-" horiz-adv-x="291" 
d="M8 212l52 79h92q41 0 63 2l42 4l-46 -75h-81q-82 0 -122 -10z" />
    <glyph glyph-name="hyphen" unicode="&#x2010;" horiz-adv-x="291" 
d="M8 212l52 79h92q41 0 63 2l42 4l-46 -75h-81q-82 0 -122 -10z" />
    <glyph glyph-name="period" unicode="." horiz-adv-x="310" 
d="M102 -16q-24 0 -41 17t-17 41q0 26 16 42t42 16q58 0 58 -58q0 -25 -16.5 -41.5t-41.5 -16.5z" />
    <glyph glyph-name="slash" unicode="/" horiz-adv-x="465" 
d="M358 459l-359 -563l-87 -15l18 27q12 15 32 44q7 10 36 55l297 465q12 18 35 55l30 49q15 27 46 80l98 16l-114 -165q-21 -31 -32 -48z" />
    <glyph glyph-name="zero" unicode="0" 
d="M222 -16q-90 0 -139 76q-42 65 -42 160q0 159 109 300q42 54 93 91q63 45 119 45h10q33 0 63 -15q70 -35 97 -119q13 -41 13 -92v-18q0 -110 -61 -220.5t-154 -171.5q-55 -36 -102 -36h-6zM135 150q0 -145 83 -145q41 0 73 28q64 57 103 171q37 110 50 208q6 47 6 76
q0 147 -82 147q-75 0 -155 -162q-78 -158 -78 -309v-14z" />
    <glyph glyph-name="one" unicode="1" 
d="M280 0l-115 -10q47 130 76 217l27 79l92 282l-2 2l-11 -14q-46 -58 -107 -131q-15 -19 -46 -55l-18 67l203 189l111 13q-19 -48 -55 -145l-19 -56l-60 -180q-31 -92 -60 -202q-8 -30 -16 -56z" />
    <glyph glyph-name="two" unicode="2" 
d="M456 89l-42 -89h-428l23 74l147 126q116 99 188 185q64 76 64 119q0 51 -32.5 80.5t-84.5 29.5q-32 0 -51.5 -7.5t-53.5 -22.5l-9 44q67 28 145 28q81 0 134 -34q62 -39 62 -116t-87 -162q-39 -38 -130 -108q-51 -38 -138 -94q-24 -18 -73 -52q-13 -9 -22 -14v-2h166
q124 0 222 15z" />
    <glyph glyph-name="three" unicode="3" 
d="M203 596l-11 37q78 23 142 23q67 0 112 -34q50 -38 50 -92q0 -91 -115 -138q-50 -21 -113 -26v-2q0 5 60 -21q31 -13 65 -29q26 -20 41.5 -50t15.5 -74q0 -72 -49 -125q-45 -48 -118 -68q-47 -13 -95 -13q-84 0 -158 28l21 40q2 -1 49 -17q26 -9 69 -9q99 0 152 67
q30 39 30 89q0 85 -91 127q-51 23 -114 23h-15l33 58q35 -5 47 -5q99 0 160 59q35 34 35 82q0 92 -102 92q-44 0 -101 -22z" />
    <glyph glyph-name="four" unicode="4" 
d="M404 207h-25l-57 -207l-117 -10q21 53 45 129l28 88h-134q-57 0 -103 -9l-15 44q82 68 164.5 184.5t93.5 206.5l93 6q-25 -81 -96 -172q-45 -58 -134 -147q-20 -20 -39 -40h195l115 348l112 11q-9 -28 -80 -225q-10 -27 -30 -84l-18 -50h50q53 0 97 4l-45 -81
q-42 4 -100 4z" />
    <glyph glyph-name="five" unicode="5" 
d="M560 639l-42 -67h-232l-68 -139q97 -19 158 -70q72 -59 72 -148q0 -98 -70.5 -164.5t-187.5 -66.5q-96 0 -168 38l15 32q68 -34 130 -34q80 0 135 58q52 55 52 129q0 83 -80 127q-62 34 -141 34q63 94 114 210q12 26 25 61h288z" />
    <glyph glyph-name="six" unicode="6" 
d="M594 637l-20 -39q-38 16 -76 16h-4q-126 0 -214 -120q-58 -79 -84 -180l2 -2q69 79 156 79q70 0 110 -48.5t40 -118.5q0 -86 -64 -160q-69 -80 -168 -80q-89 0 -142 63q-50 58 -50 147q0 170 118 312q125 150 288 150q55 0 108 -19zM179 142q0 -52 23 -91q28 -46 76 -46
q27 0 54 19q84 60 84 204q0 52 -22 86q-25 40 -74 40q-55 0 -98 -61t-43 -145v-6z" />
    <glyph glyph-name="seven" unicode="7" 
d="M194 0l-134 -10q12 77 135 233q43 54 102 121l191 217h-143q-49 0 -99 -7q-30 -5 -71 -16l59 109q80 -8 98 -8h100q110 0 156 8l19 -16q-67 -72 -133 -145q-80 -87 -128 -150q-140 -185 -152 -336z" />
    <glyph glyph-name="eight" unicode="8" 
d="M234 -16q-81 0 -131 32q-60 39 -60 115q0 86 75 150q54 47 135 67q-72 75 -72 134q0 82 64 130q58 44 142 44q59 0 100 -22q51 -27 51 -81q0 -67 -55 -115q-31 -28 -113 -70q109 -88 109 -180q0 -85 -73.5 -144.5t-165.5 -59.5h-6zM265 510v-4q0 -49 59 -98l27 -23
q103 69 103 166q0 37 -20.5 60.5t-56.5 23.5q-46 0 -79 -39t-33 -86zM144 119q0 -114 106 -114q36 0 67.5 20t48.5 53q19 39 19 84q0 48 -37 95q-20 27 -74 75q-130 -65 -130 -213z" />
    <glyph glyph-name="nine" unicode="9" 
d="M6 0l20 39q40 -19 74 -19q208 0 302 316l-2 3q2 -2 2 -6q0 -19 -63 -47q-59 -27 -93 -27q-69 0 -110 48q-38 45 -38 115q0 48 18 89q38 87 124 126q42 19 86 19q95 0 147 -63q49 -59 49 -149q0 -111 -69 -236q-63 -114 -180 -181q-75 -43 -161 -43q-47 0 -106 16z
M186 422q0 -84 54 -115q19 -11 40 -11q36 0 70 28q30 24 48 61q24 48 24 103t-22 96q-27 51 -76 51q-54 0 -94 -65q-44 -71 -44 -148z" />
    <glyph glyph-name="colon" unicode=":" horiz-adv-x="310" 
d="M102 -16q-24 0 -41 17t-17 41q0 26 16 42t42 16q58 0 58 -58q0 -25 -16.5 -41.5t-41.5 -16.5zM217 341q-24 0 -40.5 16.5t-16.5 40.5q0 58 57 58t57 -58q0 -25 -16 -41t-41 -16z" />
    <glyph glyph-name="semicolon" unicode=";" horiz-adv-x="310" 
d="M18 -124l-10 29q44 16 61 28q31 21 31 55q0 4 -17 30q-17 17 -17 30q0 24 15.5 38t39.5 14q55 0 55 -55q0 -100 -140 -161q-12 -5 -18 -8zM236 341q-24 0 -41.5 16.5t-17.5 40.5q0 26 16.5 42t42.5 16q57 0 57 -58q0 -25 -16 -41t-41 -16z" />
    <glyph glyph-name="less" unicode="&#x3c;" 
d="M127 215l346 -159v-68l-415 198v58l415 208v-67z" />
    <glyph glyph-name="equal" unicode="=" 
d="M473 190v-57h-415v57h415zM473 296v-58h-415v58h415z" />
    <glyph glyph-name="greater" unicode="&#x3e;" 
d="M508 244v-58l-416 -198v68l346 159l-346 170v67z" />
    <glyph glyph-name="question" unicode="?" horiz-adv-x="524" 
d="M236 178l-76 -26q-1 13 -4 38q0 71 62 136q11 12 85 77q52 46 76 85q17 28 17 67q0 80 -74 80q-41 0 -86 -30l-17 32q62 35 122 35h4q57 0 97 -31q44 -34 44 -90q0 -66 -70 -115q-1 -1 -96 -57q-58 -34 -86 -70q-20 -26 -20 -61q0 -33 22 -70zM156 -16q-56 0 -56 56
q0 24 16 39.5t40 15.5q25 0 40 -15t15 -40q0 -24 -15.5 -40t-39.5 -16z" />
    <glyph glyph-name="at" unicode="@" horiz-adv-x="1048" 
d="M838 -12l28 -24q-54 -68 -221 -114q-59 -16 -117 -16q-88 0 -170 26q-161 51 -230 181q-33 62 -33 136v9q0 180 142 324q103 104 233 131q42 8 85 8h17q70 0 142 -25q85 -29 145.5 -94t77.5 -150q7 -35 7 -71q0 -69 -26 -131q-52 -125 -162 -178q-53 -26 -106 -26
q-73 0 -76 74q-58 -68 -137 -68q-65 0 -101.5 42t-36.5 108q0 91 50 177q53 91 122 135q48 31 99 31q47 0 73 -17.5t49 -59.5l23 56h90l-114 -287q-13 -30 -33 -88q-4 -15 -4 -19q0 -30 32 -30q70 0 139.5 79.5t69.5 190.5v16q0 127 -97 206q-94 76 -228 76
q-154 0 -277 -129q-126 -131 -126 -285q0 -131 101 -215q71 -59 185 -80q36 -6 79 -6q154 0 267 78q24 17 39 29zM381 93q0 -71 73 -71q40 0 69 26q16 16 45 62q57 91 84 216q6 27 6 38q0 29 -18.5 48.5t-47.5 19.5q-43 0 -85 -44q-52 -55 -89 -146.5t-37 -148.5z" />
    <glyph glyph-name="A" unicode="A" horiz-adv-x="834" 
d="M538 259h-138q-36 -66 -52 -92q-30 -50 -60 -86q-81 -97 -182 -97q-60 0 -102 30q-46 34 -46 92q0 101 119 148q64 25 171 35q28 2 54 2h75q46 89 113 190q26 39 62 83l35 43q19 23 41 49l162 16q-43 -130 -59 -193q-27 -109 -27 -199q0 -117 52 -170l-48 -42
q-30 76 -30 174q0 175 82 403l-39 -4q-29 -74 -55 -192q-29 -135 -29 -244v-13q0 -123 29 -146q20 -16 57 -20l-13 -42h-157q-21 72 -21 149q0 66 6 126zM416 291h124q19 133 47 226q12 39 27 81l-2 2q-3 0 -36 -50q-14 -21 -29 -45l-28 -46q-4 -7 -83 -133q-16 -25 -20 -35
zM358 259h-38q-44 0 -96 -6q-106 -12 -164 -67q-30 -28 -30 -70q0 -41 31.5 -68.5t73.5 -27.5q74 0 139 88q40 54 84 151z" />
    <glyph glyph-name="B" unicode="B" horiz-adv-x="874" 
d="M424 132v-3q0 -55 34 -89.5t89 -34.5q63 0 98 48q31 43 31 109q0 105 -81 148q-57 31 -128 33q-43 -141 -43 -211zM551 -16q-153 0 -153 146q0 34 28 156q22 95 51 161q62 141 166 201q42 24 86 24q49 0 82 -32t33 -81q0 -131 -184 -180q-53 -14 -90 -21v-2l12 -3
q17 -5 51 -14q12 -3 14 -4q29 -8 67 -33q66 -44 66 -131q0 -72 -63 -127q-69 -60 -160 -60h-6zM678 618h-4q-63 0 -127 -92q-42 -60 -71 -151q14 -7 30 -7h4q39 0 79 17q81 34 119 103q19 34 19 65q0 65 -49 65zM406 0l-199 -16q20 186 141 491q32 81 64 145q-13 4 -44 4
q-48 0 -76 -8q-53 -15 -87 -47q-41 -38 -41 -87v-19q0 -9 10 -39l-114 -12q17 125 119 183q81 46 239 55l103 6q-70 -164 -123 -344q-49 -167 -60 -262q41 -36 68 -50z" />
    <glyph glyph-name="C" unicode="C" horiz-adv-x="622" 
d="M549 88l-13 -42q-133 -62 -264 -62q-106 0 -166 65q-68 71 -68 179q0 77 34 156q70 163 233 249q74 39 158 39q80 0 163 -30q22 -8 48 -20l-56 -136q-9 47 -42 96q-36 53 -84 53q-91 0 -160 -126q-62 -114 -62 -216q0 -137 128 -141l-72 -76q-104 37 -104 174
q0 123 61.5 235t164.5 156l4 11q-54 -4 -106 -45q-107 -84 -162 -239q-26 -73 -26 -142q0 -101 62 -158q41 -38 110 -38q90 0 219 58z" />
    <glyph glyph-name="D" unicode="D" horiz-adv-x="971" 
d="M166 418l-116 -12q8 129 148 193q125 57 357 57q221 0 321 -91q66 -60 66 -169v-5q0 -72 -32 -141q-36 -77 -89 -134q-56 -59 -128 -94q-77 -38 -153 -38q-70 0 -108 40t-38 110q0 75 48 224q13 40 42 115q19 50 38 80l56 13q-30 -25 -60 -85q-55 -110 -84 -241
q-14 -64 -14 -112q0 -112 110 -112q127 0 214 126q77 112 77 241q0 75 -29 119q-59 90 -200 112q-63 10 -144 10q-292 0 -292 -148q0 -32 10 -58zM402 0l-199 -16q5 53 27 135q20 74 54 177q20 60 60 174q24 65 52 126h94q-30 -72 -82 -238q-14 -44 -22 -74l-19 -71
q-19 -68 -27 -119q-4 -25 -6 -44q26 -23 68 -50z" />
    <glyph glyph-name="E" unicode="E" horiz-adv-x="777" 
d="M498 339h-31q-23 -74 -33 -166q-3 -26 -3 -52v-15q0 -23 62 -34q42 -8 87 -8q70 0 135 17q-29 -36 -69 -81q-33 -5 -50 -5q-97 0 -204 33q-3 24 -3 49v6q0 57 17 133q30 132 95 294q25 63 39 92q-98 22 -165 22q-90 0 -153.5 -39.5t-63.5 -104.5v-4q0 -32 11 -58
l-116 -12q9 126 133 192q109 58 277 58q38 0 97 -6q78 -8 97 -9q31 -2 60 -2q57 0 98 6q38 5 78 17l-88 -97q-29 2 -61 6l-72 9q-28 4 -58 9l-50 9q-40 -80 -88 -228h184l-48 -58q-27 11 -83 26q-13 1 -31 1zM406 0l-199 -16q1 16 5 37l9 47q8 38 46 166q35 118 80 236
q16 42 51 126h96q-128 -319 -156 -546q41 -36 68 -50z" />
    <glyph glyph-name="F" unicode="F" horiz-adv-x="700" 
d="M444 0l-50 -10q-9 46 -9 76q0 169 101 414q21 50 54 122q-98 22 -165 22q-90 0 -153.5 -39.5t-63.5 -104.5v-4q0 -32 11 -58l-116 -12q9 126 133 192q109 58 277 58q38 0 97 -6q78 -8 97 -9q31 -2 60 -2q57 0 98 6q38 5 78 17l-88 -97q-29 2 -61 6l-72 9q-28 4 -58 9
l-50 9q-37 -74 -95 -244h185l-49 -57q-27 11 -73 25q-19 2 -42 2h-29q-29 -62 -38 -206q-1 -16 -1 -30q0 -39 22 -88zM326 -70l-132 -40q4 148 72 361q32 99 100 267q16 41 32 78h96q-18 -45 -34 -91l-32 -93q-48 -139 -76 -258q-11 -43 -27 -130q-3 -26 -3 -44q0 -38 4 -50
z" />
    <glyph glyph-name="G" unicode="G" horiz-adv-x="719" 
d="M358 270l23 29q98 -8 191 -8h44q22 0 46 2q-18 -24 -44 -85q-20 -55 -62 -162q-12 -28 -22 -54q-22 -57 -30 -69q-86 -128 -234 -128q-78 0 -120.5 25t-62.5 70l105 42q-6 -14 -6 -32q0 -79 94 -79q67 0 108 55q22 31 54 114q26 71 42 118l18 56q5 16 43 95h-118
q15 -22 25 -40q7 -21 7 -46q0 -38 -17 -73q-35 -72 -111 -101q-39 -15 -81 -15q-99 0 -157 65q-55 62 -55 156q0 126 74 242q66 102 158 161q100 64 214 64q105 0 198 -50l-54 -124q-24 141 -172 141q-133 0 -222 -153q-76 -131 -76 -278q0 -66 28 -114q34 -57 96 -57
q57 0 101.5 41.5t44.5 97.5q0 63 -70 94z" />
    <glyph glyph-name="H" unicode="H" horiz-adv-x="932" 
d="M960 712q-37 0 -76 -53q-32 -43 -56 -99l-18 -41q-22 -52 -39 -113q-10 -35 -13 -52q87 11 158 125q67 107 67 197q0 36 -23 36zM330 0l-127 -16q9 75 40 177q28 86 56 173h-25q-123 0 -141 -96l-98 -10q15 77 96 107q53 19 151 19h23q26 69 78 206q13 34 25 60
q-15 4 -42 4q-71 0 -122 -25q-84 -42 -84 -113v-4q0 -32 11 -58l-115 -12q19 124 120 183q79 46 238 55l104 6l-28 -66q-11 -28 -59 -159q-15 -42 -25 -77h38q10 44 52 153q26 69 46 115l15 34h25q-13 -24 -62 -148q-30 -75 -53 -154h180q20 70 68 156q63 114 135 173
q56 46 114 46q29 0 47.5 -22t18.5 -51v-4q0 -66 -24 -118q-54 -118 -156 -170q-53 -27 -100 -30q-17 -71 -26 -171q-3 -32 -2 -54q1 -68 40 -80q22 -7 53 -9l-6 -20l-199 -10q-10 62 -10 118q0 82 41 226h-182q-37 -104 -37 -246q0 -39 22 -88l-50 -10q-9 45 -9 92
q0 87 51 252h-38q-27 -87 -44 -166q-10 -41 -23 -124q-1 -18 -1 -44z" />
    <glyph glyph-name="I" unicode="I" horiz-adv-x="545" 
d="M328 0l-128 -16q17 131 82 325q48 145 124 311q-15 4 -42 4q-70 0 -122 -25q-84 -41 -84 -113v-4q0 -32 11 -58l-116 -12q11 69 42 112q76 105 250 121q22 2 67 5l166 6q-98 -200 -142 -414q-16 -77 -16 -144q0 -45 22 -98l-50 -10q-9 45 -9 92q0 93 59 276
q51 158 100 270h-38q-97 -224 -152 -460q-11 -47 -15 -86l-4 -38q-2 -20 -5 -44z" />
    <glyph glyph-name="J" unicode="J" horiz-adv-x="545" 
d="M392 588h94q-46 -96 -88 -264q-53 -207 -74 -268q-13 -36 -44 -86q-64 -102 -178 -129q-21 -5 -44 -5q-95 0 -130 76l86 64q-2 -10 -2 -16v-9q0 -38 23 -60.5t61 -22.5q69 0 100 74q23 55 52 194q33 161 67 259q15 44 29 78zM432 0l-51 -10q-6 20 -6 54q0 167 107 442
l52 132q-30 6 -63 6h-61q-117 0 -180 -32q-72 -37 -72 -104q0 -30 11 -59l-116 -11q29 161 185 209q95 29 195 29h29q16 0 42 -2q31 -2 44.5 -2.5t25.5 -1.5q-107 -228 -148 -439q-14 -72 -14 -149q0 -36 20 -62z" />
    <glyph glyph-name="K" unicode="K" horiz-adv-x="815" 
d="M332 0l-125 -16q23 193 141 489q34 86 64 147q-13 4 -44 4q-70 0 -121 -25q-83 -42 -83 -113v-4q0 -32 10 -58l-114 -12q18 127 122 185q87 48 236 53l166 6q-76 -157 -113 -292h11q64 107 178 197q133 105 239 105q43 0 71 -25l-83 -81q-11 25 -21 33q-13 10 -38 10
q-87 0 -181 -85q-83 -76 -113 -154q21 -75 80 -197q71 -147 140 -233q90 -113 164 -113q44 0 44 44v10l105 37q-32 -112 -151 -112q-158 0 -294 194q-67 95 -101 173q-41 94 -60 161h-2q-9 0 -17 -45q-8 -41 -14 -133q-2 -32 -4 -52v0q0 -45 24 -98l-50 -10q-10 43 -10 92
q0 44 18 126q29 133 92 300q27 73 49 120h-39q-92 -217 -150 -460q-9 -35 -20 -106q-2 -26 -6 -62z" />
    <glyph glyph-name="L" unicode="L" horiz-adv-x="563" 
d="M203 144l-110 -21q29 66 68 241q5 24 16 71q27 107 93 169q72 68 176 68q77 0 115 -65l-89 -99q5 40 5 51q0 80 -69 80h-2q-36 0 -62 -25q-38 -36 -61 -130q-15 -74 -30 -147q-9 -48 -32 -141q-5 -18 -18 -52zM62 -16q-128 0 -128 70q0 27 19.5 43.5t47.5 16.5
q43 0 101 -19q49 -17 98 -33q50 57 76 172q9 57 29 171q5 41 23 114q8 20 24 46q15 4 44 11q-40 -50 -63 -134q-12 -45 -19 -82l-15 -84q-7 -41 -17 -80q-21 -85 -58 -138q50 -11 98 -11q88 0 208 37q-18 -31 -54 -94q-44 -6 -84 -6q-110 0 -206 32q-30 -16 -55.5 -24
t-68.5 -8zM-34 54q0 -26 32 -38q27 -11 66 -11q54 0 78 18q7 5 -8 11q-32 18 -100 45q-15 4 -35 4q-13 0 -21 -7q-12 -8 -12 -22z" />
    <glyph glyph-name="M" unicode="M" horiz-adv-x="1069" 
d="M300 0l-89 -10q0 107 71 310q56 161 120 296h78q3 -30 14 -72q16 -62 46 -147q40 -111 46 -215h2l30 48q-7 55 -44 170q-20 56 -50 171q-4 22 -12 67h-140q-83 0 -139 -30q-71 -37 -71 -111q0 -20 11 -53l-115 -10q16 135 149 191q53 22 125 33q28 4 129 12l73 6
q-2 -18 -2 -25q0 -38 20 -105q8 -30 19 -60l20 -58q32 -91 46 -166q115 181 277 340q36 36 71 64l74 10q-20 -35 -56 -132q-73 -199 -73 -378q0 -58 12 -83q18 -37 68 -37h10l-8 -26l-182 -10q-15 37 -15 95q0 159 49 339q15 56 33 98l-2 2q-4 4 -73 -94q-52 -72 -160 -242
q-20 -32 -46 -82q-10 -19 -28 -59l-88 -47q8 45 8 68q0 93 -31 210q-11 43 -63 204h-2l-31 -99q-16 -48 -45 -142l-12 -43q-27 -97 -27 -174q0 -15 3 -24z" />
    <glyph glyph-name="N" unicode="N" horiz-adv-x="893" 
d="M293 0l-83 -10q23 180 202 628h-50q-45 0 -72 -6q-73 -16 -110 -70q-18 -26 -18 -65q0 -20 11 -53l-115 -10q9 87 75 150q52 51 148 71q53 10 112 15l74 6q23 -114 92.5 -272.5t148.5 -257.5q1 7 4 22q3 27 -20 64q-15 21 -43 64q-59 104 -101 233q-21 65 -30 117l46 34
q0 -163 99 -355q28 -55 62 -105q47 205 111 334q103 205 260 206q79 0 106 -72l-98 -62q8 4 8 27v4q0 19 -13 32t-32 13q-102 0 -183 -140q-26 -45 -60 -140q-30 -84 -62 -223q-12 -57 -35 -170l-27 -25q-39 36 -86 104q-95 139 -162 312q-20 51 -34 94h-2q-32 -93 -89 -281
q-34 -127 -34 -213z" />
    <glyph glyph-name="O" unicode="O" horiz-adv-x="738" 
d="M270 -16q-50 0 -92 17q-87 35 -122 126q-18 46 -18 99q0 161 129 299q136 147 302 147q103 0 169 -68q62 -64 62 -172q0 -79 -39 -163q-35 -79 -93 -141q-134 -144 -290 -144h-8zM448 645l4 13q-110 -27 -189 -141q-99 -143 -99 -314q0 -74 28 -127q35 -66 101 -66
q120 0 209 163q76 139 76 275q0 47 -8 80q-27 111 -91 111q-35 0 -75 -38q-71 -67 -109 -186q-19 -60 -19 -115q0 -142 126 -142l-72 -77q-51 9 -80 67q-26 51 -26 115q0 89 39 175q44 100 97 152q41 40 88 55z" />
    <glyph glyph-name="P" unicode="P" horiz-adv-x="777" 
d="M440 0l-46 -9q-15 43 -15 86q0 103 38 232q47 159 115 244q43 54 88 82q49 31 107 31q49 0 76 -39q23 -34 23 -85q0 -90 -78 -178q-75 -84 -158 -84q-56 0 -111 40l47 74q16 -88 84 -88q52 0 84 74q27 62 27 138q0 74 -51 74q-53 0 -98 -48q-51 -55 -81 -122.5
t-52 -156.5q-23 -95 -23 -163q0 -50 24 -102zM328 0l-128 -16q7 61 50 208q10 34 20 63l21 65q14 40 45 122l40 105q18 47 30 73q-15 4 -42 4q-70 0 -122 -25q-84 -41 -84 -113v-4q0 -32 11 -58l-116 -12q21 126 121 183q81 46 238 55l104 6q-98 -226 -164 -488
q-15 -61 -21 -106q-3 -24 -3 -62z" />
    <glyph glyph-name="Q" unicode="Q" horiz-adv-x="700" 
d="M658 -140l-138 -58q-139 15 -376 120q-71 35 -214 102l154 82q19 -18 49.5 -36t79.5 -18h4q137 0 235 140q38 54 62 125.5t24 136.5q0 116 -54 166q-22 19 -56 19q-42 0 -88 -35q-63 -48 -108.5 -139t-45.5 -166q0 -94 74 -94q26 0 76 29l-68 -105q-29 -7 -58 -7
q-65 0 -101.5 41t-36.5 107q0 141 111.5 271.5t246.5 130.5q106 0 169 -69q60 -67 61 -174q0 -70 -35 -147q-34 -70 -87 -124q-130 -132 -284 -132q-98 0 -178 56l-38 -20q298 -171 620 -202z" />
    <glyph glyph-name="R" unicode="R" horiz-adv-x="854" 
d="M442 0l-44 -10q-15 39 -15 86q0 96 39 236q38 136 95 230q90 150 206 150q61 0 91 -46q18 -28 18 -62q0 -87 -107 -160q-69 -47 -166 -62q11 -26 33 -72l21 -42q48 -98 112 -201q137 -222 235 -222q18 0 33 10.5t15 28.5q0 10 -6 24l106 32q-24 -78 -88 -107
q-47 -20 -102 -20q-87 0 -162 62q-69 56 -117 139q-87 152 -174 355q-33 -107 -42 -190q-3 -27 -3 -51q0 -53 22 -108zM672 618q-69 0 -126 -88q-35 -53 -71 -149q94 0 165 37q87 46 87 131v4q0 27 -14.5 46t-40.5 19zM328 0l-125 -16q5 62 49 208q24 80 85 251
q16 45 58 147q7 18 13 30q-13 4 -44 4q-70 0 -121 -25q-83 -42 -83 -113v-4q0 -32 10 -58l-116 -12q12 67 44 112q41 59 111 88q51 21 138 32q31 4 67 6l103 6q-90 -209 -163 -488q-22 -85 -26 -168z" />
    <glyph glyph-name="S" unicode="S" horiz-adv-x="524" 
d="M334 364l12 -15q56 -70 63 -82q29 -46 29 -98q0 -39 -17 -67q-35 -57 -101 -78q-36 -11 -55 -12q-58 -28 -107 -28q-171 0 -198 156l94 72q-10 -50 -10 -64q0 -68 50 -113q28 -25 68 -25q48 0 75 40q24 35 24 85q0 42 -25 88q-12 21 -52 76l-11 15q-37 50 -54 85.5
t-17 78.5q0 39 20 87l104 74q-15 -10 -36 -53q-15 -30 -15 -68v-4q0 -45 30 -93q17 -26 63 -77l18 -20q80 -89 80 -168q0 -54 -42 -96l2 -2q86 25 86 111q0 67 -80 159l-33 38q-52 60 -66 82q-33 50 -33 97q0 57 37.5 92t94.5 35q58 0 122 -37l-44 -105q-7 46 -22 67
q-21 27 -62 27q-37 0 -60.5 -25.5t-23.5 -62.5q0 -58 62 -133z" />
    <glyph glyph-name="T" unicode="T" horiz-adv-x="660" 
d="M442 0l-52 -7q-11 50 -11 75q0 109 49 268q21 68 46 132l46 122q-132 8 -242 8q-172 0 -172 -102q0 -12 10 -52l-88 -32q3 38 21 80q40 93 147 140q54 24 136 24q53 0 159.5 -4t159.5 -4h42q73 0 163 10l-62 -88q-33 6 -117 14q-43 2 -128 6q-111 -263 -129 -429
q-4 -31 -4 -59q0 -51 26 -102zM326 0l-128 -16q4 84 44 222t114 307l27 63h94q-84 -222 -123 -393q-12 -54 -24 -131q-4 -26 -4 -52z" />
    <glyph glyph-name="U" unicode="U" horiz-adv-x="874" 
d="M172 424l-114 -10v4q0 103 106 168q114 70 324 70h46q-27 -27 -60 -78q-80 -123 -119 -257q-21 -73 -21 -140q0 -48 16 -83q22 -46 64 -46t85 41q30 29 64 89q51 91 103 266q22 72 34 122q7 28 12 50l7 36h184q-64 -141 -113 -284q-24 -70 -44 -158q-19 -83 -19 -138
q0 -35 17 -46q11 -6 50 -10l-6 -20l-198 -5q12 109 84 323q62 184 122 317h-61q-10 -49 -33 -120q-30 -96 -59 -193q-37 -112 -79 -184q-51 -87 -108 -125q-42 -29 -94 -29q-91 0 -125 84q-19 44 -19 94q0 84 42 193q56 145 184 273h-54q-99 0 -159 -35q-69 -41 -69 -116
q0 -20 10 -53z" />
    <glyph glyph-name="V" unicode="V" horiz-adv-x="834" 
d="M402 0l-44 -16q36 135 36 256q0 125 -48 225q-53 111 -138 111q-36 0 -64.5 -25t-41.5 -61l-19 27q11 36 46 74q32 34 69 54q27 15 56 15h10q87 0 151 -111q58 -102 58 -225q0 -153 -71 -324zM482 0l-36 -16q25 53 46 132q18 68 18 177q0 69 -8 117q-23 136 -114 240
l75 6q36 -83 59 -213q10 -57 10 -115q0 -124 -29 -233q-9 -32 -19 -59l2 -2q16 18 47 53l27 31q120 135 177 256q35 74 35 128q0 93 -64 129l122 55q38 -62 38 -124q0 -127 -146 -307q-69 -85 -126 -141q-41 -40 -114 -114z" />
    <glyph glyph-name="W" unicode="W" horiz-adv-x="1088" 
d="M381 0l-37 -16q45 152 45 288q0 90 -26 163q-20 56 -54 94q-42 47 -94 47q-68 0 -109 -92l-19 26q55 150 170 150q99 0 157 -103q53 -95 53 -227q0 -138 -57 -266l-15 -34q-7 -16 -14 -30zM465 0l-34 -16q73 198 73 323q0 202 -108 349l50 16q84 -156 84 -346
q0 -130 -48 -272l2 -2l63 77q12 14 13 15q54 71 78 112q34 59 51 125q-40 137 -157 227l88 64q35 -31 60 -64q102 -132 102 -344q0 -85 -13 -150q-14 -68 -29 -114l-36 -16q5 27 14 80q7 46 6 120q-1 70 -14 130q-44 -79 -180 -238q-33 -38 -65 -76zM809 0l-25 -16
q33 118 33 262q0 199 -74 324q-27 45 -63 86l47 16q41 -55 80 -163q37 -101 37 -247q0 -16 -8 -122q-2 -27 -6 -57l2 -2q4 -2 60 83l40 62q18 28 22 35q56 106 56 209q0 100 -54 154l107 72q37 -64 37 -141q0 -84 -30 -157q-26 -63 -83 -138l-98 -124q-54 -73 -80 -136z" />
    <glyph glyph-name="X" unicode="X" horiz-adv-x="912" 
d="M475 278v18h-2l-5 -8q-5 -9 -11 -21l-14 -25q-4 -8 -12 -22q-71 -120 -195 -196q-65 -40 -142 -40q-132 0 -144 147l140 82q-36 -49 -36 -90q0 -31 22.5 -51t53.5 -20q63 0 153 63q76 53 139 136q71 94 63 173q-12 100 -72 136q-27 16 -62 16h-4q-33 0 -73 -13l96 109
q94 -6 148 -71q62 -74 62 -210v-109q0 -256 137 -256q60 0 119 59l-2 2q0 -5 -38.5 -20.5t-45.5 -15.5q-79 0 -113 82q-25 58 -25 149q0 196 94 326q83 115 189 115q80 0 111 -74l-103 -71v18q0 54 -51 54q-36 0 -74 -26q-79 -54 -118 -190q-21 -72 -21 -152
q0 -214 113 -214q70 0 106 72l20 -9q-15 -48 -65 -93q-60 -54 -145 -54q-105 0 -152 90q-41 78 -41 204z" />
    <glyph glyph-name="Y" unicode="Y" horiz-adv-x="719" 
d="M572 656h163q-35 -127 -109 -380q-44 -143 -91 -253q-97 -223 -314 -223q-137 0 -197 72l95 60q9 -46 33 -74q28 -33 96 -33q99 0 161 100q49 80 97 269q17 75 58 224q36 110 67 221h-39q-40 -152 -43 -162q-25 -92 -51 -159q-52 -137 -123 -200q-37 -33 -80 -33
q-74 0 -83 139q-1 13 -3 49l-4 78l-9 156q-1 23 -8 67q-3 29 -24 39q-15 7 -48 7l10 27l158 9q11 -55 15 -134q3 -67 7 -134q3 -55 3 -110v-10q0 -84 35 -84q54 0 110 104q38 70 78 208q28 99 40 160z" />
    <glyph glyph-name="Z" unicode="Z" horiz-adv-x="602" 
d="M560 134l-62 -129q-51 -21 -110 -21q-45 0 -104 14l-102 26q-53 -40 -126 -40q-50 0 -86 16q-49 21 -49 64q0 37 34 57q29 16 69 16q73 0 142 -21q24 -8 56 -16q22 51 70 151q4 8 28 49q69 119 145 206q22 25 54 54h-49q-169 -185 -246 -372l-105 -30q27 89 122 216
q81 108 167 190l-82 8q-42 4 -78 4q-64 0 -94 -8q-38 -10 -65 -23l79 117l35 7q15 3 27 3q31 0 77 -8q73 -12 76 -12l69 -9q27 -4 63 -4q42 0 79 17l-47 -96q-84 -80 -209 -274q-23 -36 -49 -94q-22 -49 -43 -98q60 -20 135 -20q72 0 149 42q17 9 30 18zM-37 52
q0 -23 33 -38q29 -14 64 -14q58 0 98 35q-45 18 -84 35q-34 15 -73 15q-14 0 -26 -9.5t-12 -23.5z" />
    <glyph glyph-name="bracketleft" unicode="[" horiz-adv-x="349" 
d="M106 10l76 -118l-18 -17l-146 155l224 689l200 47l8 -26l-124 -54z" />
    <glyph glyph-name="backslash" unicode="\" horiz-adv-x="465" 
d="M435 -119l-81 17q-5 27 -38 166l-92 384q-24 98 -45 168q-6 18 -17 56l86 -16q10 -81 54 -269l68 -289q25 -105 65 -217z" />
    <glyph glyph-name="bracketright" unicode="]" horiz-adv-x="349" 
d="M344 610l-223 -688l-201 -47l-9 27l125 52l220 677l-77 117l19 18z" />
    <glyph glyph-name="asciicircum" unicode="^" 
d="M309 708l-125 -275h-58l160 333h46l170 -333h-58z" />
    <glyph glyph-name="underscore" unicode="_" horiz-adv-x="524" 
d="M524 -79v-52h-524v52h524z" />
    <glyph glyph-name="grave" unicode="`" horiz-adv-x="278" 
d="M196 723l93 -125l-19 -22l-128 67z" />
    <glyph glyph-name="a" unicode="a" horiz-adv-x="545" 
d="M658 280l-15 -46q-77 -109 -129 -159q-95 -91 -178 -91q-25 0 -42 13q-20 15 -20 39q0 22 8 47l68 210h-11q-47 -128 -99 -197q-84 -112 -180 -112q-72 0 -72 92q0 121 112 250q52 60 104.5 95t98.5 35q65 0 65 -62q0 -16 -2 -22h9l25 76l110 8l-110 -344
q-10 -31 -10 -38q0 -13 8 -22q8 -14 22 -14q27 0 80 50q49 44 114 131q14 21 44 61zM133 47h4q24 0 59 37q24 25 53 70q73 111 73 170q0 90 -64 90q-65 0 -121 -130q-44 -103 -44 -178q0 -59 40 -59z" />
    <glyph glyph-name="b" unicode="b" horiz-adv-x="524" 
d="M641 284l-15 -46l-27 -36q-97 -126 -187 -177q-45 -25 -96 -25q-37 0 -72 22q-68 -38 -128 -38q-41 0 -67 17q-31 20 -31 59q0 28 21 90q15 46 31 92l57 185q23 67 63 204q6 25 6 63q0 26 -20 34q-9 3 -43 6l7 22l194 10l-152 -460h8q31 61 80 105.5t122 44.5
q94 0 94 -98q0 -82 -65 -173q-54 -76 -135 -134q32 -9 54 -9q83 0 173 88q43 42 128 154zM184 192q0 -95 79 -130q49 42 77 114q26 67 26 136q0 81 -44 81q-50 0 -95 -67q-43 -63 -43 -128v-6zM167 228h-7l-28 -84q-13 -39 -13 -66q0 -58 65 -58q4 0 21.5 6t20.5 9
q-62 56 -62 149q0 18 3 44z" />
    <glyph glyph-name="c" unicode="c" horiz-adv-x="388" 
d="M524 280l-16 -46q-101 -122 -173 -174q-106 -76 -227 -76q-122 0 -122 102q0 49 35 120q29 57 68 106q115 144 241 144q30 0 86 -14l-44 -92q-7 80 -79 80q-56 0 -109 -71q-36 -47 -61 -111q-27 -70 -27 -124q0 -82 90 -82q70 0 148 51q75 48 190 187z" />
    <glyph glyph-name="d" unicode="d" horiz-adv-x="545" 
d="M282 86l69 211h-12q-23 -92 -93 -189q-41 -57 -82 -88q-47 -36 -100 -36q-76 0 -76 90q0 115 102 246q47 60 102 98t117 38q59 0 59 -60v-10q0 -7 -2 -11h11l45 140q15 44 29 88q16 55 16 91q0 26 -20 34q-9 3 -43 6l8 22l193 10l-212 -650q-9 -28 -9 -50q0 -24 30 -24
q49 0 137 98q9 10 109 140l-17 -46q-64 -88 -96 -125q-58 -65 -120 -100q-44 -25 -95 -25q-22 0 -40 14t-18 35q0 29 8 53zM98 110q0 -63 35 -63q25 0 62 38q27 28 56 71q73 107 73 176q0 34 -17 58t-50 24q-50 0 -94 -74q-35 -61 -55 -148q-10 -44 -10 -82z" />
    <glyph glyph-name="e" unicode="e" horiz-adv-x="388" 
d="M520 280l-16 -46q-75 -109 -172 -176q-47 -33 -109 -54q-58 -20 -125 -20q-114 0 -114 96q0 58 34 129q29 61 73 113q113 134 231 134q59 0 59 -50q0 -67 -85 -153q-90 -91 -186 -91h-12q-4 -24 -4 -40q0 -85 94 -85q110 0 234 121q39 37 98 122zM110 215q26 -10 50 -10
h4q24 0 45 13q73 45 73 159q0 47 -28 47q-42 0 -91 -89q-33 -59 -53 -120z" />
    <glyph glyph-name="f" unicode="f" horiz-adv-x="272" 
d="M276 410h-44l-124 -380q-43 -133 -88 -193q-70 -94 -178 -94q-36 0 -54.5 5.5t-49.5 23.5l66 82q6 -42 15 -57q15 -23 51 -23q45 0 81 85q19 44 47 132l134 419h-22q-50 0 -92 -12l36 42h90l10 33q52 172 116 236q57 57 146 57q39 0 59 -5.5t51 -24.5l-65 -82
q-8 45 -18 59q-15 21 -55 21q-39 0 -67 -54q-18 -34 -34 -88l-26 -90l-19 -62h178l-32 -36q-39 6 -112 6z" />
    <glyph glyph-name="g" unicode="g" horiz-adv-x="545" 
d="M664 282l-15 -46q-30 -46 -55.5 -78.5t-67.5 -72.5q-75 -73 -162 -99q-30 -117 -109.5 -180t-200.5 -63q-95 0 -153 30q-22 12 -36 31q-17 19 -17 46q0 86 164 155q-19 38 -19 71q0 106 91 225q72 93 156 135q41 20 76 20q59 0 59 -58q0 -4 -1.5 -13t-1.5 -13h9l21 74
l115 10q-39 -90 -69 -188l-21 -68q-9 -28 -23 -84q-15 -43 -25 -83q72 7 161 94q34 34 100 121q14 18 24 34zM102 108q0 -21 8 -39q11 -22 30 -22q40 0 94 75q94 128 94 212q0 32 -17.5 56t-48.5 24q-37 0 -69 -39q-24 -29 -47 -82q-44 -102 -44 -185zM280 45l76 248h-13
q-47 -132 -93 -199q-76 -110 -178 -110q-23 0 -46 13q-84 -62 -84 -125q0 -52 40 -82q36 -26 90 -26q102 0 164 144q8 21 44 137z" />
    <glyph glyph-name="h" unicode="h" 
d="M148 0l-143 -16l151 466q-65 23 -90 71l72 51q0 -39 33 -74q36 114 95 180q77 88 180 88t103 -84q0 -81 -103 -158q-39 -29 -94 -51q-47 -18 -92 -23l-144 -440h13q59 171 117 273q100 173 221 173q24 0 42.5 -16t18.5 -40q0 -37 -18 -80l-68 -212q-7 -22 -7 -42
q0 -24 24 -24h2q26 0 67 35q59 51 132 145q14 20 44 58l-16 -46q-108 -162 -218 -224q-46 -26 -93 -26q-19 0 -35 14t-16 32q0 2 10 62l74 230q8 25 8 44q0 27 -26 27q-48 0 -106 -84q-72 -104 -120 -252q-12 -37 -18 -57zM293 564l-29 -88h14q72 0 126 66q50 61 50 130
q0 68 -50 68q-53 0 -111 -176z" />
    <glyph glyph-name="i" unicode="i" horiz-adv-x="291" 
d="M402 280l-14 -46l-60 -79q-70 -92 -150 -143q-44 -28 -95 -28q-63 0 -63 52q0 18 30 110l34 104q30 92 30 141q0 33 -54 33l6 22l194 10q-11 -23 -39 -101q-2 -6 -14 -43l-63 -196q-13 -40 -13 -52q0 -22 27 -22q58 0 140 95q39 45 104 143zM272 612q-27 0 -44 16.5
t-17 43.5t17 44t44 17q26 0 43 -17.5t17 -43.5t-17 -43t-43 -17z" />
    <glyph glyph-name="j" unicode="j" horiz-adv-x="272" 
d="M207 312l-61 -196q-2 -6 -20 -61l-22 -64q-83 -248 -266 -248q-50 0 -100 29l55 88q2 -36 18 -61q19 -31 51 -31q41 0 68 38q14 20 35 74q18 46 30 86l89 284q30 96 30 141q0 33 -54 33l6 22l194 10q-11 -23 -39 -101q-5 -15 -14 -43zM272 612q-27 0 -44 16.5t-17 43.5
t17 44t44 17q26 0 43 -17.5t17 -43.5t-17 -43t-43 -17z" />
    <glyph glyph-name="k" unicode="k" horiz-adv-x="545" 
d="M250 246h30q61 0 110 49q26 27 26 59v4q0 14 -9 24.5t-23 10.5q-35 0 -79 -58q-26 -35 -55 -89zM144 0l-146 -16q2 8 6 21l10 31q11 31 32 94l125 385q45 139 45 179q0 25 -21 34q-9 3 -43 6l8 22l194 10l-246 -756h17q54 190 151 335q74 111 153 111q29 0 50 -21t21 -50
q0 -60 -50 -99q-34 -27 -105 -50q-1 -2 -6 -2q-9 0 -6 -29q5 -44 26 -94q28 -64 63 -64q60 0 144 93q39 42 88 110q11 16 20 28l-16 -46l-56 -74q-71 -94 -152 -146q-44 -28 -84 -28q-62 0 -96 95q-14 39 -20 79l-10 66h-2q-13 0 -38 -64q-4 -8 -34 -96z" />
    <glyph glyph-name="l" unicode="l" horiz-adv-x="291" 
d="M406 280l-15 -46q-123 -167 -210 -222q-44 -28 -95 -28q-62 0 -62 52q0 23 14 66l134 413q45 139 45 179q0 26 -20 34q-9 3 -43 6l6 22l194 10l-210 -650q-10 -31 -10 -48q0 -11 8.5 -18.5t19.5 -7.5q46 0 105 59q47 47 91 111q28 42 48 68z" />
    <glyph glyph-name="m" unicode="m" horiz-adv-x="874" 
d="M150 0l-144 -16q9 20 56 162l34 104q31 95 31 141q0 33 -55 33l7 22l193 10q-22 -48 -53 -144l-98 -302h11q48 137 72 190q47 104 108 172q75 84 162 84q23 0 39.5 -12t16.5 -34q0 -33 -8 -58l-110 -342h10q39 134 120 276q40 71 93 115q64 55 133 55q54 0 54 -48
q0 -24 -11 -58l-76 -234q-8 -25 -8 -48q0 -26 19 -26q45 0 108 63q44 44 93 113l26 36q11 16 18 26l-16 -46q-106 -161 -213 -224q-45 -26 -92 -26q-21 0 -37.5 13t-16.5 33q0 27 10 58l72 226q14 44 14 58q0 26 -26 26q-49 0 -104 -86q-41 -63 -80 -153q-23 -54 -48 -120
q-9 -24 -14 -39l-143 -16q5 10 19 50q12 37 36 112l56 168q12 36 12 61q0 23 -22 23q-39 0 -83 -51q-27 -31 -50 -74q-43 -78 -65 -133q-34 -86 -50 -140z" />
    <glyph glyph-name="n" unicode="n" 
d="M146 0l-143 -16q17 36 57 162l33 104q31 98 31 141q0 33 -54 33l6 22l194 10q-17 -34 -54 -144l-100 -302h13q9 26 27 79q36 103 88 189q66 111 137 155q37 23 82 23q65 0 65 -48q0 -27 -10 -58l-76 -234q-9 -28 -9 -48q0 -26 19 -26q54 0 139 97q34 39 63 79l44 62
l-16 -46q-99 -157 -215 -224q-45 -26 -92 -26q-21 0 -36 13t-15 33q0 26 10 58l70 226q14 45 14 58q0 26 -25 26q-41 0 -88 -60q-37 -48 -86 -156l-21 -45q-20 -44 -32 -80z" />
    <glyph glyph-name="o" unicode="o" horiz-adv-x="486" 
d="M612 284l-16 -46q-82 -107 -140 -156q-98 -82 -188 -82q-32 0 -59 16l-52 -21q-30 -11 -63 -11q-102 0 -102 103q0 111 112 235q121 134 242 134q104 0 104 -100q0 -78 -78 -187q-49 -68 -92 -100q-22 -17 -22 -24q0 -8 31 -8q54 0 105 30q87 51 156 140l33 42
q15 19 29 35zM167 173q0 -89 65 -121q32 32 57 83q52 108 52 206q0 73 -43 73q-35 0 -73 -55q-32 -47 -47 -103q-11 -40 -11 -77v-6zM270 422l4 9q-31 -10 -64 -39q-67 -60 -98 -158q-16 -51 -16 -100q0 -40 14 -70q18 -38 54 -38q8 0 6 15q-3 14 -9 35l-14 42q-7 22 -7 38
q0 58 23 120.5t61 105.5q24 26 46 40z" />
    <glyph glyph-name="p" unicode="p" horiz-adv-x="545" 
d="M76 -244l-155 -13q10 26 18 51l17 48l15 42q5 14 13 39l106 327q29 89 29 141q0 33 -53 33l6 22l193 10q-6 -12 -16 -37q-17 -41 -25 -70q0 -2 -12 -37l-178 -546h22q63 239 124 402q49 131 107 202q22 27 43 46q43 40 96 40q86 0 86 -107q0 -80 -53 -180
q-47 -87 -122 -147q-48 -38 -97 -38t-74 34l68 56v-14q0 -40 42 -40q34 0 62 44q23 36 36 84q17 61 26 137q2 21 2 37q0 55 -30 55q-42 0 -96 -88q-40 -66 -82 -179l-35 -96q-56 -156 -83 -258z" />
    <glyph glyph-name="q" unicode="q" horiz-adv-x="524" 
d="M222 -125l136 418h-15q-28 -95 -94 -187q-87 -122 -181 -122q-76 0 -76 92q0 93 69 195q64 95 150 150q55 35 103 35q58 0 58 -66v-20h13l25 80l104 6l-228 -700l-111 -13l11 28q15 38 36 104zM102 114q0 -67 34 -67q47 0 119.5 106t72.5 179q0 34 -16 56q-19 26 -51 26
q-65 0 -117 -123q-23 -54 -32 -97q-10 -46 -10 -74v-6z" />
    <glyph glyph-name="r" unicode="r" horiz-adv-x="427" 
d="M140 0l-144 -16q4 9 10 25l12 35l33 102l35 104q30 89 30 141q0 33 -54 33l6 22l194 10q-15 -30 -26 -63l-27 -81l-99 -302h12q22 71 66 172q51 117 109 186q74 88 151 88q16 0 28 -4l-40 -122q-39 36 -70 36q-40 0 -83 -52q-60 -73 -125 -259q-12 -35 -18 -55z" />
    <glyph glyph-name="s" unicode="s" horiz-adv-x="427" 
d="M547 282l-15 -46l-66 -74q-39 -42 -71 -70q-62 -53 -122 -74q-24 -9 -51 -15q-38 -19 -74 -19q-71 0 -116 39q-48 41 -48 109q0 51 30 93t78 59l96 -46l2 2q-3 0 -18.5 43.5t-15.5 60.5q0 51 34.5 81.5t85.5 30.5q87 0 114 -77l-83 -47q9 24 9 43q0 22 -10 39
q-11 21 -32 21q-16 0 -27 -13.5t-11 -30.5q0 -38 44 -123q46 -89 46 -126q0 -48 -27 -78l2 -2q2 -2 6 -2q15 0 63 37q90 70 154 155q12 16 23 30zM62 108q0 -42 23 -71q25 -32 65 -32q38 0 63 29.5t25 67.5q0 29 -17 72q-13 31 -27 54q-57 0 -93 -31q-39 -33 -39 -89z" />
    <glyph glyph-name="t" unicode="t" horiz-adv-x="310" 
d="M440 284l-16 -46l-62 -86q-122 -168 -264 -168q-35 0 -54.5 24t-19.5 60q0 42 20 100l83 242h-13q-34 0 -53 -6q-7 -2 -17 -6l24 42h69l43 124l104 28l-46 -152h92l-26 -36q-32 6 -64 6h-14l-78 -250q-14 -45 -14 -62q0 -46 46 -46q68 0 151 88q40 43 109 144z" />
    <glyph glyph-name="u" unicode="u" 
d="M340 134l100 301h-12q-159 -451 -338 -451q-64 0 -64 62q0 26 21 88l39 116q30 89 30 141q0 33 -54 33l6 22l194 10q-15 -30 -26 -63l-88 -262q-11 -33 -11 -53q0 -12 8 -21.5t19 -9.5q43 0 89 59q31 39 65 111q50 106 72 172q6 19 20 57l143 10q-7 -24 -25 -73l-15 -40
q-2 -5 -11 -31l-62 -181q-10 -29 -10 -53q0 -31 26 -31q56 0 138 97q34 47 104 140l-16 -46q-6 -16 -24 -40l-30 -38q-72 -97 -154 -148q-46 -28 -91 -28q-63 0 -63 62q0 28 20 88z" />
    <glyph glyph-name="v" unicode="v" horiz-adv-x="524" 
d="M641 284l-15 -46q-73 -110 -158 -156q-34 -18 -70 -18t-68 23q-96 -103 -186 -103q-56 0 -92 33t-36 89q0 54 61 149q33 53 40 67q21 41 21 74q0 20 -18 25q-8 3 -34 3l6 22l199 10q-57 -69 -110 -159q-60 -104 -60 -185q0 -31 18 -55q19 -27 49 -27q57 0 126 72
q-32 53 -32 118q0 59 25 118q27 64 71 98q26 20 54 20q56 0 56 -77q0 -66 -48 -149q-37 -63 -94 -128q22 -18 52 -18q51 0 110 46q37 30 88 93q21 26 45 61zM308 217q0 -64 22 -96q37 43 60.5 102.5t23.5 114.5q0 24 -5 37t-24 13q-32 0 -56 -61q-21 -54 -21 -101v-9z" />
    <glyph glyph-name="w" unicode="w" horiz-adv-x="719" 
d="M834 284l-17 -46q-12 -34 -63 -82q-96 -92 -164 -92q-38 0 -68 23q-80 -103 -152 -103q-45 0 -72 37q-24 33 -24 79h-2q-2 0 -30 -36q-13 -17 -36 -42q-50 -38 -94 -38q-49 0 -74 38q-22 33 -22 84q0 50 50 127q41 62 62 111q12 28 12 52q0 20 -18 25q-8 3 -35 3l6 22
l200 10q-171 -205 -171 -344q0 -24 11 -45q13 -25 35 -25q26 0 58 34q26 28 42 62q0 14 5 40t5 40q27 115 110 230l94 8q-21 -31 -36 -60q-78 -148 -78 -265q0 -89 48 -89q17 0 45.5 30t44.5 30q-32 53 -32 118q0 61 25 120q27 64 73 97q26 19 52 19q56 0 56 -77
q0 -59 -48 -149q-27 -51 -71 -102q-12 -14 -23 -26q22 -18 52 -18q66 0 140 74q38 38 104 126zM500 217q0 -61 22 -96q31 37 57.5 97t26.5 120q0 26 -3 34q-6 16 -27 16q-34 0 -57 -66q-19 -53 -19 -105z" />
    <glyph glyph-name="x" unicode="x" horiz-adv-x="622" 
d="M738 280l-15 -46q-59 -81 -153 -155q-120 -95 -208 -95q-92 0 -104 128q-3 33 -3 59h-2q-3 0 -19 -28q-7 -13 -20 -35q-60 -89 -113 -113q-24 -11 -53 -11q-31 0 -54 32l70 68v-10q0 -32 30 -32q41 0 95 71q36 48 66 104v92q0 33 -1 37q-3 26 -18 26h-4q-21 0 -69 -50
q-32 -33 -65 -78l12 36q14 42 73 105q68 71 113 71q53 0 55 -68v-43v-61h3q2 0 34 45q14 21 44 59q64 68 121 68q30 0 51 -25l-46 -65q-9 24 -43 22q-65 -4 -112 -74q-25 -36 -51 -68v-40v-14q-1 -10 -1 -16v-10q0 -69 21 -102q14 -22 44 -22q42 0 90 26q55 30 91 61
q76 66 141 151z" />
    <glyph glyph-name="y" unicode="y" 
d="M400 -12l-10 -32q-67 -213 -290 -213q-71 0 -120 21q-67 29 -67 90q0 63 75 116q35 25 134 65q-10 21 -12 79l-8 198q-3 80 -19 98q-9 10 -29 13q-17 0 -34 1l6 22l168 10l9 -335q2 -69 20 -69q20 0 43 31q36 48 71 146q15 43 31 91l25 78q11 34 15 48l147 10l-139 -421
q64 5 128 59q55 47 130 155q13 19 26 35l-16 -46q-102 -149 -196 -213q-40 -28 -88 -37zM280 -60l158 495h-14q-20 -69 -66 -205l-20 -52q-26 -67 -59 -117q-51 -77 -98 -77q-29 0 -50 30q-124 -56 -124 -148q0 -46 30.5 -74t76.5 -28q110 0 166 176z" />
    <glyph glyph-name="z" unicode="z" horiz-adv-x="524" 
d="M454 94l-42 -94h-364l26 79q32 35 99 103q45 45 139 134q75 68 108 68l-2 2q-1 -1 -36 -7l-29 -5q-42 -8 -67 -8q-26 0 -90 11q-20 -34 -100 -137l18 44q65 89 89 172q68 -16 90 -16q94 0 211 16l-20 -56q-2 -3 -45 -39q-22 -18 -65 -54l-48 -42q-41 -36 -117 -113
q-26 -30 -41 -73h160q76 0 126 15z" />
    <glyph glyph-name="braceleft" unicode="{" 
d="M474 -188v-27q-83 2 -152 54t-69 120v4q0 28 15 93q14 61 14 106q0 94 -115 134v26q50 15 81 47q34 36 34 85q0 33 -14 100q-15 72 -15 100v4q0 68 69 120q66 50 152 54v-27q-51 -11 -81.5 -50.5t-30.5 -92.5q0 -20 3 -44l5 -49q7 -72 7 -79q0 -117 -163 -182
q21 -8 60 -28q103 -61 103 -154q0 -6 -7 -82l-5 -50q-3 -24 -3 -40q0 -52 31 -91.5t81 -50.5z" />
    <glyph glyph-name="bar" unicode="|" horiz-adv-x="349" 
d="M200 786v-1048h-50v1048h50z" />
    <glyph glyph-name="braceright" unicode="}" 
d="M121 -215v27q51 11 82 50.5t31 91.5q0 29 -8 86t-8 86q0 69 52 116q33 30 111 66q-163 60 -163 182q0 4 8 86.5t8 85.5q-4 118 -113 143v27q86 -5 151 -54q70 -52 70 -124q0 -23 -14 -99q-16 -87 -16 -101q0 -47 36 -84q31 -33 80 -48v-26q-53 -19 -82 -50
q-34 -37 -34 -84q0 -12 7 -49q3 -18 11 -49q12 -66 12 -101q0 -69 -70 -124q-66 -52 -151 -54z" />
    <glyph glyph-name="asciitilde" unicode="~" 
d="M36 144h-42q0 33 17 70q41 89 122 89q50 0 128 -43l65 -36q65 -36 101 -36q75 0 88 96h42q0 -63 -39 -111t-100 -48q-52 0 -129 44l-63 36q-61 35 -102 35q-77 0 -88 -96z" />
    <glyph glyph-name="quotesinglbase" unicode="&#x201a;" horiz-adv-x="234" 
d="M-26 -124l-11 29q93 32 93 83q0 12 -30 42q-6 9 -6 18q0 23 16.5 37.5t39.5 14.5q25 0 40 -15t15 -40q0 -70 -71 -126q-11 -6 -34.5 -16t-35 -16t-16.5 -11z" />
    <glyph glyph-name="florin" unicode="&#x192;" 
d="M346 322h-20l-50 -154q-95 -294 -273 -294q-51 0 -103 24l56 65q24 -63 70 -63q39 0 67 42q18 29 40 95l93 285h-21q-40 0 -59 -6l19 61q34 -2 63 -2h14q39 111 95 183q77 98 180 98q48 0 93 -30l-53 -63q-19 61 -73 61q-58 0 -87 -86q-7 -19 -20 -58l-35 -105h58
q20 0 38 2l-20 -61q-34 6 -72 6z" />
    <glyph glyph-name="quotedblbase" unicode="&#x201e;" horiz-adv-x="368" 
d="M-76 -124l-9 29q92 31 92 83q0 12 -16.5 28.5t-16.5 31.5q0 23 14.5 37.5t37.5 14.5q57 0 57 -55q0 -37 -17 -67q-20 -36 -62 -62zM74 -124l-8 29q92 31 92 83q0 7 -7 15q-11 12 -11 13q-17 17 -17 32q0 24 15 38t39 14q25 0 41 -15t16 -40q0 -71 -72 -126
q-15 -11 -43 -24q-22 -9 -45 -19z" />
    <glyph glyph-name="ellipsis" unicode="&#x2026;" horiz-adv-x="1048" 
d="M174 -16q-23 0 -39 16t-16 39q0 25 15 40t40 15q56 0 56 -55t-56 -55zM524 -16q-23 0 -38.5 16t-15.5 39q0 24 15 39.5t39 15.5q56 0 56 -55q0 -24 -14 -39.5t-42 -15.5zM874 -16q-23 0 -38.5 16t-15.5 39t15.5 39t38.5 16q56 0 56 -55t-56 -55z" />
    <glyph glyph-name="dagger" unicode="&#x2020;" 
d="M379 396l-157 -498l-94 -17l172 515h-35q-64 0 -97 -3l24 74q46 -8 80 -8h48l39 124q10 34 16 62l92 11q-2 -5 -26 -71q-11 -29 -31 -87q-3 -13 -12 -39h67q33 0 69 4l-24 -74q-36 7 -100 7h-31z" />
    <glyph glyph-name="daggerdbl" unicode="&#x2021;" 
d="M282 90l-60 -192l-94 -17l68 209h-63q-11 0 -33.5 -1.5t-33.5 -1.5l24 73q48 -6 81 -6h47l82 242h-88q-24 -3 -44 -3l24 74q9 -1 40 -5q25 -3 40 -3h48l39 124q10 34 16 62l92 11q-2 -5 -26 -71q-11 -29 -31 -87q-3 -13 -12 -39h67q33 0 69 4l-24 -74q-36 7 -100 7h-31
l-77 -242h112q10 0 18 2l-24 -73q-41 7 -100 7h-26z" />
    <glyph glyph-name="circumflex" unicode="&#x2c6;" horiz-adv-x="278" 
d="M326 576l-63 65l-129 -65l-15 26l170 121l61 -129z" />
    <glyph glyph-name="perthousand" unicode="&#x2030;" horiz-adv-x="1166" 
d="M268 1l-116 -17q21 52 78 140q74 114 186 244l70 80q52 59 132 142l-2 2l2 -2q0 -10 -38 -27q-16 -8 -32 -15l-29 -12q-103 -42 -121 -42q-8 0 -12 1l-14 3q-4 -78 -61 -152q-62 -82 -144 -82q-58 0 -89.5 35.5t-31.5 93.5q0 82 64 161q60 74 132 74h6q64 0 86 -32
q10 -19 36 -50q11 -10 36 -10h4q55 0 139 42q36 18 69 38l30 18q13 8 24 16l21 -17q-53 -51 -127 -135q-145 -164 -231 -325q-46 -86 -67 -172zM108 379q0 -33 14 -61q17 -34 47 -34q46 0 87 64q53 81 53 167q0 35 -13 60q-16 33 -48 33q-48 0 -94 -74.5t-46 -148.5v-6z
M538 0q-53 0 -83.5 36.5t-30.5 89.5q0 90 66 169q63 75 138 75q51 0 84 -37t34 -89q2 -89 -64.5 -166.5t-136.5 -77.5h-7zM486 110q0 -33 14 -59q17 -31 47 -31q23 0 48 22q40 35 65 100q22 59 22 117q0 90 -58 90q-49 0 -92 -77q-46 -81 -46 -156v-6zM905 0
q-52 0 -83.5 36.5t-31.5 89.5q0 89 67 169q62 75 139 75q52 0 84 -36.5t32 -89.5q0 -87 -63 -165.5t-137 -78.5h-7zM854 110q0 -35 12 -59q16 -31 48 -31q29 0 63 36q28 31 49 82q24 62 24 121q0 90 -59 90q-46 0 -91.5 -77.5t-45.5 -155.5v-6z" />
    <glyph glyph-name="Scaron" unicode="&#x160;" horiz-adv-x="524" 
d="M334 364l12 -15q56 -70 63 -82q29 -46 29 -98q0 -39 -17 -67q-35 -57 -101 -78q-36 -11 -55 -12q-58 -28 -107 -28q-171 0 -198 156l94 72q-10 -50 -10 -64q0 -68 50 -113q28 -25 68 -25q48 0 75 40q24 35 24 85q0 42 -25 88q-12 21 -52 76l-11 15q-37 50 -54 85.5
t-17 78.5q0 39 20 87l104 74q-15 -10 -36 -53q-15 -30 -15 -68v-4q0 -45 30 -93q17 -26 63 -77l18 -20q80 -89 80 -168q0 -54 -42 -96l2 -2q86 25 86 111q0 67 -80 159l-33 38q-52 60 -66 82q-33 50 -33 97q0 57 37.5 92t94.5 35q58 0 122 -37l-44 -105q-7 46 -22 67
q-21 27 -62 27q-37 0 -60.5 -25.5t-23.5 -62.5q0 -58 62 -133zM494 917l16 -25l-170 -122l-62 128l24 19l63 -65z" />
    <glyph glyph-name="guilsinglleft" unicode="&#x2039;" horiz-adv-x="388" 
d="M200 228l70 -142l-24 -18l-165 162l264 155l15 -21z" />
    <glyph glyph-name="OE" unicode="&#x152;" horiz-adv-x="1146" 
d="M678 0l-199 -16q1 4 1 8v7q-2 2 -14 0q-25 -4 -73 -12q-20 -3 -29 -3h-6q-96 0 -161 66t-65 176q0 157 129 299q135 147 302 147q38 0 89 -16q53 -7 168 -11q164 -6 169 -6q57 0 99 6q37 5 78 17l-89 -97q-48 3 -241 33q-44 -93 -88 -228h186l-50 -58q-68 27 -114 27h-30
q-21 -72 -34 -166q-2 -14 -2 -28v-39q0 -23 62 -34q42 -8 86 -8q69 0 135 17q-6 -10 -21 -28q-44 -58 -96 -58q-96 0 -206 33q-2 12 -2 24v25q0 156 99 407q28 71 52 119q-23 5 -45 5q-63 -158 -106 -317q-13 -46 -34 -139q-7 -34 -18 -102q39 -31 68 -50zM258 203
q0 -124 70 -175q24 -18 60 -18q56 0 102 44q33 170 124 405q26 67 50 125q-32 55 -105 55q-137 0 -225 -155q-35 -62 -55.5 -141.5t-20.5 -139.5z" />
    <glyph glyph-name="quoteleft" unicode="&#x2018;" horiz-adv-x="234" 
d="M282 672l11 -29q-93 -33 -93 -83q0 -12 18 -30t18 -30q0 -23 -16.5 -37.5t-39.5 -14.5q-55 0 -55 54q0 74 71 126q15 8 44 26l23 10q11 4 19 8z" />
    <glyph glyph-name="quoteright" unicode="&#x2019;" horiz-adv-x="234" 
d="M114 448l-10 28q92 33 92 83q0 14 -17 31.5t-17 29.5q0 23 16 37.5t39 14.5q55 0 55 -56q0 -72 -72 -126q-13 -13 -41 -25q-22 -8 -45 -17z" />
    <glyph glyph-name="quotedblleft" unicode="&#x201c;" horiz-adv-x="368" 
d="M280 672l9 -29q-44 -17 -61 -29q-32 -22 -32 -54q0 -12 18 -30t18 -30q0 -23 -16 -37.5t-39 -14.5q-24 0 -39.5 15t-15.5 39q0 76 70 126q3 2 46 26zM430 672l10 -29q-93 -33 -93 -83q0 -10 10 -21.5t19 -20.5q5 -8 5 -18q0 -22 -15.5 -37t-37.5 -15q-56 0 -56 54
q0 74 71 126q16 12 43 24q38 17 44 20z" />
    <glyph glyph-name="quotedblright" unicode="&#x201d;" horiz-adv-x="368" 
d="M106 448l-10 28q92 33 92 83q0 10 -17 30t-17 31q0 23 16 37.5t39 14.5q55 0 55 -56q0 -50 -35 -92q-32 -37 -81 -58zM256 448l-10 28q93 33 93 83q0 14 -17.5 31.5t-17.5 29.5q0 22 16 37t38 15q56 0 56 -56q0 -70 -71 -126q-5 -5 -40 -21q-15 -8 -47 -21z" />
    <glyph glyph-name="bullet" unicode="&#x2022;" horiz-adv-x="524" 
d="M282 188h-4q-35 0 -69 15q-70 31 -101 102q-15 35 -15 72q0 78 57 136q54 55 132 55q39 0 74 -15q71 -31 102 -103q15 -35 15 -73q0 -77 -56 -133t-135 -56z" />
    <glyph glyph-name="endash" unicode="&#x2013;" horiz-adv-x="1048" 
d="M10 212l52 79h784q120 0 168 6l-46 -75h-752q-100 0 -166 -6q-22 -2 -40 -4z" />
    <glyph glyph-name="emdash" unicode="&#x2014;" 
d="M42 212l51 79h343q41 0 64 2l23 2q10 1 19 2l-46 -75h-238q-105 0 -174 -6q-23 -2 -42 -4z" />
    <glyph glyph-name="tilde" unicode="&#x2dc;" horiz-adv-x="278" 
d="M124 578l-24 14q39 80 86 80q17 3 43 -11l40 -22q13 -6 27 -6q32 0 58 47l23 -12q-22 -45 -32 -57q-22 -27 -56 -27q-17 0 -54.5 20t-52.5 20q-35 0 -58 -46z" />
    <glyph glyph-name="trademark" unicode="&#x2122;" horiz-adv-x="641" 
d="M312 496v-18h-160v18q16 2 27 2q17 2 23 17q3 7 5 30v201q-42 -8 -55 -26q-8 -10 -27 -62h-19l4 108h246l6 -108h-19q-11 34 -16 45q-12 24 -32 33q-13 6 -34 10v-201l3 -26q2 -16 20 -18zM478 496v-18h-103v18q30 4 39.5 12.5t9.5 36.5v163q0 26 -5 31t-31 7v20h106
l57 -190h2l65 190h114v-20q-15 -2 -35 -9q-9 -8 -9 -35v-157q0 -28 6 -36.5t33 -12.5v-18h-131v18q24 3 30.5 13t6.5 36v193h-2l-89 -260h-16l-76 251h-2v-184q0 -32 6 -39t24 -10z" />
    <glyph glyph-name="scaron" unicode="&#x161;" horiz-adv-x="427" 
d="M547 282l-15 -46l-66 -74q-39 -42 -71 -70q-62 -53 -122 -74q-24 -9 -51 -15q-38 -19 -74 -19q-71 0 -116 39q-48 41 -48 109q0 51 30 93t78 59l96 -46l2 2q-3 0 -18.5 43.5t-15.5 60.5q0 51 34.5 81.5t85.5 30.5q87 0 114 -77l-83 -47q9 24 9 43q0 22 -10 39
q-11 21 -32 21q-16 0 -27 -13.5t-11 -30.5q0 -38 44 -123q46 -89 46 -126q0 -48 -27 -78l2 -2q2 -2 6 -2q15 0 63 37q90 70 154 155q12 16 23 30zM62 108q0 -42 23 -71q25 -32 65 -32q38 0 63 29.5t25 67.5q0 29 -17 72q-13 31 -27 54q-57 0 -93 -31q-39 -33 -39 -89z
M466 723l16 -25l-170 -122l-62 128l24 19l63 -65z" />
    <glyph glyph-name="guilsinglright" unicode="&#x203a;" horiz-adv-x="388" 
d="M164 385l164 -162l-264 -155l-16 20l160 138l-70 140z" />
    <glyph glyph-name="oe" unicode="&#x153;" horiz-adv-x="680" 
d="M803 280l-15 -46q-186 -250 -418 -250q-95 0 -114 86q-42 -40 -70 -54q-61 -32 -110 -32q-82 0 -82 103q0 54 34 125q29 59 70 110q48 59 108 98q55 36 116 36q49 0 67.5 -14.5t28.5 -62.5q67 77 184 77q60 0 60 -50q0 -64 -90 -154q-38 -38 -90 -66q-45 -24 -93 -24h-19
q-4 -22 -4 -40q0 -85 95 -85q98 0 197 81q56 46 115 122q16 20 30 40zM383 215q26 -10 50 -10h4q28 0 54 17q71 47 71 155q0 47 -28 47h-6q-40 0 -92.5 -78t-52.5 -129v-2zM88 112q0 -30 13 -51q16 -24 45 -24q50 0 104 93q56 97 56 211q0 79 -41 79q-47 0 -97 -75
q-80 -118 -80 -226v-7z" />
    <glyph glyph-name="nonbreakingspace" unicode="&#xa0;" horiz-adv-x="310" 
 />
    <glyph glyph-name="exclamdown" unicode="&#xa1;" horiz-adv-x="408" 
d="M228 463l63 29q-62 -174 -103 -362q-8 -36 -19 -108l-107 -38q0 94 62 244q43 104 81 183q13 27 23 52zM309 672h5q50 0 50 -56q0 -23 -16 -39.5t-39 -16.5q-24 0 -39.5 16t-15.5 40t15.5 40t39.5 16z" />
    <glyph glyph-name="cent" unicode="&#xa2;" 
d="M280 129l-40 -130l-59 -15l47 145q-99 7 -99 103q0 92 77 187q73 90 152 107l36 109l56 11l-38 -120q54 -8 90 -40l-43 -70q-16 62 -59 78l-105 -323h13q56 0 120 61l14 -23q-66 -65 -162 -80zM248 190l100 304q-42 -10 -77 -73q-43 -76 -43 -156q0 -50 20 -75z" />
    <glyph glyph-name="sterling" unicode="&#xa3;" 
d="M22 -10l44 78q63 4 111 93q45 84 45 159v6h-19q-6 0 -17.5 -1t-16.5 -1q-12 0 -36 -2l21 64q32 -3 56 -3h18l4 27q17 116 50 166q53 80 152 80q86 0 124 -74l-74 -52v19q0 34 -16 58q-18 28 -50 28q-46 0 -71 -56.5t-25 -148.5v-47h36q58 0 90 3l-19 -64q-42 4 -84 4h-33
q-9 -86 -62 -151q-43 -52 -128 -105v-2h142q120 0 216 23l-38 -47q-22 -28 -31 -35q-18 -14 -43 -14q-15 0 -45 2.5t-45 2.5h-138q-46 0 -89 -6z" />
    <glyph glyph-name="currency" unicode="&#xa4;" 
d="M146 192l-70 -68l-32 32l70 70q-48 52 -48 142q0 82 48 144l-72 74l34 32l72 -71q66 48 143 49q74 1 143 -49l72 71l34 -32l-73 -74q50 -48 50 -144q0 -88 -50 -142l71 -70l-32 -32l-69 68q-65 -48 -146 -48q-83 0 -145 48zM108 364q0 -72 55 -125t128 -53q75 0 129 54
t54 128q0 39 -14 72q-21 50 -68 81.5t-101 31.5q-73 0 -128 -54.5t-55 -126.5v-8z" />
    <glyph glyph-name="yen" unicode="&#xa5;" 
d="M334 268h-114q3 -84 35 -84q30 0 79 84zM390 389h-174l3 -79h135q26 49 36 79zM473 310h131l-16 -42h-127q-57 -203 -110 -299q-95 -169 -245 -169q-135 0 -197 72l95 60q16 -107 129 -107q97 0 161 166q25 63 57 205q7 30 13 54l-2 3q5 -6 -24 -51q-44 -69 -83 -98
q-25 -19 -50 -19q-52 0 -73 71q-2 8 -18 112h-118l16 42h102l-4 79h-115l15 42h98q-1 36 -1 72q-2 44 -9 71q-3 29 -23 39q-14 7 -47 7l9 27l157 9q11 -56 20 -225h188q6 16 17 49q11 39 35 128q5 16 13 48h111l-72 -225h97l-15 -42h-92z" />
    <glyph glyph-name="brokenbar" unicode="&#xa6;" horiz-adv-x="349" 
d="M200 708v-367h-50v367h50zM200 184v-368h-50v368h50z" />
    <glyph glyph-name="section" unicode="&#xa7;" 
d="M540 603l-73 -40q10 23 10 38q0 16 -9.5 30t-25.5 14q-35 0 -51 -47q-8 -23 -11 -116q-1 -8 -1 -23l-1 -71q-3 -201 -24 -301q-16 -76 -64 -107q-23 -15 -64 -18q-37 -78 -105 -78q-65 0 -83 71l70 39q-8 -30 -8 -38q0 -16 9.5 -28.5t24.5 -12.5q32 0 48 43q12 34 12 93
q0 40 4 120.5t4 120.5q0 15 1 37q2 30 2 37q3 103 35.5 165.5t111.5 62.5q39 78 104 78q74 0 84 -69zM278 500q-21 -69 -21 -255t-19 -257q41 0 59 63q12 42 15 126q1 68 6 205l4 68q4 61 19 118q-46 -11 -63 -68z" />
    <glyph glyph-name="dieresis" unicode="&#xa8;" horiz-adv-x="777" 
d="M498 339h-31q-23 -74 -33 -166q-3 -26 -3 -52v-15q0 -23 62 -34q42 -8 87 -8q70 0 135 17q-29 -36 -69 -81q-33 -5 -50 -5q-97 0 -204 33q-3 24 -3 49v6q0 57 17 133q30 132 95 294q25 63 39 92q-98 22 -165 22q-90 0 -153.5 -39.5t-63.5 -104.5v-4q0 -32 11 -58
l-116 -12q9 126 133 192q109 58 277 58q38 0 97 -6q78 -8 97 -9q31 -2 60 -2q57 0 98 6q38 5 78 17l-88 -97q-29 2 -61 6l-72 9q-28 4 -58 9l-50 9q-40 -80 -88 -228h184l-48 -58q-27 11 -83 26q-13 1 -31 1zM406 0l-199 -16q1 16 5 37l9 47q8 38 46 166q35 118 80 236
q16 42 51 126h96q-128 -319 -156 -546q41 -36 68 -50zM536 776q-20 0 -33 14t-13 34q0 19 13.5 31.5t32.5 12.5q46 0 46 -44q0 -48 -46 -48zM690 776q-20 0 -33.5 14t-13.5 34q0 44 47 44q45 0 45 -44q0 -48 -45 -48z" />
    <glyph glyph-name="copyright" unicode="&#xa9;" horiz-adv-x="524" 
d="M430 488h22q-7 -53 -30 -77t-76 -24h-2q-58 0 -95.5 41t-37.5 100q0 77 61 124q34 26 68 26q15 0 39.5 -8t34.5 -8q5 0 18 16h16v-108l-16 -2q-18 46 -26 58q-20 30 -52 30q-76 0 -76 -128q0 -45 16 -76q21 -40 62 -40q64 0 74 76zM335 293q-58 0 -111.5 28.5t-87.5 76.5
q-43 59 -43 132q0 72 42 131.5t110 86.5q45 18 94 18q103 0 174 -69t71 -167t-73 -167.5t-168 -69.5h-8zM130 526q0 -60 38 -110q35 -47 92 -70q37 -16 79 -16q81 0 147 59q61 55 61 132v17q0 76 -61 132q-65 59 -147 59q-86 0 -147.5 -59.5t-61.5 -135.5v-8z" />
    <glyph glyph-name="ordfeminine" unicode="&#xaa;" 
d="M610 532l-10 -34q-78 -109 -167 -156q-35 -18 -73 -18q-46 0 -46 34q0 17 6 34l52 146h-10q-49 -128 -135 -189q-36 -25 -79 -25q-59 0 -59 64q0 47 25 92q54 97 146 151q43 25 79 25q47 0 47 -48v-12h10l18 54l90 6l-88 -242q-8 -22 -8 -31q0 -21 12 -21q26 0 95 65
q65 62 95 105zM203 370h2q17 0 45 26q20 18 42 48q56 75 56 124q0 56 -48 56q-41 0 -73 -54q-28 -47 -39 -100q-10 -47 -10 -58q0 -42 25 -42z" />
    <glyph glyph-name="guillemotleft" unicode="&#xab;" horiz-adv-x="602" 
d="M205 228l69 -142l-26 -18l-164 162l264 155l16 -21zM402 228l70 -142l-26 -18l-164 162l265 155l15 -21z" />
    <glyph glyph-name="logicalnot" unicode="&#xac;" 
d="M474 296v-163h-68v105h-348v58h416z" />
    <glyph glyph-name="minus" unicode="&#xad;" 
d="M473 244v-58h-415v58h415z" />
    <glyph glyph-name="minus" unicode="&#x2212;" 
d="M473 244v-58h-415v58h415z" />
    <glyph glyph-name="registered" unicode="&#xae;" horiz-adv-x="524" 
d="M352 420v-20h-136v20q26 2 32.5 8.5t6.5 32.5v151q0 24 -6 30q-4 3 -33 7v21h128q52 0 76 -10q39 -15 39 -58q0 -33 -24 -49q-13 -8 -54 -19q11 -18 31 -47q35 -50 40 -50q18 0 18 35h20q0 -72 -55 -72q-42 0 -53 52q-17 76 -58 76h-12v-63q0 -27 6.5 -35t33.5 -10z
M312 610v-61h22q60 0 60 47q0 53 -45 53q-23 0 -30 -8t-7 -31zM334 293q-44 0 -90 19q-92 38 -132 126q-20 44 -20 92q0 97 74 168q71 68 172 68q73 0 136 -39.5t91 -105.5q19 -45 19 -91q0 -96 -73 -166.5t-169 -70.5h-8zM129 526q0 -77 62.5 -136.5t146.5 -59.5
q61 0 113.5 33.5t78.5 88.5q17 36 17 78q0 102 -94 165q-52 34 -115 34q-42 0 -79 -15q-79 -32 -113 -107q-17 -37 -17 -73v-8z" />
    <glyph glyph-name="macron" unicode="&#xaf;" horiz-adv-x="278" 
d="M358 635l-19 -59h-207l20 59h206z" />
    <glyph glyph-name="macron" unicode="&#x2c9;" horiz-adv-x="278" 
d="M358 635l-19 -59h-207l20 59h206z" />
    <glyph glyph-name="degree" unicode="&#xb0;" 
d="M328 393q-53 0 -92.5 39.5t-39.5 91.5q0 53 39.5 92.5t92.5 39.5q69 0 110 -60q21 -32 21 -72q0 -38 -22.5 -72.5t-56.5 -49.5q-20 -9 -48 -9h-4zM234 524q0 -39 27.5 -66.5t66.5 -27.5q38 0 66 28t28 66t-27 66t-65 28h-2q-40 0 -67 -27t-27 -67z" />
    <glyph glyph-name="plusminus" unicode="&#xb1;" 
d="M299 186v-149h-67v149h-174v58h174v212h67v-212h174v-58h-174zM473 -16v-58h-415v58h415z" />
    <glyph glyph-name="twosuperior" unicode="&#xb2;" horiz-adv-x="349" 
d="M332 334l-33 -60h-275l15 42q11 9 27 20l36 26q96 68 148 132q28 35 28 68q0 46 -69 46q-36 0 -67 -16l-9 32q42 15 95 15q50 0 83 -16q45 -21 45 -65q0 -56 -99 -129q-50 -32 -149 -97q-4 -6 -12 -10h94q59 0 142 12z" />
    <glyph glyph-name="threesuperior" unicode="&#xb3;" horiz-adv-x="349" 
d="M144 601l-9 25q45 13 93 13q38 0 68 -15q38 -18 38 -52q0 -59 -90 -81q-23 -6 -41 -9v-2q43 -6 74 -31q35 -28 35 -68q0 -57 -57 -88q-46 -25 -107 -25q-54 0 -103 16l15 28q42 -13 73 -13q44 0 72 18q33 21 33 62q0 36 -40 60q-35 20 -82 20h-16l22 43q27 -6 34 -6
q40 0 71 16q38 20 38 56v2q0 44 -57 44q-18 0 -64 -13z" />
    <glyph glyph-name="acute" unicode="&#xb4;" horiz-adv-x="278" 
d="M340 723l22 -88l-186 -59l-12 27z" />
    <glyph glyph-name="paragraph" unicode="&#xb6;" 
d="M398 727v-909h-40v458q-24 3 -76 19q-88 27 -132 115q-23 45 -23 104q0 122 100 193q84 59 213 59h121v-39h-61v-909h-39v909h-63z" />
    <glyph glyph-name="periodcentered" unicode="&#xb7;" 
d="M257 158q-26 0 -42.5 16t-16.5 42q0 25 18 41.5t44 16.5q56 0 56 -55q0 -27 -16 -44t-43 -17z" />
    <glyph glyph-name="periodcentered" unicode="&#x2219;" 
d="M257 158q-26 0 -42.5 16t-16.5 42q0 25 18 41.5t44 16.5q56 0 56 -55q0 -27 -16 -44t-43 -17z" />
    <glyph glyph-name="cedilla" unicode="&#xb8;" horiz-adv-x="388" 
d="M520 280l-16 -46q-75 -109 -172 -176q-47 -33 -109 -54q-58 -20 -125 -20q-114 0 -114 96q0 58 34 129q29 61 73 113q113 134 231 134q59 0 59 -50q0 -67 -85 -153q-90 -91 -186 -91h-12q-4 -24 -4 -40q0 -85 94 -85q110 0 234 121q39 37 98 122zM110 215q26 -10 50 -10
h4q24 0 45 13q73 45 73 159q0 47 -28 47q-42 0 -91 -89q-33 -59 -53 -120zM240 524q-46 0 -46 48q0 44 46 44t46 -44q0 -48 -46 -48zM393 524q-20 0 -33.5 14t-13.5 34q0 44 47 44q45 0 45 -44q0 -48 -45 -48z" />
    <glyph glyph-name="onesuperior" unicode="&#xb9;" horiz-adv-x="349" 
d="M198 274l-86 -6q18 31 34 83l26 86l49 147l-2 2q1 -1 -15 -22l-35 -44q-38 -49 -40 -49v0l2 3l-17 50l124 109l80 6q-24 -52 -44 -117l-42 -135q-12 -38 -34 -113z" />
    <glyph glyph-name="ordmasculine" unicode="&#xba;" 
d="M582 532l-10 -34q-41 -47 -80 -84q-88 -82 -176 -82q-26 0 -46 10q-45 -18 -88 -18q-78 0 -78 68q0 39 29 91q24 42 58 77q94 96 186 96q84 0 84 -72q0 -62 -81 -153q-40 -44 -77 -69q11 -4 31 -4q63 0 139 63q41 34 109 111zM244 452q0 -62 45 -84q37 34 61 91
q27 61 27 115q0 50 -36 50q-40 0 -71 -65q-26 -54 -26 -107zM320 631l2 6q-37 -6 -73 -48q-67 -79 -67 -163q0 -70 56 -70h12q-20 23 -26.5 38t-6.5 44q0 63 34 121q30 52 69 72z" />
    <glyph glyph-name="guillemotright" unicode="&#xbb;" horiz-adv-x="602" 
d="M171 385l165 -162l-264 -155l-16 20l159 138l-69 140zM368 385l166 -162l-264 -155l-16 20l160 138l-70 140z" />
    <glyph glyph-name="onequarter" unicode="&#xbc;" horiz-adv-x="796" 
d="M208 274l-86 -6q15 42 44 127l14 42l50 147l-2 2q-30 -37 -88 -112l-16 50l122 109l80 6q-27 -64 -44 -117l-32 -102q-4 -15 -12 -40q-12 -40 -30 -106zM234 1l-120 -17q87 195 304 442q41 47 74 81l74 77q36 37 71 72l21 -19q-123 -117 -254 -304q-143 -204 -170 -332z
M586 0l-78 -5q11 30 43 121h-82q-31 0 -69 -6l-9 26q85 70 130 163q16 34 19 59l67 6q-16 -52 -99 -143q-27 -29 -60 -63h117l63 200l78 8q-21 -49 -52 -144l-21 -64h23q19 0 65 4l-28 -50q-22 4 -46 4h-29q-7 -21 -20 -71q-3 -13 -10 -38q-2 -5 -2 -7z" />
    <glyph glyph-name="onehalf" unicode="&#xbd;" horiz-adv-x="796" 
d="M218 274l-86 -6q16 32 32 83l26 86l50 147l-2 2q-30 -37 -88 -112l-16 50l122 109l80 6q-15 -39 -43 -117l-32 -102q-23 -74 -43 -146zM244 1l-118 -17q77 170 231 357q118 143 290 315l21 -19q-148 -148 -254 -304q-143 -210 -170 -332zM692 60l-34 -60h-273l13 42
q125 83 210 188q29 36 29 56q0 48 -69 48q-20 0 -66 -16l-8 31q38 15 94 15h6q49 0 81 -17q42 -21 42 -65q0 -53 -101 -128q-12 -9 -40 -28l-44 -30q-4 -2 -76 -49h93q61 0 143 13z" />
    <glyph glyph-name="threequarters" unicode="&#xbe;" horiz-adv-x="796" 
d="M132 601l-7 25q38 12 86 12q113 0 113 -66q0 -60 -91 -81q-23 -6 -41 -9v-2q69 -14 98 -58q11 -18 11 -41q0 -58 -57 -88q-45 -25 -108 -25q-52 0 -101 16l13 28q48 -13 75 -13q43 0 71 18q34 21 34 62q0 55 -76 75q-21 5 -42 5h-21l21 43q22 -6 36 -6q40 0 71 16
q38 20 38 56v2q0 44 -59 44q-17 0 -64 -13zM265 1l-117 -17q74 167 231 357q71 86 147 166l73 77q36 37 71 72l20 -19q-141 -141 -254 -304q-95 -137 -147 -259q-17 -39 -24 -73zM618 0l-78 -5l25 67q10 26 19 54h-82q-32 0 -69 -6l-9 26q84 70 130 163q16 34 20 59l65 6
q-13 -41 -60 -100q-38 -47 -97 -106h116l64 200l76 8q-24 -54 -52 -144l-20 -64h50q13 1 38 4l-29 -50q-15 4 -45 4h-28q-3 -8 -15 -56q-11 -41 -19 -60z" />
    <glyph glyph-name="questiondown" unicode="&#xbf;" horiz-adv-x="524" 
d="M308 50l16 -32q-64 -34 -121 -34q-62 0 -101 28q-44 32 -44 92q0 64 70 116q11 8 96 57q59 34 86 69q20 26 20 62q0 29 -23 69l76 27q4 -31 4 -39q0 -45 -17 -75q-24 -43 -74 -89q-43 -39 -86 -77q-62 -62 -62 -124q0 -36 19 -58t54 -22q42 0 87 30zM388 560
q-24 0 -40 16t-16 40q0 25 15.5 40.5t40.5 15.5q56 0 56 -56q0 -23 -16.5 -39.5t-39.5 -16.5z" />
    <glyph glyph-name="Agrave" unicode="&#xc0;" horiz-adv-x="834" 
d="M449 291h124q20 140 47 226q11 34 27 81l-2 2q-3 0 -36 -50q-14 -21 -29 -45l-28 -46q-4 -7 -83 -133q-16 -25 -20 -35zM391 259h-38q-44 0 -96 -6q-106 -12 -164 -67q-30 -28 -30 -70q0 -41 31.5 -68.5t73.5 -27.5q76 0 139 88q33 45 84 151zM627 656h47l149 16
q-43 -130 -59 -193q-27 -109 -27 -199q0 -117 52 -170l-48 -42q-30 76 -30 174q0 175 82 403l-39 -4q-29 -74 -55 -192q-29 -135 -29 -244v-13q0 -32 5 -84q4 -42 22 -60t59 -22l-13 -42h-157q-21 72 -21 149q0 66 6 126h-138q-36 -66 -52 -92q-30 -50 -60 -86
q-81 -97 -182 -97q-60 0 -102 30q-46 34 -46 92q0 101 119 148q64 25 171 35q28 2 54 2h75q46 89 113 190q38 56 107 137q-5 5 -40 7h-28q-16 -1 -23 -1q-60 1 -112 -19q-62 -23 -89 -67q-16 -26 -16 -58v-4q0 -28 11 -58l-116 -12q10 131 134 192q63 31 128 44
q70 14 148 14z" />
    <glyph glyph-name="Aacute" unicode="&#xc1;" horiz-adv-x="874" 
d="M424 132v-3q0 -55 34 -89.5t89 -34.5q63 0 98 48q31 43 31 109q0 105 -81 148q-57 31 -128 33q-43 -141 -43 -211zM412 622q-14 2 -23 2h-14q-90 0 -153.5 -39.5t-63.5 -104.5v-4q0 -32 11 -58l-116 -12q9 126 133 192q109 58 277 58q38 0 97 -6q78 -8 97 -9q31 -2 60 -2
q57 0 98 6q38 5 78 17l-88 -97q-29 2 -61 6l-72 9q-28 4 -58 9l-50 9q-37 -73 -88 -223q14 -7 83 -18q32 -5 88 -22q54 -27 65 -34q33 -21 50.5 -51t17.5 -79q0 -72 -63 -127q-69 -60 -160 -60h-6q-153 0 -153 146q0 34 28 156q5 20 24 88q1 2 15 38l61 154q13 33 14 36
q-12 3 -36 8q-11 -29 -34 -86q-31 -74 -43 -115q-17 -57 -29 -97q-49 -166 -60 -262q41 -36 68 -50l-199 -16q20 180 141 491q30 77 64 147z" />
    <glyph glyph-name="Acircumflex" unicode="&#xc2;" horiz-adv-x="874" 
d="M424 132v-3q0 -55 34 -89.5t89 -34.5q63 0 98 48q31 43 31 109q0 105 -81 148q-57 31 -128 33q-43 -141 -43 -211zM551 -16q-153 0 -153 146q0 34 28 156q22 95 51 161q62 141 166 201q42 24 86 24q49 0 82 -32t33 -81q0 -131 -184 -180q-53 -14 -90 -21v-2l12 -3
q17 -5 51 -14q12 -3 14 -4q29 -8 67 -33q66 -44 66 -131q0 -72 -63 -127q-69 -60 -160 -60h-6zM678 618h-4q-63 0 -127 -92q-42 -60 -71 -151q14 -7 30 -7h4q39 0 79 17q81 34 119 103q19 34 19 65q0 65 -49 65zM406 0l-199 -16q20 186 141 491q32 81 64 145q-13 4 -44 4
q-48 0 -76 -8q-53 -15 -87 -47q-41 -38 -41 -87v-19q0 -9 10 -39l-114 -12q17 125 119 183q81 46 239 55l103 6q-70 -164 -123 -344q-49 -167 -60 -262q41 -36 68 -50z" />
    <glyph glyph-name="Atilde" unicode="&#xc3;" horiz-adv-x="700" 
d="M326 -70l-132 -40q4 148 72 361q32 99 100 267q16 41 32 78h96q-18 -45 -34 -91l-32 -93q-48 -139 -76 -258q-11 -43 -27 -130q-3 -26 -3 -44q0 -38 4 -50zM551 614q-11 2 -34 6q-30 3 -84 4q-60 1 -112 -19q-62 -23 -89 -67q-16 -26 -16 -58v-4q0 -30 12 -58l-116 -12
q11 185 260 236q68 14 149 14q38 0 97 -6q78 -8 97 -9q31 -2 60 -2q57 0 99 6q37 5 78 17l-89 -94q-58 3 -98 8q-24 3 -73 10l-34 6q-27 5 -82 16q-59 -118 -107 -254q-27 -76 -43 -202q-4 -31 -4 -64q0 -39 22 -88l-50 -10q-9 46 -9 76q0 173 101 414q11 23 33 68l19 39
q9 18 13 27z" />
    <glyph glyph-name="Adieresis" unicode="&#xc4;" horiz-adv-x="971" 
d="M166 418l-116 -12q8 129 148 193q125 57 357 57q221 0 321 -91q66 -60 66 -169v-5q0 -72 -32 -141q-36 -77 -89 -134q-56 -59 -128 -94q-77 -38 -153 -38q-70 0 -108 40t-38 110q0 75 48 224q13 40 42 115q19 50 38 80l56 13q-30 -25 -60 -85q-55 -110 -84 -241
q-14 -64 -14 -112q0 -112 110 -112q127 0 214 126q77 112 77 241q0 75 -29 119q-59 90 -200 112q-63 10 -144 10q-292 0 -292 -148q0 -32 10 -58zM402 0l-199 -16q5 53 27 135q20 74 54 177q20 60 60 174q24 65 52 126h94q-30 -72 -82 -238q-14 -44 -22 -74l-19 -71
q-19 -68 -27 -119q-4 -25 -6 -44q26 -23 68 -50z" />
    <glyph glyph-name="Aring" unicode="&#xc5;" horiz-adv-x="777" 
d="M498 339h-31q-23 -74 -33 -166q-3 -26 -3 -52v-15q0 -23 62 -34q42 -8 87 -8q70 0 135 17q-29 -36 -69 -81q-33 -5 -50 -5q-97 0 -204 33q-3 24 -3 49v6q0 57 17 133q30 132 95 294q25 63 39 92q-98 22 -165 22q-90 0 -153.5 -39.5t-63.5 -104.5v-4q0 -32 11 -58
l-116 -12q9 126 133 192q109 58 277 58q38 0 97 -6q78 -8 97 -9q31 -2 60 -2q57 0 98 6q38 5 78 17l-88 -97q-29 2 -61 6l-72 9q-28 4 -58 9l-50 9q-40 -80 -88 -228h184l-48 -58q-27 11 -83 26q-13 1 -31 1zM406 0l-199 -16q1 16 5 37l9 47q8 38 46 166q35 118 80 236
q16 42 51 126h96q-128 -319 -156 -546q41 -36 68 -50z" />
    <glyph glyph-name="AE" unicode="&#xc6;" horiz-adv-x="1050" 
d="M455 336l-39 -4q-28 -38 -86 -113l-35 -41q-98 -116 -182 -162q-33 -18 -68 -24t-71 6q-44 14 -44 48l100 46q17 -50 62 -45q37 4 84 41q35 28 96 99q70 82 103 150q-41 115 -119 252q-23 40 -38 55q-23 23 -44 23q-61 0 -55 -71q2 -25 19 -57l-89 -34q-1 12 -1 23
q0 94 68 138q30 19 67 19q50 1 93 -35q29 -25 63.5 -77.5t80.5 -152.5q11 -25 18 -44l31 -2q5 17 37 99q43 111 101 236q18 40 33 71q-6 2 -23 4q-33 1 -59 -16q-29 -19 -32 -50q-2 -19 9 -36l-91 -36q-2 37 32 87q38 56 82 63q28 6 88 13l166 5q-8 -17 -66 -148l-54 -119
q-7 -16 -12 -29q-29 -73 -51 -154l43 1q64 107 178 197q133 105 239 105q43 0 71 -25l-83 -81q-11 25 -22 34t-37 9q-87 0 -181 -85q-83 -76 -113 -154q21 -75 80 -197q71 -147 140 -233q90 -113 164 -113q44 0 44 44v10l105 37q-32 -112 -151 -112q-159 0 -294 194
q-68 98 -101 173q-41 94 -60 161l-30 1q-36 -127 -39 -226q-1 -44 24 -104l-50 -10q-10 43 -10 92q0 44 18 126q16 74 65 227q20 61 88 215q32 73 57 138h-38q-42 -98 -121 -294q-60 -153 -99 -326q-9 -35 -20 -106q-2 -26 -6 -62l-125 -16q9 78 38 178z" />
    <glyph glyph-name="Ccedilla" unicode="&#xc7;" horiz-adv-x="591" 
d="M434 303q27 -33 26 -79q-3 -144 -143 -216q-48 -25 -118 -25q-172 0 -199 156l104 73q-10 -50 -10 -64q0 -39 18 -73q19 -38 52 -53q44 -20 83 -10q36 9 67.5 39t41.5 64.5t10 70.5q0 64 -20 94q-28 40 -96 40q-38 0 -56 -6l8 31q28 5 83 11h29t35 -4q55 -13 85 -49z
M481 50l-91 -35q111 83 111 214q0 50 -36 88q-33 34 -84 47q-31 7 -56 6l23 22q83 7 83 108q0 76 -46 109q-16 11 -37 9q-36 -4 -63.5 -25.5t-32.5 -55.5q-4 -26 9 -59l-101 -23q-2 7 -2 15q0 31 22 68q27 48 75 78q58 36 142 36q55 0 95 -25q46 -30 46 -82q0 -56 -45 -103
q-37 -39 -96 -64q59 -16 96 -58q39 -45 39 -105q0 -87 -51 -165z" />
    <glyph glyph-name="Egrave" unicode="&#xc8;" horiz-adv-x="874" 
d="M172 424l-114 -10v4q0 103 106 168q114 70 324 70h46q-27 -27 -60 -78q-80 -123 -119 -257q-21 -73 -21 -140q0 -48 16 -83q22 -46 64 -46t85 41q30 29 64 89q51 91 103 266q22 72 34 122q7 28 12 50l7 36h184q-64 -141 -113 -284q-24 -70 -44 -158q-19 -83 -19 -138
q0 -35 17 -46q11 -6 50 -10l-6 -20l-198 -5q12 109 84 323q62 184 122 317h-61q-10 -49 -33 -120q-30 -96 -59 -193q-37 -112 -79 -184q-51 -87 -108 -125q-42 -29 -94 -29q-91 0 -125 84q-19 44 -19 94q0 84 42 193q56 145 184 273h-54q-99 0 -159 -35q-69 -41 -69 -116
q0 -20 10 -53z" />
    <glyph glyph-name="Eacute" unicode="&#xc9;" horiz-adv-x="874" 
d="M172 424l-114 -10v4q0 103 106 168q114 70 324 70h46q-27 -27 -60 -78q-80 -123 -119 -257q-21 -73 -21 -140q0 -48 16 -83q22 -46 64 -46t85 41q30 29 64 89q51 91 103 266q22 72 34 122q7 28 12 50l7 36h184q-64 -141 -113 -284q-24 -70 -44 -158q-19 -83 -19 -138
q0 -35 17 -46q11 -6 50 -10l-6 -20l-198 -5q12 109 84 323q62 184 122 317h-61q-10 -49 -33 -120q-30 -96 -59 -193q-37 -112 -79 -184q-51 -87 -108 -125q-42 -29 -94 -29q-91 0 -125 84q-19 44 -19 94q0 84 42 193q56 145 184 273h-54q-99 0 -159 -35q-69 -41 -69 -116
q0 -20 10 -53zM524 861l15 7l48 20q0 -77 22 -108q34 -48 81 -50q39 -2 88 36q20 15 45 46l22 6q-15 -21 -51 -62q-76 -73 -157 -69q-54 2 -87 45q-30 40 -30 95q0 18 4 34z" />
    <glyph glyph-name="Ecircumflex" unicode="&#xca;" horiz-adv-x="815" 
d="M332 0l-125 -16q23 193 141 489q34 86 64 147q-13 4 -44 4q-70 0 -121 -25q-83 -42 -83 -113v-4q0 -32 10 -58l-114 -12q18 127 122 185q87 48 236 53l166 6q-76 -157 -113 -292h11q64 107 178 197q133 105 239 105q43 0 71 -25l-83 -81q-11 25 -21 33q-13 10 -38 10
q-87 0 -181 -85q-83 -76 -113 -154q21 -75 80 -197q71 -147 140 -233q90 -113 164 -113q44 0 44 44v10l105 37q-32 -112 -151 -112q-158 0 -294 194q-67 95 -101 173q-41 94 -60 161h-2q-9 0 -17 -45q-8 -41 -14 -133q-2 -32 -4 -52v0q0 -45 24 -98l-50 -10q-10 43 -10 92
q0 44 18 126q29 133 92 300q27 73 49 120h-39q-92 -217 -150 -460q-9 -35 -20 -106q-2 -26 -6 -62z" />
    <glyph glyph-name="Edieresis" unicode="&#xcb;" horiz-adv-x="834" 
d="M594 656h34l162 16q-43 -130 -59 -193q-27 -109 -27 -199q0 -117 52 -170l-48 -42q-30 76 -30 174q0 175 82 403l-39 -4q-29 -74 -55 -192q-29 -135 -29 -244q0 -136 29 -159q20 -16 57 -20l-13 -42h-157q-21 72 -21 149q0 195 55 384q10 34 27 81l-2 2
q-85 -108 -144 -238q-54 -120 -107 -197q-70 -102 -153 -153q-46 -28 -102 -28q-106 0 -141 86q-12 31 -12 57l126 67q-11 -5 -20 -34q-8 -24 -8 -41q0 -33 19 -62q24 -37 65 -37q76 0 139 88q35 49 79 135q56 109 73 138q70 119 148 210l23 27q-5 5 -40 7h-28
q-16 -1 -23 -1q-60 1 -112 -19q-62 -23 -89 -67q-16 -26 -16 -58v-4q0 -28 11 -58l-116 -12q9 153 194 217q94 33 216 33z" />
    <glyph glyph-name="Igrave" unicode="&#xcc;" horiz-adv-x="1069" 
d="M300 0l-89 -10q0 107 71 310q56 161 120 296h78q3 -30 14 -72q16 -62 46 -147q40 -111 46 -215h2l30 48q-7 55 -44 170q-20 56 -50 171q-4 22 -12 67h-140q-83 0 -139 -30q-71 -37 -71 -111q0 -20 11 -53l-115 -10q16 135 149 191q53 22 125 33q28 4 129 12l73 6
q-2 -18 -2 -25q0 -38 20 -105q8 -30 19 -60l20 -58q32 -91 46 -166q115 181 277 340q36 36 71 64l74 10q-20 -35 -56 -132q-73 -199 -73 -378q0 -58 12 -83q18 -37 68 -37h10l-8 -26l-182 -10q-15 37 -15 95q0 159 49 339q15 56 33 98l-2 2q-4 4 -73 -94q-52 -72 -160 -242
q-20 -32 -46 -82q-10 -19 -28 -59l-88 -47q8 45 8 68q0 93 -31 210q-11 43 -63 204h-2l-31 -99q-16 -48 -45 -142l-12 -43q-27 -97 -27 -174q0 -15 3 -24z" />
    <glyph glyph-name="Iacute" unicode="&#xcd;" horiz-adv-x="932" 
d="M960 712q-37 0 -76 -53q-32 -43 -56 -99l-18 -41q-22 -52 -39 -113q-10 -35 -13 -52q87 11 158 125q67 107 67 197q0 36 -23 36zM330 0l-127 -16q9 75 40 177q28 86 56 173h-25q-123 0 -141 -96l-98 -10q15 77 96 107q53 19 151 19h23q26 69 78 206q13 34 25 60
q-15 4 -42 4q-71 0 -122 -25q-84 -42 -84 -113v-4q0 -32 11 -58l-115 -12q19 124 120 183q79 46 238 55l104 6l-28 -66q-11 -28 -59 -159q-15 -42 -25 -77h38q10 44 52 153q26 69 46 115l15 34h25q-13 -24 -62 -148q-30 -75 -53 -154h180q20 70 68 156q63 114 135 173
q56 46 114 46q29 0 47.5 -22t18.5 -51v-4q0 -66 -24 -118q-54 -118 -156 -170q-53 -27 -100 -30q-17 -71 -26 -171q-3 -32 -2 -54q1 -68 40 -80q22 -7 53 -9l-6 -20l-199 -10q-10 62 -10 118q0 82 41 226h-182q-37 -104 -37 -246q0 -39 22 -88l-50 -10q-9 45 -9 92
q0 87 51 252h-38q-27 -87 -44 -166q-10 -41 -23 -124q-1 -18 -1 -44z" />
    <glyph glyph-name="Icircumflex" unicode="&#xce;" horiz-adv-x="738" 
d="M270 -16q-50 0 -92 17q-87 35 -122 126q-18 46 -18 99q0 161 129 299q136 147 302 147q103 0 169 -68q62 -64 62 -172q0 -79 -39 -163q-35 -79 -93 -141q-134 -144 -290 -144h-8zM448 645l4 13q-110 -27 -189 -141q-99 -143 -99 -314q0 -74 28 -127q35 -66 101 -66
q120 0 209 163q76 139 76 275q0 47 -8 80q-27 111 -91 111q-35 0 -75 -38q-71 -67 -109 -186q-19 -60 -19 -115q0 -142 126 -142l-72 -77q-51 9 -80 67q-26 51 -26 115q0 89 39 175q44 100 97 152q41 40 88 55z" />
    <glyph glyph-name="Idieresis" unicode="&#xcf;" horiz-adv-x="891" 
d="M282 0l-126 -16q5 117 70 302l28 79q34 99 86 211h94q-114 -300 -148 -524q-4 -26 -4 -52zM618 0l-126 -16q5 110 69 302q26 79 57 156q13 32 27 64l25 55h94l-24 -66q-15 -40 -35 -104q-7 -22 -23 -75q-40 -134 -60 -264q-4 -26 -4 -52zM477 590q-31 0 -81 3
q-65 3 -81 4q-29 1 -37 1q-172 0 -172 -102q0 -12 10 -52l-88 -32q3 38 21 80q40 93 147 140q54 24 136 24q53 0 159.5 -4t159.5 -4h42q14 0 42.5 2t42.5 2q18 0 44 3l60 7q-39 -62 -86 -183q-64 -165 -84 -318q-4 -31 -4 -59q0 -48 26 -102l-51 -7q-11 44 -11 75
q0 112 49 268q23 72 45 132q4 12 12 32l8 23q7 18 21 55h-37q-29 0 -37 2q-19 1 -56 4q-43 4 -88 4.5t-83 1.5q-108 -256 -130 -429q-4 -31 -4 -59q0 -48 26 -102l-51 -7q-11 50 -11 75q0 109 49 268q31 99 92 254z" />
    <glyph glyph-name="Eth" unicode="&#xd0;" horiz-adv-x="777" 
d="M440 0l-46 -9q-15 43 -15 86q0 103 38 232q47 159 115 244q43 54 88 82q49 31 107 31q49 0 76 -39q23 -34 23 -85q0 -90 -78 -178q-75 -84 -158 -84q-56 0 -111 40l47 74q16 -88 84 -88q52 0 84 74q27 62 27 138q0 74 -51 74q-53 0 -98 -48q-52 -55 -82 -124
q-49 -111 -67 -237q-7 -45 -7 -81q0 -50 24 -102zM328 0l-128 -16q7 64 50 208q32 109 86 250l40 105q18 47 30 73q-15 4 -42 4q-70 0 -122 -25q-84 -41 -84 -113v-4q0 -32 11 -58l-116 -12q21 126 121 183q81 46 238 55l104 6q-82 -202 -114 -297q-57 -171 -72 -309
q-3 -22 -2 -50z" />
    <glyph glyph-name="Ntilde" unicode="&#xd1;" horiz-adv-x="622" 
d="M549 88l-13 -42q-133 -62 -264 -62q-106 0 -166 65q-68 71 -68 179q0 77 34 156q70 163 233 249q74 39 158 39q111 0 211 -50l-56 -136q-9 47 -42 96q-36 53 -84 53q-49 0 -96 -42q-57 -50 -94 -149q-32 -86 -32 -151q0 -137 128 -141l-72 -76q-104 37 -104 174
q0 128 62.5 237t163.5 154l4 11q-54 -4 -106 -45q-109 -86 -162 -237q-26 -74 -26 -144q0 -130 94 -179q32 -17 78 -17q90 0 219 58z" />
    <glyph glyph-name="Ograve" unicode="&#xd2;" horiz-adv-x="660" 
d="M442 0l-52 -7q-11 50 -11 75q0 109 49 268q21 68 46 132l46 122l-66 4q-89 4 -176 4q-172 0 -172 -102q0 -12 10 -52l-88 -32q3 38 21 80q40 93 147 140q54 24 136 24q60 0 180.5 -4t180.5 -4q73 0 163 10l-62 -88q-61 11 -140 15l-50 3q-26 1 -55 2q-111 -263 -129 -429
q-4 -31 -4 -59q0 -51 26 -102zM326 0l-128 -16q4 84 44 222t114 307l27 63h94q-84 -222 -123 -393q-12 -54 -24 -131q-4 -26 -4 -52z" />
    <glyph glyph-name="Oacute" unicode="&#xd3;" horiz-adv-x="719" 
d="M572 656h163q-35 -127 -109 -380q-44 -143 -91 -253q-97 -223 -314 -223q-137 0 -197 72l95 60q9 -46 33 -74q28 -33 96 -33q99 0 161 100q40 66 88 218q27 101 83 305q25 92 51 191h-39q-38 -146 -43 -162q-25 -91 -51 -159q-50 -132 -122 -198q-38 -35 -81 -35
q-74 0 -83 139q-1 13 -3 49l-4 78l-9 156q-1 23 -8 67q-3 29 -24 39q-15 7 -48 7l10 27l158 9q11 -67 18 -245q2 -59 10 -177q5 -50 32 -50q54 0 110 104q38 70 78 208q28 99 40 160z" />
    <glyph glyph-name="Ocircumflex" unicode="&#xd4;" horiz-adv-x="994" 
d="M540 0l-50 -16q0 15 3 37l7 49q14 95 50 193q39 106 91 179q84 118 189 118h6q46 0 74 -36q25 -32 25 -80v-15q0 -89 -74 -169q-52 -57 -120 -79q-20 -7 -41 -7q-56 0 -111 40l47 75q17 -89 84 -89q51 0 85 74q25 54 25 138q0 74 -50 74q-99 0 -179 -172
q-67 -144 -67 -260q0 -30 6 -54zM460 0l-127 -16q5 62 49 208q34 115 96 272l96 251q18 47 29 73q-13 4 -41 4q-70 0 -122 -25q-84 -41 -84 -113v-4q0 -29 10 -58l-115 -12q18 122 121 183q60 36 170 49q33 4 68 6l104 6q-46 -102 -92 -242q-5 -14 -33 -97l-38 -110
q-25 -69 -67 -207q-15 -58 -21 -106q-3 -24 -3 -62zM462 731l49 17q0 -66 -27 -174q-42 -169 -124 -284q-84 -119 -189 -119h-6q-66 0 -91 69q-8 21 -8 48v14q0 86 77 172q74 83 158 83q58 0 111 -40l-46 -75q-18 88 -84 88q-65 0 -93 -93q-18 -58 -18 -117q0 -76 50 -76
q55 0 99 50q102 116 141 318q7 37 7 65q0 30 -6 54z" />
    <glyph glyph-name="Otilde" unicode="&#xd5;" horiz-adv-x="912" 
d="M450 278v18h-2l-5 -8q-5 -9 -11 -21l-14 -25q-4 -8 -12 -22q-74 -123 -195 -196q-66 -40 -142 -40q-132 0 -144 147l140 82q-36 -49 -36 -90q0 -31 22.5 -51t53.5 -20q63 0 153 63q76 53 139 136q71 94 63 173q-12 100 -72 136q-27 16 -62 16h-4q-33 0 -73 -13l96 109
q93 -6 148 -71q62 -73 62 -210v-109q0 -256 137 -256q60 0 119 59l-2 2q0 -5 -38.5 -20.5t-45.5 -15.5q-79 0 -113 82q-25 58 -25 149q0 196 94 326q83 115 189 115q82 0 111 -74l-103 -71v18q0 54 -51 54q-43 0 -85 -34q-37 -30 -61 -72q-47 -83 -61 -181q-6 -38 -6 -81
q0 -214 113 -214q70 0 106 72l20 -9q-15 -48 -65 -93q-60 -54 -145 -54q-104 0 -152 90q-41 77 -41 204z" />
    <glyph glyph-name="Odieresis" unicode="&#xd6;" horiz-adv-x="874" 
d="M782 22l70 2q-22 -65 -35 -142q-5 -25 -5 -42q0 -38 20 -38h30l-4 -21l-148 -4q25 150 58 223l-178 -5q12 109 84 323q62 184 122 317h-61q-10 -49 -33 -120q-30 -96 -59 -193q-37 -112 -79 -184q-51 -87 -108 -125q-42 -29 -94 -29q-91 0 -125 84q-19 44 -19 94
q0 84 42 193q56 145 184 273h-54q-99 0 -159 -35q-69 -41 -69 -116q0 -20 10 -53l-114 -10v4q0 103 106 168q114 70 324 70h46q-27 -27 -60 -78q-80 -123 -119 -257q-21 -73 -21 -140q0 -48 16 -83q22 -46 64 -46t85 41q30 29 64 89q51 91 103 266q22 72 34 122q7 28 12 50
l7 36h184q-64 -141 -113 -284q-24 -70 -44 -158q-19 -83 -19 -138q0 -56 55 -54z" />
    <glyph glyph-name="multiply" unicode="&#xd7;" horiz-adv-x="874" 
d="M726 656h177q-64 -141 -113 -284q-24 -70 -44 -158q-19 -83 -19 -138q0 -35 17 -46q11 -6 50 -10l-6 -20l-198 -5q12 109 84 323q62 184 122 317h-52q-9 -28 -26 -83l-20 -57q-30 -88 -65 -138q-46 -65 -116 -95q-42 -18 -97 -18q-121 0 -162 70q-18 30 -18 70q0 22 9 49
q25 75 105 145q20 18 62 50q-73 0 -112 -8q-142 -29 -142 -143q0 -20 10 -53l-114 -10v4q0 103 106 168q114 70 324 70h46l-63 -57q-38 -34 -57 -63q-52 -78 -52 -144q0 -46 29 -76t75 -30q83 0 146 80q48 61 81 162q16 48 33 128z" />
    <glyph glyph-name="Oslash" unicode="&#xd8;" horiz-adv-x="1275" 
d="M756 -16q-60 0 -91 42q-28 37 -28 99q0 78 35 189q17 57 67 183q33 85 57 138h-61q-10 -49 -33 -120q-30 -96 -59 -193q-37 -112 -79 -184q-51 -87 -108 -125q-42 -29 -94 -29q-91 0 -125 84q-19 44 -19 94q0 84 42 193q56 145 184 273h-54q-99 0 -159 -35
q-69 -41 -69 -116q0 -20 10 -53l-114 -10v4q0 103 106 168q114 70 324 70h46q-27 -27 -60 -78q-80 -123 -119 -257q-21 -73 -21 -140q0 -48 16 -83q22 -46 64 -46t85 41q30 29 64 89q51 91 103 266q22 72 34 122q7 28 12 50l7 36h184q-120 -264 -157 -442q-8 -38 -8 -66
q0 -96 69 -96q78 0 150 131q53 97 103 265q31 105 52 208h184l-25 -60q-98 -232 -133 -382q-18 -78 -18 -138q0 -36 18 -46q7 -5 50 -10l-8 -20l-197 -5q4 48 29 141q50 183 120 361q33 85 58 138h-62q-7 -41 -23 -92l-9 -28q-20 -69 -65 -205q-30 -82 -45 -115
q-28 -63 -60 -107q-76 -104 -170 -104z" />
    <glyph glyph-name="Ugrave" unicode="&#xd9;" horiz-adv-x="1280" 
d="M1164 24h52q-22 -65 -35 -142q-5 -25 -5 -42q0 -38 20 -38h31l-5 -21l-147 -4l21 112q10 55 36 110l-149 -4q4 48 29 141q50 183 120 361q33 85 58 138h-62q-7 -41 -23 -92l-9 -28q-20 -69 -65 -205q-30 -82 -45 -115q-28 -63 -60 -107q-76 -104 -170 -104q-60 0 -91 42
q-28 37 -28 99q0 78 35 189q17 57 67 183q33 85 57 138h-61q-10 -49 -33 -120q-30 -96 -59 -193q-37 -112 -79 -184q-51 -87 -108 -125q-42 -29 -94 -29q-91 0 -125 84q-19 44 -19 94q0 84 42 193q56 145 184 273h-54q-99 0 -159 -35q-69 -41 -69 -116q0 -20 10 -53
l-114 -10v4q0 103 106 168q114 70 324 70h46q-27 -27 -60 -78q-80 -123 -119 -257q-21 -73 -21 -140q0 -48 16 -83q22 -46 64 -46t85 41q30 29 64 89q51 91 103 266q22 72 34 122q7 28 12 50l7 36h184q-120 -264 -157 -442q-8 -38 -8 -66q0 -96 69 -96q78 0 150 131
q53 97 103 265q31 105 52 208h184l-25 -60q-98 -232 -133 -382q-18 -78 -18 -138q0 -32 11.5 -42t32.5 -10z" />
    <glyph glyph-name="Uacute" unicode="&#xda;" horiz-adv-x="834" 
d="M491 356q117 0 178 -21q82 -28 116 -86q17 -29 17 -78q0 -72 -63 -127q-69 -60 -160 -60h-6q-153 0 -153 146q0 34 20 125q5 24 7 33l12 46h-39q-25 -80 -44 -166q-4 -17 -11 -52l-5 -30q-8 -39 -8 -86l-127 -16q9 75 40 177q28 86 56 173h-25q-123 0 -141 -96l-98 -10
q15 77 96 107q53 19 151 19h23q26 69 78 206q13 34 25 60q-15 4 -42 4q-71 0 -122 -25q-84 -42 -84 -113v-4q0 -32 11 -58l-115 -12q19 124 120 183q79 46 238 55l104 6l-28 -66q-11 -28 -59 -159q-15 -42 -25 -77h38q38 133 98 268l15 34h25q-11 -21 -49 -115
q-35 -87 -64 -185zM485 336q-39 -128 -39 -204v-3q0 -55 34 -89.5t89 -34.5q63 0 98 48q31 43 31 109q0 47 -20 86q-22 44 -61 62q-34 16 -66.5 19.5t-65.5 6.5z" />
    <glyph glyph-name="Ucircumflex" unicode="&#xdb;" horiz-adv-x="1229" 
d="M469 356q117 0 178 -21q82 -28 116 -86q17 -29 17 -78q0 -72 -63 -127q-69 -60 -160 -60h-6q-153 0 -153 146q0 34 20 125q5 24 7 33l12 46h-39q-25 -80 -44 -166q-4 -17 -11 -52l-5 -30q-8 -39 -8 -86l-127 -16q9 75 40 177q28 86 56 173h-25q-123 0 -141 -96l-98 -10
q15 77 96 107q53 19 151 19h23q26 69 78 206q13 34 25 60q-15 4 -42 4q-71 0 -122 -25q-84 -42 -84 -113v-4q0 -32 11 -58l-115 -12q19 124 120 183q79 46 238 55l104 6l-28 -66q-11 -28 -59 -159q-15 -42 -25 -77h38l26 76q39 117 72 192l15 34h25q-11 -21 -62 -148
q-6 -15 -42 -124q-8 -23 -9 -28zM463 336q-39 -128 -39 -204v-3q0 -55 34 -89.5t89 -34.5q63 0 98 48q31 43 31 109q0 47 -20 86q-22 44 -61 62q-34 16 -66.5 19.5t-65.5 6.5zM932 0l-127 -16q17 131 82 325q51 153 123 311q-15 4 -42 4q-47 0 -76 -8q-74 -21 -111 -72
q-19 -27 -19 -58v-4q0 -28 11 -58l-115 -12q18 128 123 185q74 39 168 48q22 2 67 5l166 6q-92 -189 -141 -415q-17 -79 -17 -143q0 -45 22 -98l-50 -10q-9 45 -9 92q0 93 59 276q35 108 78 216q12 30 23 54h-39q-97 -224 -152 -460q-11 -47 -15 -86l-4 -38q-2 -20 -5 -44z
" />
    <glyph glyph-name="Udieresis" unicode="&#xdc;" horiz-adv-x="874" 
d="M469 356q117 0 178 -21q82 -28 116 -86q17 -29 17 -78q0 -72 -63 -127q-69 -60 -160 -60h-6q-153 0 -153 146q0 34 20 125q5 24 7 33l12 46h-39q-33 -109 -55 -218q-10 -49 -12 -82q-1 -14 -1 -34l-127 -16q9 75 41 177q27 87 55 173h-25q-123 0 -141 -96l-98 -10
q15 77 96 107q53 19 151 19h23q3 7 51 134l27 72q13 34 25 60q-15 4 -42 4q-71 0 -122 -25q-84 -42 -84 -113v-4q0 -32 11 -58l-115 -12q19 124 120 183q79 46 238 55l104 6l-28 -66q-11 -28 -59 -159q-15 -42 -25 -77h38q38 133 98 268l15 34h25q-11 -21 -49 -115
q-35 -87 -64 -185zM463 336q-39 -128 -39 -204v-3q0 -55 34 -89.5t89 -34.5q63 0 98 48q31 43 31 109q0 47 -20 86q-22 44 -61 62q-34 16 -66.5 19.5t-65.5 6.5z" />
    <glyph glyph-name="Yacute" unicode="&#xdd;" horiz-adv-x="666" 
d="M444 358h54q1 3 3 10q12 56 12 105q0 68 -25 116q-32 59 -93 63l-2 -11q74 -36 74 -149q0 -42 -20 -122zM465 270q11 23 23 59h-55q-48 -118 -130 -189q-53 -46 -114 -64l-28 76q66 2 118 38q65 45 114 140h-141q-22 0 -51 -17t-52 -27l28 72q40 2 80 1t80 -1h67l15 52
q15 52 15 99q0 126 -88 126q-56 0 -143 -78q-43 -38 -70 -71l24 136q55 22 144 41q42 9 95 9q76 0 132 -37t81 -107q16 -46 16 -93q0 -137 -95 -261q-60 -77 -137 -126q-102 -64 -202 -64q-130 0 -229 62l12 42q97 -58 187 -58q88 0 171 67t133 173z" />
    <glyph glyph-name="Thorn" unicode="&#xde;" horiz-adv-x="1229" 
d="M956 645l4 13q-126 -31 -210 -172q-78 -130 -78 -283q0 -74 28 -127q35 -66 101 -66q120 0 209 163q76 139 76 275q0 113 -50 170q-19 21 -49 21q-35 0 -75 -38q-73 -69 -109 -186q-19 -60 -19 -115q0 -142 126 -142l-72 -77q-51 9 -80 67q-26 51 -26 115q0 89 39 175
q44 100 97 152q41 40 88 55zM467 354h103q24 83 105 171q136 147 302 147q103 0 169 -68q62 -64 62 -172q0 -116 -78 -235q-61 -92 -147 -150q-96 -63 -197 -63h-8q-50 0 -92 17q-87 35 -122 126q-18 46 -18 99q0 52 17 108h-104q-37 -104 -37 -246q0 -39 22 -88l-50 -10
q-9 45 -9 92q0 87 51 252h-38q-25 -80 -44 -166q-4 -17 -11 -52l-5 -30q-8 -39 -8 -86l-127 -16q9 75 40 177q28 86 56 173h-25q-123 0 -141 -96l-98 -10q15 77 96 107q53 19 151 19h23q26 69 78 206q13 34 25 60q-15 4 -42 4q-71 0 -122 -25q-84 -42 -84 -113v-4
q0 -32 11 -58l-115 -12q19 124 120 183q79 46 238 55l104 6l-28 -66q-11 -28 -59 -159q-15 -42 -25 -77h38q10 44 52 153q26 69 46 115l15 34h25q-13 -24 -62 -148q-30 -75 -53 -154z" />
    <glyph glyph-name="germandbls" unicode="&#xdf;" horiz-adv-x="778" 
d="M411 649q25 5 56 5q66 1 104 -28q42 -32 43 -96q0 -14 -2 -25l148 1q-127 -275 -127 -430q0 -35 17 -46q11 -6 50 -10l-6 -20l-198 -5q5 63 28 141q40 136 71 211l32 78q14 34 27 61l-44 -2q-17 -92 -118 -246q-96 -147 -217 -202q-75 -35 -171 -35q-58 0 -104 17l96 105
q59 -40 117 -40q157 0 274 187q32 51 43 88q24 77 24 126h-20q-8 -31 -16 -63q-11 -38 -22 -59q-35 -66 -83 -93q-41 -22 -105 -26q-8 -1 -12 -1q-63 0 -106 32q-48 35 -46 96q4 116 116 208q19 15 45 30q51 30 106 41zM295 537q-25 -47 -25 -120q0 -124 84 -124
q98 0 144 119q5 14 12 48q2 15 8 44h34q-5 55 -34 90q-33 38 -86 38q-42 0 -81 -29q-35 -26 -56 -66z" />
    <glyph glyph-name="agrave" unicode="&#xe0;" horiz-adv-x="545" 
d="M658 280l-15 -46q-77 -109 -129 -159q-95 -91 -178 -91q-25 0 -42 13q-20 15 -20 39q0 22 8 47l68 210h-11q-47 -128 -99 -197q-84 -112 -180 -112q-72 0 -72 92q0 121 112 250q52 60 104.5 95t98.5 35q65 0 65 -62q0 -16 -2 -22h9l25 76l110 8l-110 -344
q-10 -31 -10 -38q0 -13 8 -22q8 -14 22 -14q27 0 80 50q49 44 114 131q14 21 44 61zM133 47h4q24 0 59 37q24 25 53 70q73 111 73 170q0 90 -64 90q-65 0 -121 -130q-44 -103 -44 -178q0 -59 40 -59z" />
    <glyph glyph-name="aacute" unicode="&#xe1;" horiz-adv-x="524" 
d="M184 192q0 -95 79 -130q49 42 77 114q26 67 26 136q0 81 -44 81q-50 0 -95 -67q-43 -63 -43 -128v-6zM167 228h-7l-28 -84q-13 -39 -13 -66q0 -58 65 -58q4 0 21.5 6t20.5 9q-62 56 -62 149q0 18 3 44zM223 475l-41 -169h8q31 61 80 105.5t122 44.5q94 0 94 -98
q0 -82 -65 -173q-54 -76 -135 -134q32 -9 54 -9q83 0 173 88q43 42 128 154l-15 -46l-27 -36q-97 -126 -187 -177q-45 -25 -96 -25q-37 0 -72 22q-68 -38 -128 -38q-41 0 -67 17q-31 20 -31 59q0 28 21 90q15 46 31 92l57 185q61 198 180 275q91 59 191 59q20 0 81 -11.5
t79 -11.5q91 0 102 94l24 4q-27 -113 -100 -164q-33 -23 -82 -23q-38 0 -93 11l-92 20q-36 6 -59 6q-61 1 -87 -46q-18 -33 -30 -81z" />
    <glyph glyph-name="acircumflex" unicode="&#xe2;" horiz-adv-x="524" 
d="M184 192q0 -95 79 -130q49 42 77 114q26 67 26 136q0 81 -44 81q-50 0 -95 -67q-43 -63 -43 -128v-6zM167 228h-7l-28 -84q-13 -39 -13 -66q0 -58 65 -58q4 0 21.5 6t20.5 9q-62 56 -62 149q0 18 3 44zM276 574q53 -23 168 -23q60 0 129 49q75 53 75 110q0 54 -99 54
q-47 0 -97 -12q-112 -27 -176 -178zM39 686l-15 56q58 -76 126 -113q24 -13 55 -29q46 72 115 117q52 34 142 58q82 21 154 21q49 0 85 -11q55 -17 57 -54q4 -88 -119 -153q-106 -55 -215 -54q-93 1 -158 27l-84 -245h8q31 61 80 105.5t122 44.5q94 0 94 -98q0 -82 -65 -173
q-54 -76 -135 -134q32 -9 54 -9q83 0 173 88q43 42 128 154l-15 -46l-27 -36q-97 -126 -187 -177q-45 -25 -96 -25q-37 0 -72 22q-68 -38 -128 -38q-41 0 -67 17q-31 20 -31 59q0 28 21 90q15 46 31 92l57 185q25 80 67 153q-53 21 -113 71z" />
    <glyph glyph-name="atilde" unicode="&#xe3;" horiz-adv-x="388" 
d="M41 293l25 96q57 39 124 57q45 12 96 12q95 0 95 -52q0 -73 -86 -149q-47 -41 -84 -50q-55 -14 -67 -19q-39 -16 -48 -44q-2 -7 -2 -17q0 -90 94 -90q110 0 234 121q39 37 98 122l-16 -46q-75 -109 -172 -176q-47 -33 -109 -54q-58 -20 -125 -20q-114 0 -114 96
q0 76 54 116q49 36 128 36q116 0 116 145q0 57 -30 57q-54 0 -120 -55q-56 -47 -84 -89z" />
    <glyph glyph-name="adieresis" unicode="&#xe4;" horiz-adv-x="545" 
d="M664 282l-15 -46q-30 -46 -55.5 -78.5t-67.5 -72.5q-75 -73 -162 -99q-30 -117 -109.5 -180t-200.5 -63q-95 0 -153 30q-22 12 -36 31q-17 19 -17 46q0 86 164 155q-19 38 -19 71q0 106 91 225q72 93 156 135q41 20 76 20q59 0 59 -58q0 -4 -1.5 -13t-1.5 -13h9l21 74
l115 10q-38 -89 -69 -188q-18 -61 -53 -182q-7 -22 -16 -53q72 7 161 94q34 34 100 121q14 18 24 34zM102 108q0 -21 8 -39q11 -22 30 -22q40 0 94 75q94 128 94 212q0 32 -17.5 56t-48.5 24q-37 0 -69 -39q-24 -29 -47 -82q-44 -102 -44 -185zM280 45l76 248h-13
q-47 -132 -93 -199q-76 -110 -178 -110q-23 0 -46 13q-84 -62 -84 -125q0 -52 40 -82q36 -26 90 -26q102 0 164 144q8 21 44 137z" />
    <glyph glyph-name="aring" unicode="&#xe5;" horiz-adv-x="388" 
d="M520 280l-16 -46q-75 -109 -172 -176q-47 -33 -109 -54q-58 -20 -125 -20q-114 0 -114 96q0 58 34 129q29 61 73 113q113 134 231 134q59 0 59 -50q0 -67 -85 -153q-90 -91 -186 -91h-12q-4 -24 -4 -40q0 -85 94 -85q110 0 234 121q39 37 98 122zM110 215q26 -10 50 -10
h4q24 0 45 13q73 45 73 159q0 47 -28 47q-42 0 -91 -89q-33 -59 -53 -120z" />
    <glyph glyph-name="ae" unicode="&#xe6;" horiz-adv-x="834" 
d="M532 246h30q46 0 89 30q47 33 47 78v4q0 35 -32 35q-34 0 -78 -58q-30 -39 -56 -89zM319 253l7 9q11 33 11 70q0 68 -55 68q-28 0 -58 -24.5t-30 -51.5q0 -33 42 -54q38 -19 83 -17zM347 253h23l84 262q13 38 34 116q10 44 10 63q0 27 -20 34q-7 3 -44 6l8 22l194 10
l-245 -756h17q55 192 150 335q74 111 154 111q29 0 49.5 -21t20.5 -50q0 -60 -49 -99q-35 -27 -105 -50q-6 -1 -16 -4q0 -46 23 -107q28 -78 69 -78q60 0 144 91q32 35 88 112q11 16 20 28l-16 -46q-68 -98 -127 -155q-94 -93 -164 -93q-57 0 -88 78q-21 50 -31 115
q-5 27 -8 47h-2q-16 0 -49 -93q-15 -44 -45 -131l-146 -16q6 17 17 52l14 42q9 30 17 52l36 102h-30q-62 -86 -105 -128q-60 -60 -134 -93q-34 -15 -71 -15q-100 0 -100 78l25 16q-3 -12 -3 -18q0 -26 18.5 -41t44.5 -15q49 0 129 86q75 80 107 140q-27 3 -60 28
q-45 31 -45 68q0 57 44 94q33 28 74 28q63 0 90 -49q16 -31 16 -72q0 -40 -17 -86z" />
    <glyph glyph-name="ccedilla" unicode="&#xe7;" horiz-adv-x="545" 
d="M408 400q2 -46 -45 -127q-30 -52 -83 -119q10 2 21 2q32 0 57 -18.5t30 -49.5q4 -23 -9 -55q68 9 138 73t147 176l-15 -46q-102 -151 -198 -210q-41 -26 -87 -40q-30 -117 -109.5 -180t-200.5 -63q-95 0 -153 30q-22 12 -36 31q-17 19 -17 46q0 86 164 155l14 -8
q-30 -20 -57 -51.5t-27 -73.5q0 -52 40 -82q36 -26 90 -26q86 0 142 99q23 43 39 91l21 65q8 24 8 49q0 36 -23 36q-31 0 -105 -63l-8 37q112 59 161 172q11 26 11 68q0 96 -56 96q-38 0 -70 -40q-24 -30 -46 -81q-20 -46 -32 -101t-12 -84l-76 99q70 140 187 214
q68 43 130 43q63 0 65 -64z" />
    <glyph glyph-name="egrave" unicode="&#xe8;" 
d="M340 134l100 301h-12q-159 -451 -338 -451q-64 0 -64 62q0 26 21 88l39 116q30 89 30 141q0 33 -54 33l6 22l194 10q-15 -30 -26 -63l-88 -262q-11 -33 -11 -53q0 -12 8 -21.5t19 -9.5q43 0 89 59q31 39 65 111q50 106 72 172q6 19 20 57l143 10q-7 -24 -25 -73l-15 -40
q-2 -5 -11 -31l-62 -181q-10 -29 -10 -53q0 -31 26 -31q56 0 138 97q34 47 104 140l-16 -46q-6 -16 -24 -40l-30 -38q-72 -97 -154 -148q-46 -28 -91 -28q-63 0 -63 62q0 28 20 88z" />
    <glyph glyph-name="eacute" unicode="&#xe9;" 
d="M340 134l100 301h-12q-159 -451 -338 -451q-64 0 -64 62q0 26 21 88l39 116q30 89 30 141q0 33 -54 33l6 22l194 10q-15 -30 -26 -63l-88 -262q-11 -33 -11 -53q0 -12 8 -21.5t19 -9.5q43 0 89 59q31 39 65 111q50 106 72 172q6 19 20 57l143 10q-7 -24 -25 -73l-15 -40
q-2 -5 -11 -31l-62 -181q-10 -29 -10 -53q0 -31 26 -31q56 0 138 97q34 47 104 140l-16 -46q-6 -16 -24 -40l-30 -38q-72 -97 -154 -148q-46 -28 -91 -28q-63 0 -63 62q0 28 20 88zM238 684l15 7l48 20q0 -76 22 -108q36 -52 84 -50q45 2 88 39q25 21 42 43l22 6
q-10 -14 -32 -42q-9 -11 -19 -20q-77 -74 -157 -69t-108 85q-8 22 -9 46q-1 18 4 43z" />
    <glyph glyph-name="ecircumflex" unicode="&#xea;" horiz-adv-x="545" 
d="M250 246h30q61 0 110 49q26 27 26 59v4q0 14 -9 24.5t-23 10.5q-35 0 -79 -58q-26 -35 -55 -89zM144 0l-146 -16q2 8 6 21l10 31q11 31 32 94l125 385q45 139 45 179q0 25 -21 34q-9 3 -43 6l8 22l194 10l-246 -756h17q54 190 151 335q74 111 153 111q29 0 50 -21t21 -50
q0 -60 -50 -99q-34 -27 -105 -50q-1 -2 -6 -2q-9 0 -6 -29q5 -44 26 -94q28 -64 63 -64q60 0 144 93q39 42 88 110q11 16 20 28l-16 -46l-56 -74q-71 -94 -152 -146q-44 -28 -84 -28q-62 0 -96 95q-14 39 -20 79l-10 66h-2q-13 0 -38 -64q-4 -8 -34 -96z" />
    <glyph glyph-name="edieresis" unicode="&#xeb;" horiz-adv-x="562" 
d="M466 312l-72 -225q-4 -13 -4 -23q0 -22 27 -22q57 0 140 95q22 25 54 71q38 55 51 72l-15 -46q-123 -167 -210 -222q-44 -28 -95 -28q-62 0 -62 52q0 26 28 110l56 168q12 36 12 61q0 23 -22 23q-39 0 -83 -51q-27 -31 -50 -74q-45 -80 -65 -133q-12 -33 -23 -66
q-17 -44 -34 -58q-24 -19 -66 -24q-35 -4 -71 -8q17 35 39 108q7 23 17 54q15 4 56 6q36 3 56 11q16 7 31 33l20 42q16 33 24 48q97 170 225 170q23 0 39.5 -12t16.5 -34v-13q0 -7 -2 -15q-3 -24 -18 -70z" />
    <glyph glyph-name="igrave" unicode="&#xec;" horiz-adv-x="853" 
d="M136 58q-16 -48 -68 -62l-96 -12q17 35 39 108q7 23 17 54q15 4 56 6q36 3 56 11q16 7 31 33l20 42q16 33 24 48q97 170 225 170q23 0 39.5 -12t16.5 -34q0 -33 -8 -58l-110 -342h10q39 134 120 276q40 71 93 115q64 55 133 55q54 0 54 -48q0 -24 -11 -58l-76 -234
q-8 -25 -8 -48q0 -26 19 -26q45 0 108 63q44 44 93 113l26 36q11 16 18 26l-16 -46q-106 -161 -213 -224q-45 -26 -92 -26q-21 0 -37.5 13t-16.5 33q0 27 10 58l72 226q14 44 14 58q0 26 -26 26q-49 0 -104 -86q-41 -63 -80 -153q-23 -54 -48 -120q-9 -24 -14 -39l-143 -16
q5 10 19 50q12 37 36 112l56 168q12 36 12 61q0 23 -22 23q-39 0 -83 -51q-27 -31 -50 -74q-45 -80 -65 -133q-19 -48 -30 -82z" />
    <glyph glyph-name="iacute" unicode="&#xed;" horiz-adv-x="591" 
d="M293 250h90q31 100 31 141q0 33 -56 33l6 22l195 10q-24 -45 -40 -102q-4 -14 -13 -42l-64 -196q-12 -37 -12 -52q0 -22 26 -22q36 0 72 28q32 25 69 67q22 25 54 71q38 55 51 72l-15 -46l-28 -36q-32 -42 -102 -122q-93 -92 -175 -92q-62 0 -62 52q0 23 22 89l18 52
q8 25 12 38l-90 -1q-53 -10 -74 -55q-25 -53 -42 -102l-20 -57l-143 -16q17 36 57 162l33 104q31 98 31 141q0 33 -54 33l6 22l194 10q-17 -34 -54 -144l-100 -302h13q9 26 27 79q17 46 40 95q17 36 35 48t62 18z" />
    <glyph glyph-name="icircumflex" unicode="&#xee;" horiz-adv-x="486" 
d="M612 284l-16 -46q-82 -107 -140 -156q-98 -82 -188 -82q-32 0 -59 16l-52 -21q-30 -11 -63 -11q-102 0 -102 103q0 111 112 235q121 134 242 134q104 0 104 -100q0 -78 -78 -187q-49 -68 -92 -100q-22 -17 -22 -24q0 -8 31 -8q54 0 105 30q87 51 156 140l33 42
q15 19 29 35zM167 173q0 -89 65 -121q32 32 57 83q52 108 52 206q0 73 -43 73q-35 0 -73 -55q-32 -47 -47 -103q-11 -40 -11 -77v-6zM270 422l4 9q-31 -10 -64 -39q-67 -60 -98 -158q-16 -51 -16 -100q0 -40 14 -70q18 -38 54 -38q8 0 6 15q-3 14 -9 35l-14 42q-7 22 -7 38
q0 58 23 120.5t61 105.5q24 26 46 40z" />
    <glyph glyph-name="idieresis" unicode="&#xef;" 
d="M146 0l-143 -16q17 36 57 162l33 104q31 98 31 141q0 33 -54 33l6 22l194 10q-17 -34 -54 -144l-100 -302h13q9 26 27 79q36 103 88 189q66 111 137 155q37 23 82 23q65 0 65 -48q0 -27 -10 -58l-76 -234q-9 -28 -9 -48q0 -26 19 -26q54 0 139 97q34 39 63 79l44 62
l-16 -46q-99 -157 -215 -224q-45 -26 -92 -26q-21 0 -36 13t-15 33q0 26 10 58l70 226q14 45 14 58q0 26 -25 26q-41 0 -88 -60q-37 -48 -86 -156l-21 -45q-20 -44 -32 -80z" />
    <glyph glyph-name="eth" unicode="&#xf0;" horiz-adv-x="545" 
d="M76 -244l-155 -13q10 26 18 51l17 48l15 42q5 14 13 39l106 327q29 89 29 141q0 33 -53 33l6 22l193 10q-6 -12 -16 -37q-17 -41 -25 -70q0 -2 -12 -37l-178 -546h22q63 239 124 402q49 131 107 202q22 27 43 46q43 40 96 40q86 0 86 -107q0 -80 -53 -180
q-47 -87 -122 -147q-48 -38 -97 -38t-74 34l68 56v-14q0 -40 42 -40q34 0 62 44q23 36 36 84q17 61 26 137q2 21 2 37q0 55 -30 55q-42 0 -96 -88q-40 -66 -82 -179l-35 -96q-56 -156 -83 -258z" />
    <glyph glyph-name="ntilde" unicode="&#xf1;" horiz-adv-x="388" 
d="M524 280l-16 -46q-101 -122 -173 -174q-106 -76 -227 -76q-122 0 -122 102q0 49 35 120q29 57 68 106q115 144 241 144q30 0 86 -14l-44 -92q-7 80 -79 80q-56 0 -109 -71q-36 -47 -61 -111q-27 -70 -27 -124q0 -82 90 -82q70 0 148 51q75 48 190 187z" />
    <glyph glyph-name="ograve" unicode="&#xf2;" horiz-adv-x="874" 
d="M150 0l-144 -16q9 20 56 162l34 104q31 95 31 141q0 33 -55 33l7 22l193 10q-22 -48 -53 -144l-98 -302h11q48 137 72 190q47 104 108 172q75 84 162 84q23 0 39.5 -12t16.5 -34q0 -33 -8 -58l-110 -342h10q39 134 120 276q40 71 93 115q64 55 133 55q54 0 54 -48
q0 -24 -11 -58l-76 -234q-8 -25 -8 -48q0 -26 19 -26q45 0 108 63q44 44 93 113l26 36q11 16 18 26l-16 -46q-106 -161 -213 -224q-45 -26 -92 -26q-21 0 -37.5 13t-16.5 33q0 27 10 58l72 226q14 44 14 58q0 26 -26 26q-52 0 -107 -89q-40 -65 -77 -150q-23 -54 -48 -120
q-9 -24 -14 -39l-143 -16q5 10 19 50q12 37 36 112l56 168q12 36 12 61q0 23 -22 23q-56 0 -111.5 -90t-86.5 -168q-34 -86 -50 -140z" />
    <glyph glyph-name="oacute" unicode="&#xf3;" 
d="M400 -12l-10 -32q-67 -213 -290 -213q-71 0 -120 21q-67 29 -67 90q0 63 75 116q35 25 134 65q-10 21 -12 79l-8 198q-3 80 -19 98q-9 10 -29 13q-17 0 -34 1l6 22l168 10l9 -335q2 -69 20 -69q20 0 43 31q36 48 71 146q15 43 31 91l25 78q11 34 15 48l147 10l-139 -421
q64 5 128 59q55 47 130 155q13 19 26 35l-16 -46q-102 -149 -196 -213q-40 -28 -88 -37zM280 -60l158 495h-14q-20 -69 -66 -205l-20 -52q-26 -67 -59 -117q-51 -77 -98 -77q-29 0 -50 30q-124 -56 -124 -148q0 -46 30.5 -74t76.5 -28q110 0 166 176z" />
    <glyph glyph-name="ocircumflex" unicode="&#xf4;" horiz-adv-x="787" 
d="M363 370h12l60 190q30 95 30 140q0 34 -54 34l6 22l194 10q-27 -60 -54 -144l-274 -856h22q64 242 128 402q67 168 154 248q43 40 98 40q76 0 76 -102q0 -83 -54 -182q-51 -95 -120 -150q-47 -38 -98 -38q-49 0 -74 34l68 56v-14q0 -40 42 -40q36 0 66 43q23 32 40 83
q21 63 30 144q2 18 2 32q0 55 -30 55q-50 0 -116 -112q-42 -71 -74 -155q-68 -177 -118 -354l-155 -13q17 45 49 137l8 23q2 7 6 20l116 370h-16q-29 -98 -94 -187q-90 -122 -182 -122q-76 0 -76 92q0 120 116 254q109 126 206 126q60 0 60 -66v-20zM93 114q0 -67 33 -67
q47 0 119 105.5t72 179.5q0 33 -17 57.5t-49 24.5q-64 0 -116 -120q-42 -97 -42 -174v-6z" />
    <glyph glyph-name="otilde" unicode="&#xf5;" horiz-adv-x="622" 
d="M738 280l-15 -46q-59 -81 -153 -155q-120 -95 -208 -95q-92 0 -104 128q-3 33 -3 59h-2q-3 0 -19 -28q-7 -13 -20 -35q-60 -89 -113 -113q-24 -11 -53 -11q-31 0 -54 32l70 68v-10q0 -32 30 -32q41 0 95 71q36 48 66 104v92q0 33 -1 37q-3 26 -18 26h-4q-21 0 -69 -50
q-32 -33 -65 -78l12 36q14 42 73 105q68 71 113 71q53 0 55 -68v-43v-61h3q2 0 34 45q14 21 44 59q64 68 121 68q30 0 51 -25l-46 -65q-9 24 -43 22q-65 -4 -112 -74q-25 -36 -51 -68v-40v-14q-1 -10 -1 -16v-10q0 -69 21 -102q14 -22 44 -22q42 0 90 26q55 30 91 61
q76 66 141 151z" />
    <glyph glyph-name="odieresis" unicode="&#xf6;" 
d="M538 39l24 43l-5 -5q-93 -93 -174 -93q-63 0 -63 62q0 28 20 88l100 301h-12q-159 -451 -338 -451q-64 0 -64 62q0 26 21 88l39 116q30 89 30 141q0 33 -54 33l6 22l194 10q-15 -30 -26 -63l-88 -262q-11 -33 -11 -53q0 -12 8 -21.5t19 -9.5q43 0 89 59q31 39 65 111
q50 106 72 172q6 19 20 57l143 10q-7 -24 -25 -73l-15 -40q-2 -5 -11 -31l-62 -181q-10 -29 -10 -53q0 -31 26 -31q56 0 138 97q34 47 104 140l-16 -46q-6 -16 -24 -40l-30 -38q-30 -41 -39 -55q-19 -31 -29 -61q-9 -25 -9 -52q0 -19 2.5 -58t2.5 -60q-1 -74 -36 -132
t-104 -58q-36 0 -58 7l58 109q24 -10 46 -9q61 2 68 84q2 23 2 44q0 13 -2 39t-2 39q3 30 10 42z" />
    <glyph glyph-name="divide" unicode="&#xf7;" horiz-adv-x="459" 
d="M222 504q14 29 14 60q0 23 -9 43q-11 25 -31 25q-43 0 -75 -84q-30 -76 -30 -142q0 -40 13 -73q78 90 118 171zM246 498q-61 -111 -134 -180q22 -38 51 -38q37 0 78 66q32 53 43 100l143 10q-7 -24 -25 -73l-15 -40q-2 -5 -11 -31l-62 -181q-10 -29 -10 -53q0 -31 26 -31
q56 0 138 97q34 47 104 140l-16 -46q-6 -16 -24 -40l-30 -38q-72 -97 -154 -148q-46 -28 -91 -28q-63 0 -63 62q0 28 20 88l100 301h-12q-53 -113 -58 -121q-39 -65 -94 -93q-18 -9 -32 -9q-42 0 -52 64q-59 -49 -104 -65l4 23l62 30q11 5 34 26q-2 35 -2 49q2 67 23 145
q22 82 57 136q56 87 112 88q45 1 45 -63q0 -55 -51 -147z" />
    <glyph glyph-name="oslash" unicode="&#xf8;" horiz-adv-x="874" 
d="M456 47q41 0 87 55q33 39 69 115q45 93 71 172q7 19 19 57l144 10q-3 -10 -41 -113q-6 -18 -11 -31l-61 -181q-10 -30 -10 -53q0 -12 8 -21.5t19 -9.5q47 0 108 63q39 39 89 112q14 21 43 62l-15 -46q-66 -102 -125 -161q-93 -93 -174 -93q-64 0 -64 62q0 25 21 88
l100 301h-12q-159 -451 -338 -451q-63 0 -63 62q0 28 20 88l100 301h-12q-159 -451 -338 -451q-64 0 -64 62q0 26 21 88l39 116q30 89 30 141q0 33 -54 33l6 22l194 10q-15 -30 -26 -63l-88 -262q-11 -33 -11 -53q0 -12 8 -21.5t19 -9.5q43 0 89 59q31 39 65 111
q50 106 72 172q6 19 20 57l143 10q-7 -24 -25 -73l-15 -40q-2 -5 -11 -31l-62 -181q-10 -29 -10 -53q0 -11 8 -21t18 -10z" />
    <glyph glyph-name="ugrave" unicode="&#xf9;" horiz-adv-x="874" 
d="M826 39l16 29q-91 -84 -166 -84q-64 0 -64 62q0 25 21 88l100 301h-12q-159 -451 -338 -451q-63 0 -63 62q0 28 20 88l100 301h-12q-159 -451 -338 -451q-64 0 -64 62q0 26 21 88l39 116q30 89 30 141q0 33 -54 33l6 22l194 10q-15 -30 -26 -63l-88 -262q-11 -33 -11 -53
q0 -12 8 -21.5t19 -9.5q43 0 89 59q31 39 65 111q50 106 72 172q6 19 20 57l143 10q-7 -24 -25 -73l-15 -40q-2 -5 -11 -31l-62 -181q-10 -29 -10 -53q0 -11 8 -21t18 -10q41 0 87 55q33 39 69 115q45 93 71 172q7 19 19 57l144 10q-3 -10 -41 -113q-6 -18 -11 -31l-61 -181
q-10 -30 -10 -53q0 -12 8 -21.5t19 -9.5q47 0 108 63q39 39 89 112q14 21 43 62l-15 -46q-16 -27 -47 -67q-43 -55 -50 -65q-40 -56 -40 -114q0 -19 2.5 -58t2.5 -60q-1 -74 -36 -132q-15 -26 -45 -42t-60 -16q-36 0 -57 7l57 109q28 -9 46 -9q63 2 69 84q1 23 1 44
q0 12 -1.5 38t-1.5 40q1 23 11 42z" />
    <glyph glyph-name="uacute" unicode="&#xfa;" horiz-adv-x="497" 
d="M112 490q-13 -32 -18 -44l194 10q-15 -30 -26 -63l-88 -262q-11 -33 -11 -53q0 -56 41 -56q30 0 74 26q41 25 57 52q21 36 21 62q-1 28 -21 48t-48 20q-19 0 -33 -11l-36 -23l13 38q76 42 142 42q88 0 88 -63q0 -76 -44 -119q-113 -110 -301 -110q-64 0 -64 62
q0 26 21 88l39 116q30 89 30 141q0 21 -19 27q-9 2 -37 2q-57 -168 -62 -176q-4 0 -16 4l59 171q-77 0 -77 73q0 30 28 98q33 80 76 80q44 0 44 -70q0 -43 -26 -110zM75 442l11 29q12 32 12 71q0 54 -24 54t-40.5 -29.5t-16.5 -57.5q0 -64 58 -67z" />
    <glyph glyph-name="ucircumflex" unicode="&#xfb;" horiz-adv-x="712" 
d="M828 280l-14 -46l-60 -79q-70 -92 -150 -143q-44 -28 -95 -28q-63 0 -63 52q0 18 30 110l34 104q30 92 30 141q0 33 -54 33l6 22l194 10q-11 -23 -39 -101q-2 -6 -14 -43l-63 -196q-13 -40 -13 -52q0 -22 27 -22q58 0 140 95q39 45 104 143zM309 100q21 36 21 62
q-1 28 -21 48t-48 20q-19 0 -33 -11l-36 -23l13 38q76 42 142 42q88 0 88 -63q0 -76 -44 -119q-113 -110 -301 -110q-64 0 -64 62q0 26 21 88l39 116q30 89 30 141q0 33 -54 33l6 22l194 10q-15 -30 -26 -63l-88 -262q-11 -33 -11 -53q0 -56 41 -56q30 0 74 26q41 25 57 52z
" />
    <glyph glyph-name="udieresis" unicode="&#xfc;" horiz-adv-x="459" 
d="M309 100q21 36 21 62q-1 28 -21 48t-48 20q-19 0 -33 -11l-36 -23l13 38q76 42 142 42q88 0 88 -63q0 -76 -44 -119q-113 -110 -301 -110q-64 0 -64 62q0 26 21 88l39 116q30 89 30 141q0 33 -54 33l6 22l194 10q-15 -30 -26 -63l-88 -262q-11 -33 -11 -53q0 -56 41 -56
q30 0 74 26q41 25 57 52z" />
    <glyph glyph-name="yacute" unicode="&#xfd;" horiz-adv-x="486" 
d="M324 230l2 6q15 45 15 105q0 73 -43 73q-35 0 -73 -55q-30 -44 -47 -103l-6 71q17 34 41 61q20 23 66 46q50 26 91 26t62 -33q18 -28 18 -71q0 -78 -78 -187q-38 -51 -96 -106q-16 -15 -24 -20q15 -5 36 -5q56 0 98 24q91 51 164 145l33 42q15 19 29 35l-16 -46
q-82 -107 -140 -156q-98 -82 -188 -82q-32 0 -59 16l-52 -21q-30 -11 -63 -11q-102 0 -102 103q0 67 30 115l13 -16q-1 1 -2 -30q-1 -57 43 -96q37 -34 80 -34q66 0 114 76q18 29 38 79q4 11 6 15h-175q-31 0 -57 21l34 57q7 -28 36 -35q86 -9 172 -9z" />
    <glyph glyph-name="thorn" unicode="&#xfe;" horiz-adv-x="731" 
d="M421 173q0 -89 65 -121q32 32 57 83q52 108 52 206q0 73 -43 73q-35 0 -73 -55q-32 -47 -47 -103q-11 -40 -11 -77v-6zM524 422l4 9q-31 -10 -64 -39q-66 -59 -98 -158q-16 -50 -16 -100q0 -38 15 -69q19 -39 53 -39q7 0 4 15q-2 9 -16 59q-12 39 -12 56q0 58 23 120.5
t61 105.5q18 20 46 40zM284 216q-56 -14 -86 -79q-19 -41 -32 -80l-20 -57l-143 -16q17 36 57 162l33 104q31 98 31 141q0 33 -54 33l6 22l194 10q-17 -34 -54 -144l-100 -302h13q9 26 27 79q17 46 40 95q17 36 35 48t62 18h10q73 110 169 168q63 38 128 38q104 0 104 -100
q0 -78 -78 -187q-49 -67 -92 -100q-22 -17 -22 -24q0 -8 30 -8q55 0 106 30q87 51 156 140l33 42q15 19 29 35l-16 -46q-82 -107 -140 -156q-98 -82 -189 -82q-31 0 -58 16l-52 -21q-30 -11 -63 -11q-102 0 -102 103q0 64 38 129z" />
    <glyph glyph-name="ydieresis" unicode="&#xff;" 
d="M-3 -14l49 137l94 -4q15 -46 46 -46q37 0 86 63q40 51 54 92l-98 -21q-5 -1 -15 -1h-19q-98 0 -98 62q0 53 42 94q39 38 94 48q150 28 321 46q-17 -43 -40 -113l-11 -31l-62 -181q-10 -29 -10 -53q0 -31 26 -31q56 0 138 97q34 47 104 140l-16 -46q-6 -16 -24 -40
l-30 -38q-72 -97 -154 -148q-46 -28 -91 -28q-63 0 -63 62q0 28 20 88l96 288l-94 -9q-46 -4 -89.5 -53.5t-43.5 -89.5t31 -40q59 0 118 38q-43 -130 -130 -201q-98 -81 -231 -81z" />
    <glyph glyph-name="dotlessi" unicode="&#x131;" horiz-adv-x="291" 
d="M402 280l-14 -46l-60 -79q-70 -92 -150 -143q-44 -28 -95 -28q-63 0 -63 52q0 18 30 110l34 104q30 92 30 141q0 33 -54 33l6 22l194 10q-11 -23 -39 -101q-2 -6 -14 -43l-63 -196q-13 -40 -13 -52q0 -22 27 -22q58 0 140 95q39 45 104 143z" />
    <glyph glyph-name="Lslash" unicode="&#x141;" horiz-adv-x="563" 
d="M203 144l-110 -21q25 66 55 182l-94 -37l16 44l88 35q27 148 80 221q75 104 208 104q77 0 115 -65l-89 -99q5 40 5 51q0 80 -69 80q-60 0 -96 -69q-22 -43 -52 -182l43 18q4 4 12 43l6 27q2 12 3 14q9 43 20 58q14 19 52 28q-45 -57 -68 -160l92 36l-12 -42l-90 -38
l-14 -84q-10 -42 -19 -84q-13 -51 -26.5 -80t-34.5 -66q50 -11 98 -11q88 0 208 37q-18 -31 -54 -94q-44 -6 -84 -6q-110 0 -206 32q-30 -16 -55.5 -24t-68.5 -8q-128 0 -128 70q0 27 19.5 43.5t47.5 16.5q43 0 101 -19q49 -17 98 -33q46 60 75 200q9 46 20 102l-43 -17
q-5 -41 -22 -122q-14 -50 -27 -81zM-34 54q0 -26 32 -38q27 -11 66 -11q54 0 78 18q7 5 -8 11q-32 18 -100 45q-15 4 -35 4q-33 0 -33 -29z" />
    <glyph glyph-name="lslash" unicode="&#x142;" horiz-adv-x="291" 
d="M402 280l-15 -46l-28 -36q-32 -42 -102 -122q-93 -92 -175 -92q-62 0 -62 52q0 22 14 66l74 230l-96 -48l16 50l96 49l44 132q13 37 34 111q11 46 11 68q0 26 -20 34q-9 3 -43 6l6 22l194 10l-106 -324l105 54l-15 -50l-106 -53l-90 -277q-8 -25 -8 -48q0 -11 8.5 -18.5
t19.5 -7.5q55 0 139 95q22 25 54 71q38 55 51 72z" />
    <glyph glyph-name="Zcaron" unicode="&#x17d;" horiz-adv-x="602" 
d="M560 134l-62 -129q-51 -21 -110 -21q-45 0 -104 14l-102 26q-53 -40 -126 -40q-50 0 -86 16q-49 21 -49 64q0 37 34 57q29 16 69 16q73 0 142 -21q24 -8 56 -16q22 51 70 151q4 8 28 49q69 119 145 206q22 25 54 54h-49q-169 -185 -246 -372l-105 -30q27 89 122 216
q81 108 167 190l-82 8q-42 4 -78 4q-64 0 -94 -8q-38 -10 -65 -23l79 117l35 7q15 3 27 3q31 0 77 -8q73 -12 76 -12l69 -9q27 -4 63 -4q42 0 79 17l-47 -96q-84 -80 -209 -274q-23 -36 -49 -94q-22 -49 -43 -98q60 -20 135 -20q72 0 149 42q17 9 30 18zM-37 52
q0 -23 33 -38q29 -14 64 -14q58 0 98 35q-45 18 -84 35q-34 15 -73 15q-14 0 -26 -9.5t-12 -23.5zM534 917l16 -25l-170 -122l-62 128l24 19l63 -65z" />
    <glyph glyph-name="zcaron" unicode="&#x17e;" horiz-adv-x="524" 
d="M454 94l-42 -94h-364l26 79q32 35 99 103q45 45 139 134q75 68 108 68l-2 2q-1 -1 -36 -7l-29 -5q-42 -8 -67 -8q-26 0 -90 11q-20 -34 -100 -137l18 44q65 89 89 172q68 -16 90 -16q94 0 211 16l-20 -56q-2 -3 -45 -39q-22 -18 -65 -54l-48 -42q-41 -36 -117 -113
q-26 -30 -41 -73h160q76 0 126 15zM516 723l16 -25l-170 -122l-62 128l24 19l63 -65z" />
    <glyph glyph-name="caron" unicode="&#x2c7;" horiz-adv-x="278" 
d="M392 723l16 -25l-170 -122l-62 128l24 19l63 -65z" />
    <glyph glyph-name="ogonek" unicode="&#x2db;" horiz-adv-x="278" 
d="M186 -95l12 -19q-48 -30 -82 -30q-19 0 -35.5 14t-16.5 32q0 43 82 114l42 12q-12 -2 -44 -41t-32 -63q0 -14 11 -24t25 -10q20 0 38 15z" />
    <glyph glyph-name="hungarumlaut" unicode="&#x2dd;" horiz-adv-x="278" 
d="M268 723l-84 -147h-30l46 147h68zM362 723l-84 -147h-30l47 147h67z" />
    <glyph glyph-name="mu" unicode="&#xb5;" 
d="M102 -5l-80 -235l-106 -17l170 507q30 89 30 141q0 33 -54 33l6 22l194 10q-15 -30 -26 -63l-88 -262q-11 -33 -11 -53q0 -12 8 -21.5t19 -9.5q43 0 89 59q31 39 65 111q50 106 72 172q6 19 20 57l143 10q-7 -24 -25 -73l-15 -40q-2 -5 -11 -31l-62 -181q-10 -29 -10 -53
q0 -31 26 -31q56 0 138 97q34 47 104 140l-16 -46q-6 -16 -24 -40l-30 -38q-72 -97 -154 -148q-46 -28 -91 -28q-63 0 -63 62q0 28 20 88l100 301h-12q-6 -27 -56 -169q-35 -101 -88 -176q-75 -106 -155 -106q-19 0 -27 11z" />
    <glyph glyph-name="mu" unicode="&#x3bc;" 
d="M102 -5l-80 -235l-106 -17l170 507q30 89 30 141q0 33 -54 33l6 22l194 10q-15 -30 -26 -63l-88 -262q-11 -33 -11 -53q0 -12 8 -21.5t19 -9.5q43 0 89 59q31 39 65 111q50 106 72 172q6 19 20 57l143 10q-7 -24 -25 -73l-15 -40q-2 -5 -11 -31l-62 -181q-10 -29 -10 -53
q0 -31 26 -31q56 0 138 97q34 47 104 140l-16 -46q-6 -16 -24 -40l-30 -38q-72 -97 -154 -148q-46 -28 -91 -28q-63 0 -63 62q0 28 20 88l100 301h-12q-6 -27 -56 -169q-35 -101 -88 -176q-75 -106 -155 -106q-19 0 -27 11z" />
    <glyph glyph-name="afii10023" unicode="&#x401;" horiz-adv-x="777" 
d="M498 339h-31q-23 -74 -33 -166q-3 -26 -3 -52v-15q0 -23 62 -34q42 -8 87 -8q70 0 135 17q-29 -36 -69 -81q-32 -5 -50 -5q-97 0 -204 33q-3 24 -3 49v6q0 57 17 133q30 132 95 294q25 63 39 92q-98 22 -165 22q-90 0 -153.5 -39.5t-63.5 -104.5v-4q0 -32 11 -58
l-116 -12q9 126 133 192q109 58 277 58q38 0 97 -6q78 -8 97 -9q31 -2 60 -2q57 0 98 6q38 5 78 17l-88 -97q-29 2 -61 6l-72 9q-28 4 -58 9l-50 9q-40 -80 -88 -228h184l-48 -58q-27 11 -83 26q-13 1 -31 1zM406 0l-199 -16q1 16 5 37l9 47q8 38 46 166q35 118 80 236
q16 42 51 126h96q-128 -319 -156 -546q41 -36 68 -50zM536 776q-20 0 -33 14t-13 34q0 19 13.5 31.5t32.5 12.5q46 0 46 -44q0 -48 -46 -48zM690 776q-20 0 -33.5 14t-13.5 34q0 44 47 44q45 0 45 -44q0 -48 -45 -48z" />
    <glyph glyph-name="afii10017" unicode="&#x410;" horiz-adv-x="834" 
d="M449 291h124q20 140 47 226q11 34 27 81l-2 2q-3 0 -36 -50q-14 -21 -29 -45l-28 -46q-4 -7 -83 -133q-16 -25 -20 -35zM391 259h-38q-44 0 -96 -6q-106 -12 -164 -67q-30 -28 -30 -70q0 -41 31.5 -68.5t73.5 -27.5q76 0 139 88q33 45 84 151zM627 656h47l149 16
q-43 -130 -59 -193q-27 -109 -27 -199q0 -117 52 -170l-48 -42q-30 76 -30 174q0 175 82 403l-39 -4q-29 -74 -55 -192q-29 -135 -29 -244v-13q0 -32 5 -84q4 -42 22 -60t59 -22l-13 -42h-157q-21 72 -21 149q0 66 6 126h-138q-36 -66 -52 -92q-30 -50 -60 -86
q-81 -97 -182 -97q-60 0 -102 30q-46 34 -46 92q0 101 119 148q64 25 171 35q28 2 54 2h75q46 89 113 190q38 56 107 137q-5 5 -40 7h-28q-16 -1 -23 -1q-60 1 -112 -19q-62 -23 -89 -67q-16 -26 -16 -58v-4q0 -28 11 -58l-116 -12q10 131 134 192q63 31 128 44
q70 14 148 14z" />
    <glyph glyph-name="afii10018" unicode="&#x411;" horiz-adv-x="874" 
d="M424 132v-3q0 -55 34 -89.5t89 -34.5q63 0 98 48q31 43 31 109q0 105 -81 148q-57 31 -128 33q-43 -141 -43 -211zM412 622q-14 2 -23 2h-14q-90 0 -153.5 -39.5t-63.5 -104.5v-4q0 -32 11 -58l-116 -12q9 126 133 192q109 58 277 58q38 0 97 -6q78 -8 97 -9q31 -2 60 -2
q57 0 98 6q38 5 78 17l-88 -97q-29 2 -61 6l-72 9q-28 4 -58 9l-50 9q-37 -73 -88 -223q14 -7 83 -18q32 -5 88 -22q54 -27 65 -34q33 -21 50.5 -51t17.5 -79q0 -72 -63 -127q-69 -60 -160 -60h-6q-153 0 -153 146q0 34 28 156q5 20 24 88q1 2 15 38l61 154q13 33 14 36
q-12 3 -36 8q-11 -29 -34 -86q-31 -74 -43 -115q-17 -57 -29 -97q-49 -166 -60 -262q41 -36 68 -50l-199 -16q20 180 141 491q30 77 64 147z" />
    <glyph glyph-name="afii10019" unicode="&#x412;" horiz-adv-x="874" 
d="M424 132v-3q0 -55 34 -89.5t89 -34.5q63 0 98 48q31 43 31 109q0 105 -81 148q-57 31 -128 33q-43 -141 -43 -211zM551 -16q-153 0 -153 146q0 34 28 156q22 95 51 161q62 141 166 201q42 24 86 24q49 0 82 -32t33 -81q0 -131 -184 -180q-53 -14 -90 -21v-2l12 -3
q17 -5 51 -14q12 -3 14 -4q29 -8 67 -33q66 -44 66 -131q0 -72 -63 -127q-69 -60 -160 -60h-6zM678 618h-4q-63 0 -127 -92q-42 -60 -71 -151q14 -7 30 -7h4q39 0 79 17q81 34 119 103q19 34 19 65q0 65 -49 65zM406 0l-199 -16q20 186 141 491q32 81 64 145q-13 4 -44 4
q-48 0 -76 -8q-53 -15 -87 -47q-41 -38 -41 -87v-19q0 -9 10 -39l-114 -12q17 125 119 183q81 46 239 55l103 6q-70 -164 -123 -344q-49 -167 -60 -262q41 -36 68 -50z" />
    <glyph glyph-name="afii10020" unicode="&#x413;" horiz-adv-x="700" 
d="M326 -70l-132 -40q4 148 72 361q32 99 100 267q16 41 32 78h96q-18 -45 -34 -91l-32 -93q-48 -139 -76 -258q-11 -43 -27 -130q-3 -26 -3 -44q0 -38 4 -50zM551 614q-11 2 -34 6q-30 3 -84 4q-60 1 -112 -19q-62 -23 -89 -67q-16 -26 -16 -58v-4q0 -30 12 -58l-116 -12
q11 185 260 236q68 14 149 14q38 0 97 -6q78 -8 97 -9q31 -2 60 -2q57 0 99 6q37 5 78 17l-89 -94q-58 3 -98 8q-24 3 -73 10l-34 6q-27 5 -82 16q-59 -118 -107 -254q-27 -76 -43 -202q-4 -31 -4 -64q0 -39 22 -88l-50 -10q-9 46 -9 76q0 173 101 414q11 23 33 68l19 39
q9 18 13 27z" />
    <glyph glyph-name="afii10021" unicode="&#x414;" horiz-adv-x="971" 
d="M166 418l-116 -12q8 129 148 193q125 57 357 57q221 0 321 -91q66 -60 66 -169v-5q0 -72 -32 -141q-36 -77 -89 -134q-56 -59 -128 -94q-77 -38 -153 -38q-70 0 -108 40t-38 110q0 75 48 224q13 40 42 115q19 50 38 80l56 13q-30 -25 -60 -85q-55 -110 -84 -241
q-14 -64 -14 -112q0 -112 110 -112q127 0 214 126q77 112 77 241q0 75 -29 119q-59 90 -200 112q-63 10 -144 10q-292 0 -292 -148q0 -32 10 -58zM402 0l-199 -16q5 53 27 135q20 74 54 177q20 60 60 174q24 65 52 126h94q-30 -72 -82 -238q-14 -44 -22 -74l-19 -71
q-19 -68 -27 -119q-4 -25 -6 -44q26 -23 68 -50z" />
    <glyph glyph-name="afii10022" unicode="&#x415;" horiz-adv-x="777" 
d="M498 339h-31q-23 -74 -33 -166q-3 -26 -3 -52v-15q0 -23 62 -34q42 -8 87 -8q70 0 135 17q-29 -36 -69 -81q-32 -5 -50 -5q-97 0 -204 33q-3 24 -3 49v6q0 57 17 133q30 132 95 294q25 63 39 92q-98 22 -165 22q-90 0 -153.5 -39.5t-63.5 -104.5v-4q0 -32 11 -58
l-116 -12q9 126 133 192q109 58 277 58q38 0 97 -6q78 -8 97 -9q31 -2 60 -2q57 0 98 6q38 5 78 17l-88 -97q-29 2 -61 6l-72 9q-28 4 -58 9l-50 9q-40 -80 -88 -228h184l-48 -58q-27 11 -83 26q-13 1 -31 1zM406 0l-199 -16q1 16 5 37l9 47q8 38 46 166q35 118 80 236
q16 42 51 126h96q-128 -319 -156 -546q41 -36 68 -50z" />
    <glyph glyph-name="afii10024" unicode="&#x416;" horiz-adv-x="1050" 
d="M455 336l-39 -4q-28 -38 -86 -113l-35 -41q-98 -116 -182 -162q-33 -18 -68 -24t-71 6q-44 14 -44 48l100 46q17 -50 62 -45q37 4 84 41q35 28 96 99q70 82 103 150q-41 115 -119 252q-23 40 -38 55q-23 23 -44 23q-61 0 -55 -71q2 -25 19 -57l-89 -34q-1 12 -1 23
q0 94 68 138q30 19 67 19q50 1 93 -35q29 -25 63.5 -77.5t80.5 -152.5q11 -25 18 -44l31 -2q5 17 37 99q43 111 101 236q18 40 33 71q-6 2 -23 4q-33 1 -59 -16q-29 -19 -32 -50q-2 -19 9 -36l-91 -36q-2 37 32 87q38 56 82 63q28 6 88 13l166 5q-8 -17 -66 -148l-54 -119
q-7 -16 -12 -29q-29 -73 -51 -154l43 1q64 107 178 197q133 105 239 105q43 0 71 -25l-83 -81q-11 25 -22 34t-37 9q-87 0 -181 -85q-83 -76 -113 -154q21 -75 80 -197q71 -147 140 -233q90 -113 164 -113q44 0 44 44v10l105 37q-32 -112 -151 -112q-159 0 -294 194
q-68 98 -101 173q-41 94 -60 161l-30 1q-36 -127 -39 -226q-1 -44 24 -104l-50 -10q-10 43 -10 92q0 44 18 126q16 74 65 227q20 61 88 215q32 73 57 138h-38q-42 -98 -121 -294q-60 -153 -99 -326q-9 -35 -20 -106q-2 -26 -6 -62l-125 -16q9 78 38 178z" />
    <glyph glyph-name="afii10025" unicode="&#x417;" horiz-adv-x="591" 
d="M434 303q27 -33 26 -79q-3 -143 -142 -216q-48 -25 -119 -25q-172 0 -199 156l104 73q-10 -50 -10 -64q0 -39 18 -73q19 -38 52 -53q44 -20 83 -10q36 9 67.5 39t41.5 64.5t10 70.5q0 64 -20 94q-28 40 -96 40q-38 0 -56 -6l8 31q28 5 83 11h29q19 0 35 -4q55 -13 85 -49
zM481 50l-91 -35q111 83 111 214q0 50 -36 88q-33 34 -84 47q-31 7 -56 6l23 22q83 7 83 108q0 76 -46 109q-16 11 -37 9q-36 -4 -63.5 -25.5t-32.5 -55.5q-4 -26 9 -59l-101 -23q-2 7 -2 15q0 31 22 68q27 48 75 78q58 36 142 36q55 0 95 -25q46 -30 46 -82q0 -56 -45 -103
q-37 -39 -96 -64q59 -16 96 -58q39 -45 39 -105q0 -87 -51 -165z" />
    <glyph glyph-name="afii10026" unicode="&#x418;" horiz-adv-x="874" 
d="M172 424l-114 -10v4q0 103 106 168q114 70 324 70h46q-27 -27 -60 -78q-80 -123 -119 -257q-21 -73 -21 -140q0 -48 16 -83q22 -46 64 -46t85 41q30 29 64 89q51 91 103 266q22 72 34 122q7 28 12 50l7 36h184q-64 -141 -113 -284q-24 -70 -44 -158q-19 -83 -19 -138
q0 -35 17 -46q11 -6 50 -10l-6 -20l-198 -5q12 109 84 323q62 184 122 317h-61q-10 -49 -33 -120q-30 -96 -59 -193q-37 -112 -79 -184q-51 -87 -108 -125q-42 -29 -94 -29q-91 0 -125 84q-19 44 -19 94q0 84 42 193q56 145 184 273h-54q-99 0 -159 -35q-69 -41 -69 -116
q0 -20 10 -53z" />
    <glyph glyph-name="afii10027" unicode="&#x419;" horiz-adv-x="874" 
d="M172 424l-114 -10v4q0 103 106 168q114 70 324 70h46q-27 -27 -60 -78q-80 -123 -119 -257q-21 -73 -21 -140q0 -48 16 -83q22 -46 64 -46t85 41q30 29 64 89q51 91 103 266q22 72 34 122q7 28 12 50l7 36h184q-64 -141 -113 -284q-24 -70 -44 -158q-19 -83 -19 -138
q0 -35 17 -46q11 -6 50 -10l-6 -20l-198 -5q12 109 84 323q62 184 122 317h-61q-10 -49 -33 -120q-30 -96 -59 -193q-37 -112 -79 -184q-51 -87 -108 -125q-42 -29 -94 -29q-91 0 -125 84q-19 44 -19 94q0 84 42 193q56 145 184 273h-54q-99 0 -159 -35q-69 -41 -69 -116
q0 -20 10 -53zM524 861l15 7l48 20q0 -77 22 -108q34 -48 81 -50q39 -2 88 36q20 15 45 46l22 6q-15 -21 -51 -62q-76 -73 -157 -69q-54 2 -87 45q-30 40 -30 95q0 18 4 34z" />
    <glyph glyph-name="afii10028" unicode="&#x41a;" horiz-adv-x="815" 
d="M332 0l-125 -16q23 193 141 489q34 86 64 147q-13 4 -44 4q-70 0 -121 -25q-83 -42 -83 -113v-4q0 -32 10 -58l-114 -12q18 127 122 185q87 48 236 53l166 6q-76 -157 -113 -292h11q64 107 178 197q133 105 239 105q43 0 71 -25l-83 -81q-11 25 -21 33q-13 10 -38 10
q-87 0 -181 -85q-83 -76 -113 -154q21 -75 80 -197q71 -147 140 -233q90 -113 164 -113q44 0 44 44v10l105 37q-32 -112 -151 -112q-158 0 -294 194q-67 95 -101 173q-41 94 -60 161h-2q-9 0 -17 -45q-8 -41 -14 -133q-2 -32 -4 -52v0q0 -45 24 -98l-50 -10q-10 43 -10 92
q0 44 18 126q29 133 92 300q27 73 49 120h-39q-92 -217 -150 -460q-9 -35 -20 -106q-2 -26 -6 -62z" />
    <glyph glyph-name="afii10029" unicode="&#x41b;" horiz-adv-x="834" 
d="M594 656h34l162 16q-43 -130 -59 -193q-27 -109 -27 -199q0 -117 52 -170l-48 -42q-30 76 -30 174q0 175 82 403l-39 -4q-29 -74 -55 -192q-29 -135 -29 -244q0 -136 29 -159q20 -16 57 -20l-13 -42h-157q-21 72 -21 149q0 195 55 384q10 34 27 81l-2 2
q-85 -108 -144 -238q-54 -120 -107 -197q-70 -102 -153 -153q-46 -28 -102 -28q-106 0 -141 86q-12 31 -12 57l126 67q-11 -5 -20 -34q-8 -24 -8 -41q0 -33 19 -62q24 -37 65 -37q76 0 139 88q35 49 79 135q56 109 73 138q70 119 148 210l23 27q-5 5 -40 7h-28
q-16 -1 -23 -1q-60 1 -112 -19q-62 -23 -89 -67q-16 -26 -16 -58v-4q0 -28 11 -58l-116 -12q9 153 194 217q94 33 216 33z" />
    <glyph glyph-name="afii10030" unicode="&#x41c;" horiz-adv-x="1069" 
d="M300 0l-89 -10q0 107 71 310q56 161 120 296h78q3 -30 14 -72q16 -62 46 -147q40 -111 46 -215h2l30 48q-7 55 -44 170q-20 56 -50 171q-4 22 -12 67h-140q-83 0 -139 -30q-71 -37 -71 -111q0 -20 11 -53l-115 -10q16 135 149 191q53 22 125 33q28 4 129 12l73 6
q-2 -18 -2 -25q0 -38 20 -105q8 -30 19 -60l20 -58q32 -91 46 -166q115 181 277 340q36 36 71 64l74 10q-20 -35 -56 -132q-73 -199 -73 -378q0 -58 12 -83q18 -37 68 -37h10l-8 -26l-182 -10q-15 37 -15 95q0 159 49 339q15 56 33 98l-2 2q-4 4 -73 -94q-52 -72 -160 -242
q-20 -32 -46 -82q-10 -19 -28 -59l-88 -47q8 45 8 68q0 93 -31 210q-11 43 -63 204h-2l-31 -99q-16 -48 -45 -142l-12 -43q-27 -98 -27 -174q0 -15 3 -24z" />
    <glyph glyph-name="afii10031" unicode="&#x41d;" horiz-adv-x="932" 
d="M960 712q-37 0 -76 -53q-32 -43 -56 -99l-18 -41q-22 -52 -39 -113q-10 -35 -13 -52q87 11 158 125q67 107 67 197q0 36 -23 36zM330 0l-127 -16q9 75 40 177q28 86 56 173h-25q-123 0 -141 -96l-98 -10q15 77 96 107q53 19 151 19h23q26 69 78 206q13 34 25 60
q-15 4 -42 4q-71 0 -122 -25q-84 -42 -84 -113v-4q0 -32 11 -58l-115 -12q19 124 120 183q79 46 238 55l104 6l-28 -66q-11 -28 -59 -159q-15 -42 -25 -77h38q10 44 52 153q26 69 46 115l15 34h25q-13 -24 -62 -148q-30 -75 -53 -154h180q20 70 68 156q63 114 135 173
q56 46 114 46q29 0 47.5 -22t18.5 -51v-4q0 -66 -24 -118q-54 -118 -156 -170q-53 -27 -100 -30q-17 -71 -26 -171q-3 -32 -2 -54q1 -68 40 -80q22 -7 53 -9l-6 -20l-199 -10q-10 62 -10 118q0 82 41 226h-182q-37 -104 -37 -246q0 -39 22 -88l-50 -10q-9 45 -9 92
q0 87 51 252h-38q-27 -87 -44 -166q-10 -41 -23 -124q-1 -18 -1 -44z" />
    <glyph glyph-name="afii10032" unicode="&#x41e;" horiz-adv-x="738" 
d="M270 -16q-50 0 -92 17q-87 35 -122 126q-18 46 -18 99q0 161 129 299q136 147 302 147q103 0 169 -68q62 -64 62 -172q0 -79 -39 -163q-35 -79 -93 -141q-134 -144 -290 -144h-8zM448 645l4 13q-110 -27 -189 -141q-99 -143 -99 -314q0 -74 28 -127q35 -66 101 -66
q120 0 209 163q76 139 76 275q0 47 -8 80q-27 111 -91 111q-35 0 -75 -38q-71 -67 -109 -186q-19 -60 -19 -115q0 -142 126 -142l-72 -77q-51 9 -80 67q-26 51 -26 115q0 89 39 175q44 100 97 152q41 40 88 55z" />
    <glyph glyph-name="afii10033" unicode="&#x41f;" horiz-adv-x="891" 
d="M282 0l-126 -16q5 117 70 302l28 79q34 99 86 211h94q-114 -300 -148 -524q-4 -26 -4 -52zM618 0l-126 -16q5 110 69 302q26 79 57 156q13 32 27 64l25 55h94l-24 -66q-15 -40 -35 -104q-7 -22 -23 -75q-40 -134 -60 -264q-4 -26 -4 -52zM477 590q-31 0 -81 3
q-65 3 -81 4q-29 1 -37 1q-172 0 -172 -102q0 -12 10 -52l-88 -32q3 38 21 80q40 93 147 140q54 24 136 24q53 0 159.5 -4t159.5 -4h42q14 0 42.5 2t42.5 2q18 0 44 3l60 7q-39 -62 -86 -183q-64 -165 -84 -318q-4 -31 -4 -59q0 -48 26 -102l-51 -7q-11 44 -11 75
q0 112 49 268q23 72 45 132q4 12 12 32l8 23q7 18 21 55h-37q-29 0 -37 2q-19 1 -56 4q-43 4 -88 4.5t-83 1.5q-108 -256 -130 -429q-4 -31 -4 -59q0 -48 26 -102l-51 -7q-11 50 -11 75q0 109 49 268q31 99 92 254z" />
    <glyph glyph-name="afii10034" unicode="&#x420;" horiz-adv-x="777" 
d="M440 0l-46 -9q-15 43 -15 86q0 103 38 232q47 159 115 244q43 54 88 82q49 31 107 31q49 0 76 -39q23 -34 23 -85q0 -90 -78 -178q-75 -84 -158 -84q-56 0 -111 40l47 74q16 -88 84 -88q52 0 84 74q27 62 27 138q0 74 -51 74q-53 0 -98 -48q-52 -55 -82 -124
q-49 -111 -67 -237q-7 -45 -7 -81q0 -50 24 -102zM328 0l-128 -16q7 64 50 208q32 109 86 250l40 105q18 47 30 73q-15 4 -42 4q-70 0 -122 -25q-84 -41 -84 -113v-4q0 -32 11 -58l-116 -12q21 126 121 183q81 46 238 55l104 6q-82 -202 -114 -297q-57 -171 -72 -309
q-3 -22 -2 -50z" />
    <glyph glyph-name="afii10035" unicode="&#x421;" horiz-adv-x="622" 
d="M549 88l-13 -42q-133 -62 -264 -62q-106 0 -166 65q-68 71 -68 179q0 77 34 156q70 163 233 249q74 39 158 39q111 0 211 -50l-56 -136q-9 47 -42 96q-36 53 -84 53q-49 0 -96 -42q-57 -50 -94 -149q-32 -85 -32 -151q0 -137 128 -141l-72 -76q-104 37 -104 174
q0 128 62.5 237t163.5 154l4 11q-54 -4 -106 -45q-109 -86 -162 -237q-26 -74 -26 -144q0 -130 94 -179q32 -17 78 -17q90 0 219 58z" />
    <glyph glyph-name="afii10036" unicode="&#x422;" horiz-adv-x="660" 
d="M442 0l-52 -7q-11 50 -11 75q0 109 49 268q21 68 46 132l46 122l-66 4q-89 4 -176 4q-172 0 -172 -102q0 -12 10 -52l-88 -32q3 38 21 80q40 93 147 140q54 24 136 24q60 0 180.5 -4t180.5 -4q73 0 163 10l-62 -88q-61 11 -140 15l-50 3q-26 1 -55 2q-111 -263 -129 -429
q-4 -31 -4 -59q0 -51 26 -102zM326 0l-128 -16q4 84 44 222t114 307l27 63h94q-84 -222 -123 -393q-12 -54 -24 -131q-4 -26 -4 -52z" />
    <glyph glyph-name="afii10037" unicode="&#x423;" horiz-adv-x="719" 
d="M572 656h163q-35 -127 -109 -380q-44 -143 -91 -253q-97 -223 -314 -223q-137 0 -197 72l95 60q9 -46 33 -74q28 -33 96 -33q99 0 161 100q40 66 88 218q27 101 83 305q25 92 51 191h-39q-38 -146 -43 -162q-25 -91 -51 -159q-50 -132 -122 -198q-38 -35 -81 -35
q-74 0 -83 139q-1 13 -3 49l-4 78l-9 156q-1 23 -8 67q-3 29 -24 39q-15 7 -48 7l10 27l158 9q11 -67 18 -245q2 -59 10 -177q5 -50 32 -50q54 0 110 104q38 70 78 208q28 99 40 160z" />
    <glyph glyph-name="afii10038" unicode="&#x424;" horiz-adv-x="994" 
d="M540 0l-50 -16q0 15 3 37l7 49q14 95 50 193q39 106 91 179q84 118 189 118h6q46 0 74 -36q25 -32 25 -80v-15q0 -89 -74 -169q-52 -57 -120 -79q-20 -7 -41 -7q-56 0 -111 40l47 75q17 -89 84 -89q51 0 85 74q25 54 25 138q0 74 -50 74q-99 0 -179 -172
q-67 -144 -67 -260q0 -30 6 -54zM460 0l-127 -16q5 62 49 208q34 115 96 272l96 251q18 47 29 73q-13 4 -41 4q-70 0 -122 -25q-84 -41 -84 -113v-4q0 -29 10 -58l-115 -12q18 122 121 183q60 36 170 49q33 4 68 6l104 6q-46 -102 -92 -242q-5 -14 -33 -97l-38 -110
q-25 -69 -67 -207q-15 -58 -21 -106q-3 -24 -3 -62zM462 731l49 17q0 -66 -27 -174q-42 -169 -124 -284q-84 -119 -189 -119h-6q-66 0 -91 69q-8 21 -8 48v14q0 86 77 172q74 83 158 83q58 0 111 -40l-46 -75q-18 88 -84 88q-65 0 -93 -93q-18 -58 -18 -117q0 -76 50 -76
q55 0 99 50q102 116 141 318q7 37 7 65q0 30 -6 54z" />
    <glyph glyph-name="afii10039" unicode="&#x425;" horiz-adv-x="912" 
d="M450 278v18h-2l-5 -8q-5 -9 -11 -21l-14 -25q-4 -8 -12 -22q-74 -123 -195 -196q-66 -40 -142 -40q-132 0 -144 147l140 82q-36 -49 -36 -90q0 -31 22.5 -51t53.5 -20q63 0 153 63q76 53 139 136q71 94 63 173q-12 100 -72 136q-27 16 -62 16h-4q-33 0 -73 -13l96 109
q93 -6 148 -71q62 -73 62 -210v-109q0 -256 137 -256q60 0 119 59l-2 2q0 -5 -38.5 -20.5t-45.5 -15.5q-79 0 -113 82q-25 58 -25 149q0 196 94 326q83 115 189 115q82 0 111 -74l-103 -71v18q0 54 -51 54q-43 0 -85 -34q-37 -30 -61 -72q-47 -83 -61 -181q-6 -38 -6 -81
q0 -214 113 -214q70 0 106 72l20 -9q-15 -48 -65 -93q-60 -54 -145 -54q-104 0 -152 90q-41 77 -41 204z" />
    <glyph glyph-name="afii10040" unicode="&#x426;" horiz-adv-x="874" 
d="M782 22l70 2q-22 -65 -35 -142q-5 -25 -5 -42q0 -38 20 -38h30l-4 -21l-148 -4q25 150 58 223l-178 -5q12 109 84 323q62 184 122 317h-61q-10 -49 -33 -120q-30 -96 -59 -193q-37 -112 -79 -184q-51 -87 -108 -125q-42 -29 -94 -29q-91 0 -125 84q-19 44 -19 94
q0 84 42 193q56 145 184 273h-54q-99 0 -159 -35q-69 -41 -69 -116q0 -20 10 -53l-114 -10v4q0 103 106 168q114 70 324 70h46q-27 -27 -60 -78q-80 -123 -119 -257q-21 -73 -21 -140q0 -48 16 -83q22 -46 64 -46t85 41q30 29 64 89q51 91 103 266q22 72 34 122q7 28 12 50
l7 36h184q-64 -141 -113 -284q-24 -70 -44 -158q-19 -83 -19 -138q0 -56 55 -54z" />
    <glyph glyph-name="afii10041" unicode="&#x427;" horiz-adv-x="874" 
d="M726 656h177q-64 -141 -113 -284q-24 -70 -44 -158q-19 -83 -19 -138q0 -35 17 -46q11 -6 50 -10l-6 -20l-198 -5q12 109 84 323q62 184 122 317h-52q-9 -28 -26 -83l-20 -57q-30 -88 -65 -138q-46 -65 -116 -95q-42 -18 -97 -18q-121 0 -162 70q-18 30 -18 70q0 22 9 49
q25 75 105 145q20 18 62 50q-73 0 -112 -8q-142 -29 -142 -143q0 -20 10 -53l-114 -10v4q0 103 106 168q114 70 324 70h46l-63 -57q-38 -34 -57 -63q-52 -78 -52 -144q0 -46 29 -76t75 -30q83 0 146 80q48 61 81 162q16 48 33 128z" />
    <glyph glyph-name="afii10042" unicode="&#x428;" horiz-adv-x="1275" 
d="M756 -16q-60 0 -91 42q-28 37 -28 99q0 78 35 189q17 57 67 183q33 85 57 138h-61q-10 -49 -33 -120q-30 -96 -59 -193q-37 -112 -79 -184q-51 -87 -108 -125q-42 -29 -94 -29q-91 0 -125 84q-19 44 -19 94q0 84 42 193q56 145 184 273h-54q-99 0 -159 -35
q-69 -41 -69 -116q0 -20 10 -53l-114 -10v4q0 103 106 168q114 70 324 70h46q-27 -27 -60 -78q-80 -123 -119 -257q-21 -73 -21 -140q0 -48 16 -83q22 -46 64 -46t85 41q30 29 64 89q51 91 103 266q22 72 34 122q7 28 12 50l7 36h184q-120 -264 -157 -442q-8 -39 -8 -66
q0 -96 69 -96q78 0 150 131q53 97 103 265q31 105 52 208h184l-25 -60q-98 -232 -133 -382q-18 -78 -18 -138q0 -36 18 -46q7 -5 50 -10l-8 -20l-197 -5q4 48 29 141q50 183 120 361q33 85 58 138h-62q-7 -41 -23 -92l-9 -28q-20 -69 -65 -205q-30 -82 -45 -115
q-28 -63 -60 -107q-76 -104 -170 -104z" />
    <glyph glyph-name="afii10043" unicode="&#x429;" horiz-adv-x="1280" 
d="M1164 24h52q-22 -65 -35 -142q-5 -25 -5 -42q0 -38 20 -38h31l-5 -21l-147 -4l21 112q10 55 36 110l-149 -4q4 48 29 141q50 183 120 361q33 85 58 138h-62q-7 -41 -23 -92l-9 -28q-20 -69 -65 -205q-30 -82 -45 -115q-28 -63 -60 -107q-76 -104 -170 -104q-60 0 -91 42
q-28 37 -28 99q0 78 35 189q17 57 67 183q33 85 57 138h-61q-10 -49 -33 -120q-30 -96 -59 -193q-37 -112 -79 -184q-51 -87 -108 -125q-42 -29 -94 -29q-91 0 -125 84q-19 44 -19 94q0 84 42 193q56 145 184 273h-54q-99 0 -159 -35q-69 -41 -69 -116q0 -20 10 -53
l-114 -10v4q0 103 106 168q114 70 324 70h46q-27 -27 -60 -78q-80 -123 -119 -257q-21 -73 -21 -140q0 -48 16 -83q22 -46 64 -46t85 41q30 29 64 89q51 91 103 266q22 72 34 122q7 28 12 50l7 36h184q-120 -264 -157 -442q-8 -39 -8 -66q0 -96 69 -96q78 0 150 131
q53 97 103 265q31 105 52 208h184l-25 -60q-98 -232 -133 -382q-18 -78 -18 -138q0 -32 11.5 -42t32.5 -10z" />
    <glyph glyph-name="afii10044" unicode="&#x42a;" horiz-adv-x="834" 
d="M491 356q117 0 178 -21q82 -28 116 -86q17 -29 17 -78q0 -72 -63 -127q-69 -60 -160 -60h-6q-153 0 -153 146q0 34 20 125q5 24 7 33l12 46h-39q-25 -80 -44 -166q-4 -17 -11 -52l-5 -30q-8 -39 -8 -86l-127 -16q9 75 40 177q28 86 56 173h-25q-123 0 -141 -96l-98 -10
q15 77 96 107q53 19 151 19h23q26 69 78 206q13 34 25 60q-15 4 -42 4q-71 0 -122 -25q-84 -42 -84 -113v-4q0 -32 11 -58l-115 -12q19 124 120 183q79 46 238 55l104 6l-28 -66q-11 -28 -59 -159q-15 -42 -25 -77h38q38 133 98 268l15 34h25q-11 -21 -49 -115
q-35 -87 -64 -185zM485 336q-39 -128 -39 -204v-3q0 -55 34 -89.5t89 -34.5q63 0 98 48q31 43 31 109q0 47 -20 86q-22 44 -61 62q-34 16 -66.5 19.5t-65.5 6.5z" />
    <glyph glyph-name="afii10045" unicode="&#x42b;" horiz-adv-x="1229" 
d="M469 356q117 0 178 -21q82 -28 116 -86q17 -29 17 -78q0 -72 -63 -127q-69 -60 -160 -60h-6q-153 0 -153 146q0 34 20 125q5 24 7 33l12 46h-39q-25 -80 -44 -166q-4 -17 -11 -52l-5 -30q-8 -39 -8 -86l-127 -16q9 75 40 177q28 86 56 173h-25q-123 0 -141 -96l-98 -10
q15 77 96 107q53 19 151 19h23q26 69 78 206q13 34 25 60q-15 4 -42 4q-71 0 -122 -25q-84 -42 -84 -113v-4q0 -32 11 -58l-115 -12q19 124 120 183q79 46 238 55l104 6l-28 -66q-11 -28 -59 -159q-15 -42 -25 -77h38l26 76q39 117 72 192l15 34h25q-11 -21 -62 -148
q-6 -15 -42 -124q-8 -23 -9 -28zM463 336q-39 -128 -39 -204v-3q0 -55 34 -89.5t89 -34.5q63 0 98 48q31 43 31 109q0 47 -20 86q-22 44 -61 62q-34 16 -66.5 19.5t-65.5 6.5zM932 0l-127 -16q17 131 82 325q51 153 123 311q-15 4 -42 4q-47 0 -76 -8q-74 -21 -111 -72
q-19 -27 -19 -58v-4q0 -28 11 -58l-115 -12q18 128 123 185q74 39 168 48q22 2 67 5l166 6q-92 -189 -141 -415q-17 -79 -17 -143q0 -45 22 -98l-50 -10q-9 45 -9 92q0 93 59 276q35 108 78 216q12 30 23 54h-39q-97 -224 -152 -460q-11 -47 -15 -86l-4 -38q-2 -20 -5 -44z
" />
    <glyph glyph-name="afii10046" unicode="&#x42c;" horiz-adv-x="874" 
d="M469 356q117 0 178 -21q82 -28 116 -86q17 -29 17 -78q0 -72 -63 -127q-69 -60 -160 -60h-6q-153 0 -153 146q0 34 20 125q5 24 7 33l12 46h-39q-33 -109 -55 -218q-10 -49 -12 -82q-1 -14 -1 -34l-127 -16q9 75 41 177q27 87 55 173h-25q-123 0 -141 -96l-98 -10
q15 77 96 107q53 19 151 19h23q3 7 51 134l27 72q13 34 25 60q-15 4 -42 4q-71 0 -122 -25q-84 -42 -84 -113v-4q0 -32 11 -58l-115 -12q19 124 120 183q79 46 238 55l104 6l-28 -66q-11 -28 -59 -159q-15 -42 -25 -77h38q38 133 98 268l15 34h25q-11 -21 -49 -115
q-35 -87 -64 -185zM463 336q-39 -128 -39 -204v-3q0 -55 34 -89.5t89 -34.5q63 0 98 48q31 43 31 109q0 47 -20 86q-22 44 -61 62q-34 16 -66.5 19.5t-65.5 6.5z" />
    <glyph glyph-name="afii10047" unicode="&#x42d;" horiz-adv-x="666" 
d="M444 358h54q1 3 3 10q12 56 12 105q0 68 -25 116q-32 59 -93 63l-2 -11q74 -36 74 -149q0 -42 -20 -122zM465 270q11 23 23 59h-55q-48 -118 -130 -189q-53 -46 -114 -64l-28 76q66 2 118 38q65 45 114 140h-141q-22 0 -51 -17t-52 -27l28 72q40 2 80 1t80 -1h67l15 52
q15 52 15 99q0 126 -88 126q-56 0 -143 -78q-43 -38 -70 -71l24 136q55 22 144 41q42 9 95 9q76 0 132 -37t81 -107q16 -46 16 -93q0 -137 -95 -261q-60 -77 -137 -126q-102 -64 -202 -64q-130 0 -229 62l12 42q97 -58 187 -58q88 0 171 67t133 173z" />
    <glyph glyph-name="afii10048" unicode="&#x42e;" horiz-adv-x="1229" 
d="M956 645l4 13q-126 -31 -210 -172q-78 -130 -78 -283q0 -74 28 -127q35 -66 101 -66q120 0 209 163q76 139 76 275q0 113 -50 170q-19 21 -49 21q-35 0 -75 -38q-73 -69 -109 -186q-19 -60 -19 -115q0 -142 126 -142l-72 -77q-51 9 -80 67q-26 51 -26 115q0 89 39 175
q44 100 97 152q41 40 88 55zM467 354h103q24 83 105 171q136 147 302 147q103 0 169 -68q62 -64 62 -172q0 -116 -78 -235q-61 -92 -147 -150q-96 -63 -197 -63h-8q-50 0 -92 17q-87 35 -122 126q-18 46 -18 99q0 52 17 108h-104q-37 -104 -37 -246q0 -39 22 -88l-50 -10
q-9 45 -9 92q0 87 51 252h-38q-25 -80 -44 -166q-4 -17 -11 -52l-5 -30q-8 -39 -8 -86l-127 -16q9 75 40 177q28 86 56 173h-25q-123 0 -141 -96l-98 -10q15 77 96 107q53 19 151 19h23q26 69 78 206q13 34 25 60q-15 4 -42 4q-71 0 -122 -25q-84 -42 -84 -113v-4
q0 -32 11 -58l-115 -12q19 124 120 183q79 46 238 55l104 6l-28 -66q-11 -28 -59 -159q-15 -42 -25 -77h38q10 44 52 153q26 69 46 115l15 34h25q-13 -24 -62 -148q-30 -75 -53 -154z" />
    <glyph glyph-name="afii10049" unicode="&#x42f;" horiz-adv-x="778" 
d="M411 649q25 5 56 5q66 1 104 -28q42 -32 43 -96q0 -14 -2 -25l148 1q-78 -168 -111 -304q-16 -68 -16 -126q0 -35 17 -46q11 -6 50 -10l-6 -20l-198 -5q5 63 28 141q40 136 71 211l32 78q14 34 27 61l-44 -2q-17 -92 -118 -246q-96 -147 -217 -202q-75 -35 -171 -35
q-58 0 -104 17l96 105q59 -40 117 -40q157 0 274 187q32 51 43 88q24 77 24 126h-20q-8 -31 -16 -63q-11 -38 -22 -59q-35 -66 -83 -93q-41 -22 -105 -26q-8 -1 -12 -1q-63 0 -106 32q-48 35 -46 96q4 116 116 208q19 15 45 30q51 30 106 41zM295 537q-25 -47 -25 -120
q0 -124 84 -124q98 0 144 119q5 14 12 48q2 15 8 44h34q-5 55 -34 90q-33 38 -86 38q-42 0 -81 -29q-35 -26 -56 -66z" />
    <glyph glyph-name="afii10065" unicode="&#x430;" horiz-adv-x="545" 
d="M658 280l-15 -46q-77 -109 -129 -159q-95 -91 -178 -91q-25 0 -42 13q-20 15 -20 39q0 22 8 47l68 210h-11q-47 -128 -99 -197q-84 -112 -180 -112q-72 0 -72 92q0 121 112 250q52 60 104.5 95t98.5 35q65 0 65 -62q0 -16 -2 -22h9l25 76l110 8l-110 -344
q-10 -31 -10 -38q0 -13 8 -22q8 -14 22 -14q27 0 80 50q49 44 114 131q14 21 44 61zM133 47h4q24 0 59 37q24 25 53 70q73 111 73 170q0 90 -64 90q-65 0 -121 -130q-44 -103 -44 -178q0 -59 40 -59z" />
    <glyph glyph-name="afii10066" unicode="&#x431;" horiz-adv-x="524" 
d="M184 192q0 -95 79 -130q49 42 77 114q26 67 26 136q0 81 -44 81q-50 0 -95 -67q-43 -63 -43 -128v-6zM167 228h-7l-28 -84q-13 -39 -13 -66q0 -58 65 -58q4 0 21.5 6t20.5 9q-62 56 -62 149q0 18 3 44zM223 475l-41 -169h8q31 61 80 105.5t122 44.5q94 0 94 -98
q0 -82 -65 -173q-54 -76 -135 -134q32 -9 54 -9q83 0 173 88q43 42 128 154l-15 -46l-27 -36q-97 -126 -187 -177q-45 -25 -96 -25q-37 0 -72 22q-68 -38 -128 -38q-41 0 -67 17q-31 20 -31 59q0 28 21 90q15 46 31 92l57 185q61 198 180 275q91 59 191 59q20 0 81 -11.5
t79 -11.5q91 0 102 94l24 4q-27 -113 -100 -164q-33 -23 -82 -23q-38 0 -93 11l-92 20q-36 6 -59 6q-61 1 -87 -46q-18 -33 -30 -81z" />
    <glyph glyph-name="afii10067" unicode="&#x432;" horiz-adv-x="524" 
d="M184 192q0 -95 79 -130q49 42 77 114q26 67 26 136q0 81 -44 81q-50 0 -95 -67q-43 -63 -43 -128v-6zM167 228h-7l-28 -84q-13 -39 -13 -66q0 -58 65 -58q4 0 21.5 6t20.5 9q-62 56 -62 149q0 18 3 44zM276 574q53 -23 168 -23q60 0 129 49q75 53 75 110q0 54 -99 54
q-47 0 -97 -12q-112 -27 -176 -178zM39 686l-15 56q58 -76 126 -113q24 -13 55 -29q46 72 115 117q52 34 142 58q82 21 154 21q49 0 85 -11q55 -17 57 -54q4 -88 -119 -153q-106 -55 -215 -54q-93 1 -158 27l-84 -245h8q31 61 80 105.5t122 44.5q94 0 94 -98q0 -82 -65 -173
q-54 -76 -135 -134q32 -9 54 -9q83 0 173 88q43 42 128 154l-15 -46l-27 -36q-97 -126 -187 -177q-45 -25 -96 -25q-37 0 -72 22q-68 -38 -128 -38q-41 0 -67 17q-31 20 -31 59q0 28 21 90q15 46 31 92l57 185q25 80 67 153q-53 21 -113 71z" />
    <glyph glyph-name="afii10068" unicode="&#x433;" horiz-adv-x="388" 
d="M41 293l25 96q57 39 124 57q45 12 96 12q95 0 95 -52q0 -73 -86 -149q-47 -41 -84 -50q-55 -14 -67 -19q-39 -16 -48 -44q-2 -7 -2 -17q0 -90 94 -90q110 0 234 121q39 37 98 122l-16 -46q-75 -109 -172 -176q-47 -33 -109 -54q-58 -20 -125 -20q-114 0 -114 96
q0 76 54 116q49 36 128 36q116 0 116 145q0 57 -30 57q-54 0 -120 -55q-56 -47 -84 -89z" />
    <glyph glyph-name="afii10069" unicode="&#x434;" horiz-adv-x="545" 
d="M664 282l-15 -46q-30 -46 -55.5 -78.5t-67.5 -72.5q-75 -73 -162 -99q-30 -117 -109.5 -180t-200.5 -63q-95 0 -153 30q-22 12 -36 31q-17 19 -17 46q0 86 164 155q-19 38 -19 71q0 106 91 225q72 93 156 135q41 20 76 20q59 0 59 -58q0 -4 -1.5 -13t-1.5 -13h9l21 74
l115 10q-38 -89 -69 -188q-18 -61 -53 -182q-7 -22 -16 -53q72 7 161 94q34 34 100 121q14 18 24 34zM102 108q0 -21 8 -39q11 -22 30 -22q40 0 94 75q94 128 94 212q0 32 -17.5 56t-48.5 24q-37 0 -69 -39q-24 -29 -47 -82q-44 -102 -44 -185zM280 45l76 248h-13
q-47 -132 -93 -199q-76 -110 -178 -110q-23 0 -46 13q-84 -62 -84 -125q0 -52 40 -82q36 -26 90 -26q102 0 164 144q8 21 44 137z" />
    <glyph glyph-name="afii10070" unicode="&#x435;" horiz-adv-x="388" 
d="M520 280l-16 -46q-75 -109 -172 -176q-47 -33 -109 -54q-58 -20 -125 -20q-114 0 -114 96q0 58 34 129q29 61 73 113q113 134 231 134q59 0 59 -50q0 -67 -85 -153q-90 -91 -186 -91h-12q-4 -24 -4 -40q0 -85 94 -85q110 0 234 121q39 37 98 122zM110 215q26 -10 50 -10
h4q24 0 45 13q73 45 73 159q0 47 -28 47q-42 0 -91 -89q-33 -59 -53 -120z" />
    <glyph glyph-name="afii10072" unicode="&#x436;" horiz-adv-x="834" 
d="M532 246h30q46 0 89 30q47 33 47 78v4q0 35 -32 35q-35 0 -78 -58q-30 -39 -56 -89zM319 253l7 9q11 33 11 70q0 68 -55 68q-28 0 -58 -24.5t-30 -51.5q0 -33 42 -54q38 -19 83 -17zM347 253h23l84 262q13 38 34 116q10 44 10 63q0 27 -20 34q-7 3 -44 6l8 22l194 10
l-245 -756h17q55 192 150 335q74 111 154 111q29 0 49.5 -21t20.5 -50q0 -60 -49 -99q-35 -27 -105 -50q-6 -1 -16 -4q0 -46 23 -107q28 -78 69 -78q60 0 144 91q32 35 88 112q11 16 20 28l-16 -46q-68 -98 -127 -155q-94 -93 -164 -93q-57 0 -88 78q-21 50 -31 115
q-5 27 -8 47h-2q-16 0 -49 -93q-15 -44 -45 -131l-146 -16q6 17 17 52l14 42q9 30 17 52l36 102h-30q-62 -86 -105 -128q-60 -60 -134 -93q-34 -15 -71 -15q-100 0 -100 78l25 16q-3 -12 -3 -18q0 -26 18.5 -41t44.5 -15q49 0 129 86q75 80 107 140q-27 3 -60 28
q-45 31 -45 68q0 57 44 94q33 28 74 28q63 0 90 -49q16 -31 16 -72q0 -40 -17 -86z" />
    <glyph glyph-name="afii10073" unicode="&#x437;" horiz-adv-x="545" 
d="M408 400q2 -46 -45 -127q-30 -52 -83 -119q10 2 21 2q32 0 57 -18.5t30 -49.5q4 -23 -9 -55q68 9 138 73t147 176l-15 -46q-102 -151 -198 -210q-41 -26 -87 -40q-30 -117 -109.5 -180t-200.5 -63q-95 0 -153 30q-22 12 -36 31q-17 19 -17 46q0 86 164 155l14 -8
q-30 -20 -57 -51.5t-27 -73.5q0 -52 40 -82q36 -26 90 -26q86 0 142 99q23 43 39 91l21 65q8 24 8 49q0 36 -23 36q-31 0 -105 -63l-8 37q112 59 161 172q11 26 11 68q0 96 -56 96q-38 0 -70 -40q-24 -30 -46 -81q-20 -46 -32 -101t-12 -84l-76 99q70 140 187 214
q68 43 130 43q63 0 65 -64z" />
    <glyph glyph-name="afii10074" unicode="&#x438;" 
d="M340 134l100 301h-12q-159 -451 -338 -451q-64 0 -64 62q0 26 21 88l39 116q30 89 30 141q0 33 -54 33l6 22l194 10q-15 -30 -26 -63l-88 -262q-11 -33 -11 -53q0 -12 8 -21.5t19 -9.5q43 0 89 59q31 39 65 111q50 106 72 172q6 19 20 57l143 10q-7 -24 -25 -73l-15 -40
q-7 -19 -11 -31l-62 -181q-10 -29 -10 -53q0 -31 26 -31q56 0 138 97q34 47 104 140l-16 -46q-6 -16 -24 -40l-30 -38q-72 -97 -154 -148q-46 -28 -91 -28q-63 0 -63 62q0 27 20 88z" />
    <glyph glyph-name="afii10075" unicode="&#x439;" 
d="M340 134l100 301h-12q-159 -451 -338 -451q-64 0 -64 62q0 26 21 88l39 116q30 89 30 141q0 33 -54 33l6 22l194 10q-15 -30 -26 -63l-88 -262q-11 -33 -11 -53q0 -12 8 -21.5t19 -9.5q43 0 89 59q31 39 65 111q50 106 72 172q6 19 20 57l143 10q-7 -24 -25 -73l-15 -40
q-7 -19 -11 -31l-62 -181q-10 -29 -10 -53q0 -31 26 -31q56 0 138 97q34 47 104 140l-16 -46q-6 -16 -24 -40l-30 -38q-72 -97 -154 -148q-46 -28 -91 -28q-63 0 -63 62q0 27 20 88zM238 684l15 7l48 20q0 -76 22 -108q36 -52 84 -50q45 2 88 39q25 21 42 43l22 6
q-10 -14 -32 -42q-9 -11 -19 -20q-77 -74 -157 -69t-108 85q-8 22 -9 46q-1 18 4 43z" />
    <glyph glyph-name="afii10076" unicode="&#x43a;" horiz-adv-x="545" 
d="M250 246h30q61 0 110 49q26 27 26 59v4q0 14 -9 24.5t-23 10.5q-36 0 -79 -58q-26 -35 -55 -89zM144 0l-146 -16q2 8 6 21l10 31q11 31 32 94l125 385q45 139 45 179q0 25 -21 34q-9 3 -43 6l8 22l194 10l-246 -756h17q54 190 151 335q74 111 153 111q29 0 50 -21t21 -50
q0 -60 -50 -99q-34 -27 -105 -50q-1 -2 -6 -2q-9 0 -6 -29q5 -44 26 -94q28 -64 63 -64q60 0 144 93q39 42 88 110q11 16 20 28l-16 -46l-56 -74q-71 -94 -152 -146q-44 -28 -84 -28q-62 0 -96 95q-14 39 -20 79l-10 66h-2q-13 0 -38 -64q-4 -8 -34 -96z" />
    <glyph glyph-name="afii10077" unicode="&#x43b;" horiz-adv-x="562" 
d="M466 312l-72 -225q-4 -13 -4 -23q0 -22 27 -22q57 0 140 95q22 25 54 71q38 55 51 72l-15 -46q-123 -167 -210 -222q-44 -28 -95 -28q-62 0 -62 52q0 26 28 110l56 168q12 36 12 61q0 23 -22 23q-39 0 -83 -51q-27 -31 -50 -74q-45 -81 -65 -133q-12 -33 -23 -66
q-17 -44 -34 -58q-24 -19 -66 -24q-35 -4 -71 -8q17 35 39 108q7 23 17 54q15 4 56 6q36 3 56 11q16 7 31 33l20 42q16 33 24 48q97 170 225 170q23 0 39.5 -12t16.5 -34v-13q0 -7 -2 -15q-3 -24 -18 -70z" />
    <glyph glyph-name="afii10078" unicode="&#x43c;" horiz-adv-x="853" 
d="M136 58q-16 -48 -68 -62l-96 -12q17 35 39 108q7 23 17 54q15 4 56 6q36 3 56 11q16 7 31 33l20 42q16 33 24 48q97 170 225 170q23 0 39.5 -12t16.5 -34q0 -33 -8 -58l-110 -342h10q39 134 120 276q40 71 93 115q64 55 133 55q54 0 54 -48q0 -24 -11 -58l-76 -234
q-8 -25 -8 -48q0 -26 19 -26q45 0 108 63q44 44 93 113l26 36q11 16 18 26l-16 -46q-106 -161 -213 -224q-45 -26 -92 -26q-21 0 -37.5 13t-16.5 33q0 27 10 58l72 226q14 44 14 58q0 26 -26 26q-49 0 -104 -86q-41 -63 -80 -153q-23 -54 -48 -120q-9 -24 -14 -39l-143 -16
q5 10 19 50q12 37 36 112l56 168q12 36 12 61q0 23 -22 23q-39 0 -83 -51q-27 -31 -50 -74q-45 -81 -65 -133q-19 -48 -30 -82z" />
    <glyph glyph-name="afii10079" unicode="&#x43d;" horiz-adv-x="591" 
d="M293 250h90q31 100 31 141q0 33 -56 33l6 22l195 10q-24 -45 -40 -102q-4 -14 -13 -42l-64 -196q-12 -37 -12 -52q0 -22 26 -22q36 0 72 28q32 25 69 67q22 25 54 71q38 55 51 72l-15 -46l-28 -36q-32 -42 -102 -122q-93 -92 -175 -92q-62 0 -62 52q0 23 22 89l18 52
q8 25 12 38l-90 -1q-53 -10 -74 -55q-25 -53 -42 -102l-20 -57l-143 -16q17 36 57 162l33 104q31 98 31 141q0 33 -54 33l6 22l194 10q-17 -34 -54 -144l-100 -302h13q9 26 27 79q17 46 40 95q17 36 35 48t62 18z" />
    <glyph glyph-name="afii10080" unicode="&#x43e;" horiz-adv-x="486" 
d="M612 284l-16 -46q-82 -107 -140 -156q-98 -82 -188 -82q-32 0 -59 16l-52 -21q-30 -11 -63 -11q-102 0 -102 103q0 111 112 235q121 134 242 134q104 0 104 -100q0 -78 -78 -187q-49 -68 -92 -100q-22 -17 -22 -24q0 -8 31 -8q54 0 104 29q87 52 157 141l33 42
q15 19 29 35zM167 173q0 -89 65 -121q32 32 57 83q52 108 52 206q0 73 -43 73q-35 0 -73 -55q-32 -47 -47 -103q-11 -40 -11 -77v-6zM270 422l4 9q-31 -10 -64 -39q-67 -60 -98 -158q-16 -51 -16 -100q0 -40 14 -70q18 -38 54 -38q8 0 6 15q-3 14 -9 35l-14 42q-7 22 -7 38
q0 58 23 120.5t61 105.5q24 26 46 40z" />
    <glyph glyph-name="afii10081" unicode="&#x43f;" 
d="M146 0l-143 -16q17 36 57 162l33 104q31 98 31 141q0 33 -54 33l6 22l194 10q-17 -34 -54 -144l-100 -302h13q9 26 27 79q36 103 88 189q66 111 137 155q37 23 82 23q65 0 65 -48q0 -27 -10 -58l-76 -234q-9 -28 -9 -48q0 -26 19 -26q54 0 139 97q34 39 63 79l44 62
l-16 -46q-99 -157 -215 -224q-45 -26 -92 -26q-21 0 -36 13t-15 33q0 26 10 58l70 226q14 45 14 58q0 26 -25 26q-41 0 -88 -60q-37 -48 -86 -156l-21 -45q-20 -44 -32 -80z" />
    <glyph glyph-name="afii10082" unicode="&#x440;" horiz-adv-x="545" 
d="M76 -244l-155 -13q10 26 18 51l17 48l15 42q5 14 13 39l106 327q29 89 29 141q0 33 -53 33l6 22l193 10q-6 -12 -16 -37q-17 -41 -25 -70q0 -2 -12 -37l-178 -546h22q63 239 124 402q49 131 107 202q22 27 43 46q43 40 96 40q86 0 86 -107q0 -80 -53 -180
q-47 -87 -122 -147q-48 -38 -97 -38t-74 34l68 56v-14q0 -40 42 -40q34 0 62 44q23 36 36 84q17 61 26 137q2 21 2 37q0 55 -30 55q-42 0 -96 -88q-40 -66 -82 -179l-35 -96q-56 -156 -83 -258z" />
    <glyph glyph-name="afii10083" unicode="&#x441;" horiz-adv-x="388" 
d="M524 280l-16 -46q-101 -122 -173 -174q-106 -76 -227 -76q-122 0 -122 102q0 49 35 120q29 57 68 106q115 144 241 144q30 0 86 -14l-44 -92q-7 80 -79 80q-56 0 -109 -71q-36 -47 -61 -111q-27 -70 -27 -124q0 -82 90 -82q70 0 148 51q75 48 190 187z" />
    <glyph glyph-name="afii10084" unicode="&#x442;" horiz-adv-x="874" 
d="M150 0l-144 -16q9 20 56 162l34 104q31 95 31 141q0 33 -55 33l7 22l193 10q-22 -48 -53 -144l-98 -302h11q48 137 72 190q47 104 108 172q75 84 162 84q23 0 39.5 -12t16.5 -34q0 -33 -8 -58l-110 -342h10q39 134 120 276q40 71 93 115q64 55 133 55q54 0 54 -48
q0 -24 -11 -58l-76 -234q-8 -25 -8 -48q0 -26 19 -26q45 0 108 63q44 44 93 113l26 36q11 16 18 26l-16 -46q-106 -161 -213 -224q-45 -26 -92 -26q-21 0 -37.5 13t-16.5 33q0 27 10 58l72 226q14 44 14 58q0 26 -26 26q-52 0 -107 -89q-40 -65 -77 -150q-23 -54 -48 -120
q-9 -24 -14 -39l-143 -16q5 10 19 50q12 37 36 112l56 168q12 36 12 61q0 23 -22 23q-56 0 -111.5 -90t-86.5 -168q-34 -86 -50 -140z" />
    <glyph glyph-name="afii10085" unicode="&#x443;" 
d="M400 -12l-10 -32q-67 -213 -290 -213q-71 0 -120 21q-67 29 -67 90q0 63 75 116q35 25 134 65q-10 21 -12 79l-8 198q-3 80 -19 98q-9 10 -29 13q-17 0 -34 1l6 22l168 10l9 -335q2 -69 20 -69q20 0 43 31q36 48 71 146q15 43 31 91l25 78q11 34 15 48l147 10l-139 -421
q64 5 128 59q55 47 130 155q13 19 26 35l-16 -46q-102 -149 -196 -213q-40 -28 -88 -37zM280 -60l158 495h-14q-20 -69 -66 -205l-20 -52q-26 -67 -59 -117q-51 -77 -98 -77q-29 0 -50 30q-124 -56 -124 -148q0 -46 30.5 -74t76.5 -28q110 0 166 176z" />
    <glyph glyph-name="afii10086" unicode="&#x444;" horiz-adv-x="787" 
d="M363 370h12l60 190q30 95 30 140q0 34 -54 34l6 22l194 10q-27 -60 -54 -144l-274 -856h22q64 242 128 402q67 168 154 248q43 40 98 40q76 0 76 -102q0 -53 -26 -121q-24 -63 -61 -117q-91 -132 -185 -132q-49 0 -74 34l68 56v-14q0 -40 42 -40q36 0 66 43q23 32 40 83
q21 63 30 144q2 18 2 32q0 55 -30 55q-50 0 -116 -112q-42 -71 -74 -155q-68 -177 -118 -354l-155 -13q17 45 49 137l8 23q2 7 6 20l116 370h-16q-29 -98 -94 -187q-90 -122 -182 -122q-76 0 -76 92q0 120 116 254q109 126 206 126q60 0 60 -66v-20zM93 114q0 -67 33 -67
q47 0 119 105.5t72 179.5q0 33 -17 57.5t-49 24.5q-64 0 -116 -120q-42 -97 -42 -174v-6z" />
    <glyph glyph-name="afii10087" unicode="&#x445;" horiz-adv-x="622" 
d="M738 280l-15 -46q-59 -81 -153 -155q-120 -95 -208 -95q-92 0 -104 128q-3 33 -3 59h-2q-3 0 -19 -28q-7 -13 -20 -35q-60 -89 -113 -113q-24 -11 -53 -11q-31 0 -54 32l70 68v-10q0 -32 30 -32q41 0 95 71q36 48 66 104v92q0 33 -1 37q-3 26 -18 26h-4q-21 0 -69 -50
q-32 -33 -65 -78l12 36q14 42 73 105q68 71 113 71q53 0 55 -68v-43v-61h3q2 0 34 45q14 21 44 59q64 68 121 68q30 0 51 -25l-46 -65q-9 24 -43 22q-65 -4 -112 -74q-25 -36 -51 -68v-40v-14q-1 -10 -1 -16v-10q0 -69 21 -102q14 -22 44 -22q42 0 90 26q55 30 91 61
q76 66 141 151z" />
    <glyph glyph-name="afii10088" unicode="&#x446;" 
d="M538 39l24 43l-5 -5q-93 -93 -174 -93q-63 0 -63 62q0 28 20 88l100 301h-12q-159 -451 -338 -451q-64 0 -64 62q0 26 21 88l39 116q30 89 30 141q0 33 -54 33l6 22l194 10q-15 -30 -26 -63l-88 -262q-11 -33 -11 -53q0 -12 8 -21.5t19 -9.5q43 0 89 59q31 39 65 111
q50 106 72 172q6 19 20 57l143 10q-7 -24 -25 -73l-15 -40q-7 -19 -11 -31l-62 -181q-10 -29 -10 -53q0 -31 26 -31q56 0 138 97q34 47 104 140l-16 -46q-6 -16 -24 -40l-30 -38q-30 -42 -39 -55q-19 -31 -29 -61q-9 -25 -9 -52q0 -19 2.5 -58t2.5 -60q-1 -74 -36 -132
t-104 -58q-36 0 -58 7l58 109q24 -10 46 -9q61 2 68 84q2 23 2 44q0 13 -2 39t-2 39q3 30 10 42z" />
    <glyph glyph-name="afii10089" unicode="&#x447;" horiz-adv-x="459" 
d="M222 504q14 29 14 60q0 23 -9 43q-11 25 -31 25q-43 0 -75 -84q-30 -76 -30 -142q0 -40 13 -73q78 90 118 171zM246 498q-61 -111 -134 -180q22 -38 51 -38q37 0 78 66q32 53 43 100l143 10q-7 -24 -25 -73l-15 -40q-7 -19 -11 -31l-62 -181q-10 -29 -10 -53
q0 -31 26 -31q56 0 138 97q34 47 104 140l-16 -46q-6 -16 -24 -40l-30 -38q-72 -97 -154 -148q-46 -28 -91 -28q-63 0 -63 62q0 28 20 88l100 301h-12q-53 -113 -58 -121q-39 -65 -94 -93q-18 -9 -32 -9q-42 0 -52 64q-59 -49 -104 -65l4 23l62 30q11 5 34 26q-2 35 -2 49
q2 67 23 145q22 82 57 136q56 87 112 88q45 1 45 -63q0 -55 -51 -147z" />
    <glyph glyph-name="afii10090" unicode="&#x448;" horiz-adv-x="874" 
d="M456 47q41 0 87 55q33 39 69 115q45 93 71 172q7 19 19 57l144 10q-3 -10 -41 -113q-6 -18 -11 -31l-61 -181q-10 -30 -10 -53q0 -12 8 -21.5t19 -9.5q47 0 108 63q39 39 89 112q14 21 43 62l-15 -46q-66 -102 -125 -161q-93 -93 -174 -93q-64 0 -64 62q0 25 21 88
l100 301h-12q-159 -451 -338 -451q-63 0 -63 62q0 28 20 88l100 301h-12q-159 -451 -338 -451q-64 0 -64 62q0 26 21 88l39 116q30 89 30 141q0 33 -54 33l6 22l194 10q-15 -30 -26 -63l-88 -262q-11 -33 -11 -53q0 -12 8 -21.5t19 -9.5q43 0 89 59q31 39 65 111
q50 106 72 172q6 19 20 57l143 10q-7 -24 -25 -73l-15 -40q-7 -19 -11 -31l-62 -181q-10 -29 -10 -53q0 -11 8 -21t18 -10z" />
    <glyph glyph-name="afii10091" unicode="&#x449;" horiz-adv-x="874" 
d="M826 39l16 29q-91 -84 -166 -84q-64 0 -64 62q0 25 21 88l100 301h-12q-159 -451 -338 -451q-63 0 -63 62q0 28 20 88l100 301h-12q-159 -451 -338 -451q-64 0 -64 62q0 26 21 88l39 116q30 89 30 141q0 33 -54 33l6 22l194 10q-15 -30 -26 -63l-88 -262q-11 -33 -11 -53
q0 -12 8 -21.5t19 -9.5q43 0 89 59q31 39 65 111q50 106 72 172q6 19 20 57l143 10q-7 -24 -25 -73l-15 -40q-7 -19 -11 -31l-62 -181q-10 -29 -10 -53q0 -11 8 -21t18 -10q41 0 87 55q33 39 69 115q45 93 71 172q7 19 19 57l144 10q-3 -10 -41 -113q-6 -18 -11 -31
l-61 -181q-10 -30 -10 -53q0 -12 8 -21.5t19 -9.5q47 0 108 63q39 39 89 112q14 21 43 62l-15 -46q-16 -27 -47 -67q-43 -55 -50 -65q-40 -56 -40 -114q0 -19 2.5 -58t2.5 -60q-1 -74 -36 -132q-15 -26 -45 -42t-60 -16q-36 0 -57 7l57 109q28 -9 46 -9q63 2 69 84
q1 23 1 44q0 12 -1.5 38t-1.5 40q1 23 11 42z" />
    <glyph glyph-name="afii10092" unicode="&#x44a;" horiz-adv-x="497" 
d="M112 490q-13 -32 -18 -44l194 10q-15 -30 -26 -63l-88 -262q-11 -33 -11 -53q0 -56 41 -56q30 0 74 26q41 25 57 52q21 36 21 62q-1 28 -21 48t-48 20q-19 0 -33 -11l-36 -23l13 38q76 42 142 42q88 0 88 -63q0 -76 -44 -119q-113 -110 -301 -110q-64 0 -64 62
q0 26 21 88l39 116q30 89 30 141q0 21 -19 27q-9 2 -37 2q-57 -168 -62 -176q-4 0 -16 4l59 171q-77 0 -77 73q0 30 28 98q33 80 76 80q44 0 44 -70q0 -43 -26 -110zM75 442l11 29q12 32 12 71q0 54 -24 54t-40.5 -29.5t-16.5 -57.5q0 -64 58 -67z" />
    <glyph glyph-name="afii10093" unicode="&#x44b;" horiz-adv-x="712" 
d="M828 280l-14 -46l-60 -79q-70 -92 -150 -143q-44 -28 -95 -28q-63 0 -63 52q0 18 30 110l34 104q30 92 30 141q0 33 -54 33l6 22l194 10q-11 -23 -39 -101q-2 -6 -14 -43l-63 -196q-13 -40 -13 -52q0 -22 27 -22q58 0 140 95q39 45 104 143zM309 100q21 36 21 62
q-1 28 -21 48t-48 20q-19 0 -33 -11l-36 -23l13 38q76 42 142 42q88 0 88 -63q0 -76 -44 -119q-113 -110 -301 -110q-64 0 -64 62q0 26 21 88l39 116q30 89 30 141q0 33 -54 33l6 22l194 10q-15 -30 -26 -63l-88 -262q-11 -33 -11 -53q0 -56 41 -56q30 0 74 26q41 25 57 52z
" />
    <glyph glyph-name="afii10094" unicode="&#x44c;" horiz-adv-x="459" 
d="M309 100q21 36 21 62q-1 28 -21 48t-48 20q-19 0 -33 -11l-36 -23l13 38q76 42 142 42q88 0 88 -63q0 -76 -44 -119q-113 -110 -301 -110q-64 0 -64 62q0 26 21 88l39 116q30 89 30 141q0 33 -54 33l6 22l194 10q-15 -30 -26 -63l-88 -262q-11 -33 -11 -53q0 -56 41 -56
q30 0 74 26q41 25 57 52z" />
    <glyph glyph-name="afii10095" unicode="&#x44d;" horiz-adv-x="486" 
d="M324 230l2 6q15 45 15 105q0 73 -43 73q-35 0 -73 -55q-30 -44 -47 -103l-6 71q17 34 41 61q20 23 66 46q50 26 91 26t62 -33q18 -28 18 -71q0 -78 -78 -187q-38 -51 -96 -106q-16 -15 -24 -20q15 -5 36 -5q56 0 98 24q91 51 164 145l33 42q15 19 29 35l-16 -46
q-82 -107 -140 -156q-98 -82 -188 -82q-32 0 -59 16l-52 -21q-30 -11 -63 -11q-102 0 -102 103q0 67 30 115l13 -16q-1 1 -2 -30q-1 -57 43 -96q37 -34 80 -34q66 0 114 76q18 29 38 79q4 11 6 15h-175q-31 0 -57 21l34 57q7 -28 36 -35q86 -9 172 -9z" />
    <glyph glyph-name="afii10096" unicode="&#x44e;" horiz-adv-x="731" 
d="M421 173q0 -89 65 -121q32 32 57 83q52 108 52 206q0 73 -43 73q-35 0 -73 -55q-32 -47 -47 -103q-11 -40 -11 -77v-6zM524 422l4 9q-31 -10 -64 -39q-66 -59 -98 -158q-16 -50 -16 -100q0 -38 15 -69q19 -39 53 -39q7 0 4 15q-2 9 -16 59q-12 39 -12 56q0 58 23 120.5
t61 105.5q18 20 46 40zM284 216q-56 -14 -86 -79q-18 -40 -31 -77l-21 -60l-143 -16q17 36 57 162l33 104q31 98 31 141q0 33 -54 33l6 22l194 10q-17 -34 -54 -144l-100 -302h13q9 26 27 79q17 46 40 95q17 36 35 48t62 18h10q73 110 169 168q63 38 128 38q104 0 104 -100
q0 -78 -78 -187q-49 -67 -92 -100q-22 -17 -22 -24q0 -8 30 -8q55 0 105 29q87 52 157 141l33 42q15 19 29 35l-16 -46q-82 -107 -140 -156q-98 -82 -189 -82q-31 0 -58 16l-52 -21q-30 -11 -63 -11q-102 0 -102 103q0 64 38 129z" />
    <glyph glyph-name="afii10097" unicode="&#x44f;" 
d="M-3 -14l49 137l94 -4q15 -46 46 -46q37 0 86 63q40 51 54 92l-98 -21q-5 -1 -15 -1h-19q-98 0 -98 62q0 53 42 94q39 38 94 48q150 28 321 46q-17 -43 -40 -113l-11 -31l-62 -181q-10 -29 -10 -53q0 -31 26 -31q56 0 138 97q34 47 104 140l-16 -46q-6 -16 -24 -40
l-30 -38q-72 -97 -154 -148q-46 -28 -91 -28q-63 0 -63 62q0 28 20 88l96 288l-94 -9q-46 -4 -89.5 -53.5t-43.5 -89.5t31 -40q59 0 118 38q-43 -130 -130 -201q-98 -81 -231 -81z" />
    <glyph glyph-name="afii10071" unicode="&#x451;" horiz-adv-x="388" 
d="M520 280l-16 -46q-75 -109 -172 -176q-47 -33 -109 -54q-58 -20 -125 -20q-114 0 -114 96q0 58 34 129q29 61 73 113q113 134 231 134q59 0 59 -50q0 -67 -85 -153q-90 -91 -186 -91h-12q-4 -24 -4 -40q0 -85 94 -85q110 0 234 121q39 37 98 122zM110 215q26 -10 50 -10
h4q24 0 45 13q73 45 73 159q0 47 -28 47q-42 0 -91 -89q-33 -59 -53 -120zM240 524q-46 0 -46 48q0 44 46 44t46 -44q0 -48 -46 -48zM393 524q-20 0 -33.5 14t-13.5 34q0 44 47 44q45 0 45 -44q0 -48 -45 -48z" />
    <glyph glyph-name="fraction" unicode="&#x2044;" horiz-adv-x="265" 
d="M-14 1l-118 -17q104 232 376 523q43 46 74 77l71 72l21 -19q-146 -146 -254 -304q-142 -208 -170 -332z" />
    <glyph glyph-name="fi" unicode="&#xf001;" 
d="M344 146l83 264h-193l-124 -380q-35 -106 -59 -150q-45 -77 -105 -112q-44 -25 -102 -25q-56 0 -105 29l67 82q8 -46 15 -57q13 -23 50 -23q35 0 68 58q25 45 41 102q6 19 19 57l134 419h-21q-50 0 -94 -12l38 42h88l10 33q41 135 104 205q78 88 201 88q131 0 161 -104
l-86 -29q0 101 -103 101q-76 0 -118 -85q-17 -35 -40 -112q-4 -12 -11 -35l-18 -62h84l225 16q-11 -21 -16 -34l-11 -30q-9 -27 -26 -80l-64 -196q-12 -37 -12 -52q0 -22 28 -22q57 0 140 95q37 42 104 143l-14 -46q-79 -102 -96 -121q-57 -65 -114 -101q-44 -28 -95 -28
q-63 0 -63 52q0 20 11 55q10 28 19 55z" />
    <glyph glyph-name="fl" unicode="&#xf002;" 
d="M332 102l99 308h-199l-124 -380q-43 -133 -88 -193q-70 -94 -178 -94q-36 0 -54.5 5.5t-49.5 23.5l66 82q6 -42 15 -57q15 -23 51 -23q45 0 81 85q19 44 47 132l134 419h-22q-50 0 -92 -12l36 42h90l10 33q12 39 42 109q19 44 59 88q73 79 199 86l194 10l-212 -650
q-8 -25 -8 -48q0 -26 26 -26q36 0 72 28q32 25 69 67q22 25 54 71q38 55 51 72l-16 -46l-60 -79q-70 -92 -150 -143q-44 -28 -95 -28q-61 0 -61 52q0 22 14 66zM282 570l-40 -130h198l25 75q16 48 33 116q12 48 12 63q0 40 -66 40q-61 0 -98 -36q-29 -29 -51 -91
q-4 -12 -13 -37z" />
    <glyph glyph-name="uni001F" horiz-adv-x="278" 
d="M246 584q-56 0 -56 55q0 25 15.5 41t40.5 16q26 0 41.5 -15.5t15.5 -41.5q0 -55 -57 -55z" />
    <glyph glyph-name="glyph295" unicode=" " horiz-adv-x="310" 
 />
    <glyph glyph-name="u009D" horiz-adv-x="278" 
d="M172 582q-20 0 -33 13t-13 33t13 33t33 13q46 0 46 -46t-46 -46zM326 582q-20 0 -34 13t-14 33q0 21 13.5 33.5t34.5 12.5q44 0 44 -46q0 -20 -10 -33q-13 -13 -34 -13z" />
    <glyph glyph-name="softhyphen" horiz-adv-x="1229" 
d="M463 336q-39 -128 -39 -204v-3q0 -55 34 -89.5t89 -34.5q63 0 98 48q31 43 31 109q0 47 -20 86q-22 44 -61 62q-34 16 -66.5 19.5t-65.5 6.5zM981 624h-73q-132 0 -212 -28q-95 -33 -170 -125q-17 -20 -32 -56q-12 -29 -25 -59q117 0 178 -21q82 -28 116 -86
q17 -29 17 -78q0 -72 -63 -127q-69 -60 -160 -60h-6q-153 0 -153 146q0 34 20 125q5 24 7 33l12 46h-39q-25 -80 -44 -166q-4 -17 -11 -52l-5 -30q-8 -39 -8 -86l-127 -16q9 75 40 177q28 86 56 173h-25q-123 0 -141 -96l-98 -10q15 77 96 107q53 19 151 19h23q26 69 78 206
q13 34 25 60q-15 4 -42 4q-71 0 -122 -25q-84 -42 -84 -113v-4q0 -32 11 -58l-115 -12q19 124 120 183q79 46 238 55l104 6l-28 -66q-11 -28 -59 -159q-15 -42 -25 -77h38q17 44 26 64q16 35 34 59q72 96 189 135q67 22 156 30q35 4 159 8l166 6q-98 -200 -142 -414
q-16 -77 -16 -144q0 -45 22 -98l-50 -10q-9 45 -9 92q0 93 59 276q51 158 100 270h-38q-98 -226 -152 -460q-9 -36 -19 -107q-1 -27 -5 -61l-128 -16q27 209 143 489l32 77q15 37 31 70q-9 2 -21 4z" />
  </font>
</defs>
</svg>
